<svg xmlns="http://www.w3.org/2000/svg" width="894" height="520" viewBox="0 0 894 520" version="1.1"><path d="M 221.250 41.728 C 223.313 41.944, 226.688 41.944, 228.750 41.728 C 230.813 41.513, 229.125 41.336, 225 41.336 C 220.875 41.336, 219.188 41.513, 221.250 41.728 M 242.728 41.722 C 244.503 41.943, 247.653 41.946, 249.728 41.730 C 251.802 41.513, 250.350 41.333, 246.500 41.328 C 242.650 41.324, 240.952 41.501, 242.728 41.722 M 257.459 44.067 C 256.463 45.678, 257.164 45.738, 261 44.365 L 264.500 43.113 261.309 43.056 C 259.554 43.025, 257.821 43.480, 257.459 44.067 M 282 50.500 C 283.375 51.286, 285.625 51.884, 287 51.828 C 289.336 51.734, 289.352 51.699, 287.250 51.294 C 286.012 51.056, 285 50.442, 285 49.930 C 285 49.419, 283.762 49.016, 282.250 49.035 L 279.500 49.071 282 50.500 M 299 58.500 C 299.685 59.325, 300.884 60, 301.664 60 C 302.445 60, 304.050 60.900, 305.230 62 C 307.381 64.003, 311.639 64.842, 310.527 63.044 C 310.202 62.518, 309.202 62.369, 308.304 62.714 C 307.213 63.132, 306.912 62.952, 307.395 62.170 C 307.813 61.494, 307.539 61, 306.748 61 C 305.994 61, 304.411 60.100, 303.230 59 C 300.609 56.558, 297.038 56.135, 299 58.500 M 311.638 66.500 C 311.955 67.325, 313.066 68, 314.107 68 C 315.148 68, 316 68.689, 316 69.531 C 316 70.374, 316.788 71.341, 317.750 71.680 C 318.712 72.020, 320.480 73.179, 321.679 74.256 C 322.877 75.333, 324.452 75.977, 325.179 75.686 C 325.970 75.370, 325.698 75.120, 324.500 75.064 C 322.836 74.985, 322.752 74.807, 324 74 C 325.207 73.220, 325.049 73.028, 323.191 73.015 C 321.909 73.007, 321.157 72.555, 321.500 72 C 321.840 71.450, 321.390 71, 320.500 71 C 319.610 71, 319.160 70.550, 319.500 70 C 319.840 69.450, 319.416 69, 318.559 69 C 317.702 69, 317 68.550, 317 68 C 317 67.450, 316.298 67, 315.441 67 C 314.584 67, 314.160 66.550, 314.500 66 C 314.840 65.450, 314.206 65, 313.090 65 C 311.699 65, 311.243 65.471, 311.638 66.500 M 327.597 78.764 C 328.644 79.734, 329.980 81.392, 330.567 82.447 C 331.154 83.503, 332.490 84.846, 333.536 85.433 C 334.583 86.020, 336.683 87.777, 338.204 89.339 C 339.724 90.900, 341.538 91.948, 342.234 91.668 C 343.227 91.268, 343.218 91.141, 342.191 91.079 C 341.471 91.036, 341.160 90.550, 341.500 90 C 341.840 89.450, 341.390 89, 340.500 89 C 339.610 89, 339.160 88.550, 339.500 88 C 339.840 87.450, 339.609 87, 338.988 87 C 338.366 87, 337.182 86.325, 336.357 85.500 C 335.532 84.675, 335.132 84, 335.468 84 C 335.804 84, 335.499 83.368, 334.789 82.596 C 334.080 81.823, 333.275 81.261, 333 81.346 C 332.725 81.431, 332.414 81.112, 332.309 80.637 C 332.129 79.826, 327.408 77, 326.233 77 C 325.936 77, 326.550 77.794, 327.597 78.764 M 273 89.059 C 273 89.641, 273.450 89.840, 274 89.500 C 274.550 89.160, 275 89.357, 275 89.938 C 275 90.954, 281.114 94.040, 281.869 93.405 C 282.772 92.647, 276.019 88, 274.014 88 C 273.456 88, 273 88.477, 273 89.059 M 346.032 97.750 C 346.100 99.349, 348.800 102, 350.360 102 C 351.262 102, 352 102.627, 352 103.393 C 352 104.796, 354.875 106.458, 355.765 105.569 C 356.453 104.881, 348.536 97, 347.156 97 C 346.520 97, 346.014 97.338, 346.032 97.750 M 295 103.059 C 295 103.641, 295.450 103.840, 296 103.500 C 296.550 103.160, 297 103.610, 297 104.500 C 297 105.390, 297.450 105.840, 298 105.500 C 298.550 105.160, 299 105.610, 299 106.500 C 299 107.390, 299.450 107.840, 300 107.500 C 300.550 107.160, 301 107.610, 301 108.500 C 301 109.390, 301.450 109.840, 302 109.500 C 302.550 109.160, 303 109.385, 303 110 C 303 110.615, 303.453 110.838, 304.007 110.496 C 304.561 110.153, 305.310 110.689, 305.671 111.687 C 306.568 114.164, 316 123.377, 316 121.775 C 316 120.507, 304.562 108, 303.402 108 C 303.072 108, 301.541 106.650, 300 105 C 297.163 101.963, 295 101.123, 295 103.059 M 211 106 C 210.207 107.100, 208.975 108, 208.262 108 C 206.843 108, 200 114.648, 200 116.027 C 200 116.497, 200.445 117.157, 200.989 117.493 C 201.577 117.856, 201.709 117.405, 201.315 116.378 C 200.814 115.072, 201.047 114.804, 202.275 115.275 C 203.464 115.732, 203.735 115.474, 203.290 114.313 C 202.892 113.276, 203.137 112.879, 203.998 113.166 C 205.339 113.613, 213 106.597, 213 104.921 C 213 103.562, 212.602 103.777, 211 106 M 109.290 107 C 109.002 108.100, 108.369 109, 107.883 109 C 107.398 109, 107 109.695, 107 110.545 C 107 111.685, 107.657 111.434, 109.500 109.591 C 112.137 106.954, 112.735 105, 110.906 105 C 110.305 105, 109.577 105.900, 109.290 107 M 356 108.279 C 356 108.983, 356.900 110.207, 358 111 C 359.100 111.793, 360 113.013, 360 113.712 C 360 114.411, 360.900 115.545, 362 116.232 C 363.100 116.919, 364 117.883, 364 118.373 C 364 118.864, 364.825 119.993, 365.833 120.883 C 366.841 121.772, 368.468 123.737, 369.448 125.250 C 370.494 126.865, 372.112 127.987, 373.365 127.968 C 375.353 127.939, 375.379 127.845, 373.750 126.608 C 372.788 125.877, 372 124.959, 372 124.568 C 372 123.489, 369.282 121, 368.103 121 C 367.531 121, 367.296 120.391, 367.582 119.648 C 367.868 118.901, 366.544 116.929, 364.623 115.242 C 362.710 113.562, 361.412 111.921, 361.739 111.594 C 362.066 111.267, 361.508 111, 360.500 111 C 359.492 111, 358.945 110.721, 359.286 110.381 C 359.898 109.769, 357.675 107, 356.571 107 C 356.257 107, 356 107.576, 356 108.279 M 321.405 129.155 C 320.962 129.870, 321.130 130.038, 321.845 129.595 C 322.536 129.168, 323 129.532, 323 130.500 C 323 131.390, 323.450 131.840, 324 131.500 C 324.550 131.160, 325 131.610, 325 132.500 C 325 133.390, 325.450 133.840, 326 133.500 C 326.550 133.160, 327 133.610, 327 134.500 C 327 135.481, 327.461 135.833, 328.170 135.395 C 328.952 134.912, 329.132 135.213, 328.714 136.304 C 328.369 137.202, 328.471 138.173, 328.939 138.462 C 329.407 138.752, 330.022 138.384, 330.306 137.646 C 330.764 136.453, 324.076 128, 322.675 128 C 322.368 128, 321.797 128.520, 321.405 129.155 M 91.250 131.618 C 90.013 132.889, 89 134.415, 89 135.010 C 89 135.604, 90.158 134.933, 91.574 133.517 C 92.989 132.101, 94.002 130.575, 93.824 130.125 C 93.646 129.676, 92.487 130.347, 91.250 131.618 M 374 130.417 C 374 131.196, 374.364 131.983, 374.808 132.167 C 375.253 132.350, 377.074 134.637, 378.856 137.250 C 381.974 141.822, 384 143.246, 384 140.867 C 384 140.244, 383.031 138.894, 381.847 137.867 C 380.663 136.840, 380.011 136, 380.398 136 C 380.785 136, 379.900 134.425, 378.432 132.500 C 375.621 128.814, 374 128.052, 374 130.417 M 780.296 135.744 C 784.583 135.932, 791.333 135.931, 795.296 135.742 C 799.258 135.552, 795.750 135.399, 787.500 135.400 C 779.250 135.401, 776.008 135.556, 780.296 135.744 M 331.079 139.250 C 331.036 140.213, 331.450 141, 332 141 C 332.550 141, 333 141.702, 333 142.559 C 333 143.416, 333.450 143.840, 334 143.500 C 334.550 143.160, 335 143.610, 335 144.500 C 335 145.390, 335.390 145.877, 335.866 145.583 C 337.443 144.608, 335.875 140, 333.967 140 C 332.977 140, 331.940 139.438, 331.662 138.750 C 331.361 138.003, 331.126 138.205, 331.079 139.250 M 82.500 144 C 82.840 144.550, 82.641 145, 82.059 145 C 81.477 145, 81 146.157, 81 147.571 C 81 149.857, 81.167 149.976, 82.500 148.643 C 84.218 146.925, 84.525 143, 82.941 143 C 82.359 143, 82.160 143.450, 82.500 144 M 337 146.500 C 335.863 147.870, 336.294 148.427, 338.250 148.118 C 338.663 148.053, 339 148.675, 339 149.500 C 339 150.325, 339.450 151, 340 151 C 340.550 151, 341 151.750, 341 152.667 C 341 153.583, 341.298 154.036, 341.662 153.672 C 342.450 152.883, 339.996 145, 338.962 145 C 338.568 145, 337.685 145.675, 337 146.500 M 832 145.953 C 832 146.477, 833.688 147.693, 835.750 148.654 C 837.813 149.616, 841.007 151.886, 842.848 153.699 C 844.690 155.513, 846.606 156.744, 847.106 156.435 C 848.170 155.777, 845.669 153, 844.012 153 C 843.391 153, 843.160 152.550, 843.500 152 C 843.840 151.450, 843.416 151, 842.559 151 C 841.702 151, 841 150.550, 841 150 C 841 149.450, 839.987 148.993, 838.750 148.985 C 836.931 148.972, 836.787 148.784, 838 148 C 839.207 147.220, 839.049 147.028, 837.191 147.015 C 835.909 147.007, 835.157 146.555, 835.500 146 C 835.840 145.450, 835.191 145, 834.059 145 C 832.927 145, 832 145.429, 832 145.953 M 389.143 149.610 C 390.198 149.928, 390.603 150.801, 390.276 152.053 C 389.996 153.124, 390.269 154, 390.883 154 C 391.498 154, 392 154.675, 392 155.500 C 392 156.325, 392.450 157, 393 157 C 393.550 157, 394 157.675, 394 158.500 C 394 159.325, 394.450 160, 395 160 C 395.550 160, 396 160.695, 396 161.545 C 396 163.318, 400.362 168, 402.014 168 C 402.621 168, 402.840 168.450, 402.500 169 C 402.160 169.550, 402.359 170, 402.941 170 C 404.538 170, 404.211 168.018, 402.506 167.364 C 401.684 167.048, 401.260 166.388, 401.565 165.895 C 401.869 165.403, 401.431 165, 400.590 165 C 399.680 165, 399.283 164.425, 399.609 163.577 C 399.909 162.795, 399.257 161.257, 398.161 160.161 C 397.064 159.064, 396.393 157.941, 396.669 157.664 C 396.945 157.388, 396.220 156.653, 395.058 156.031 C 393.895 155.409, 393.208 154.472, 393.531 153.950 C 393.854 153.427, 393.466 153, 392.670 153 C 391.874 153, 391.285 152.230, 391.361 151.288 C 391.444 150.262, 390.699 149.484, 389.500 149.346 C 388.190 149.194, 388.066 149.286, 389.143 149.610 M 343 154.385 C 343 155.453, 343.449 155.841, 344.170 155.395 C 344.962 154.906, 345.129 155.222, 344.687 156.374 C 344.282 157.428, 344.598 158.292, 345.517 158.645 C 346.333 158.958, 347 159.663, 347 160.213 C 347 161.710, 351.684 166.982, 352.389 166.278 C 352.725 165.942, 353 166.668, 353 167.892 C 353 169.121, 353.448 169.841, 354 169.500 C 354.550 169.160, 355 169.809, 355 170.941 C 355 172.073, 355.450 173, 356 173 C 356.550 173, 357 173.702, 357 174.559 C 357 175.416, 357.450 175.840, 358 175.500 C 358.550 175.160, 359 175.610, 359 176.500 C 359 177.390, 359.374 177.887, 359.831 177.604 C 360.288 177.322, 361.264 178.625, 362 180.500 C 362.736 182.375, 363.712 183.678, 364.169 183.396 C 364.626 183.113, 365 183.558, 365 184.384 C 365 186.830, 369.106 193.053, 370.252 192.344 C 370.874 191.960, 371.014 192.169, 370.591 192.853 C 370.196 193.491, 370.500 194.255, 371.266 194.549 C 372.032 194.843, 373.262 196.619, 373.999 198.496 C 374.735 200.373, 375.712 201.678, 376.169 201.396 C 376.626 201.113, 377 201.610, 377 202.500 C 377 203.390, 377.450 203.840, 378 203.500 C 378.550 203.160, 379 203.809, 379 204.941 C 379 206.073, 379.450 207, 380 207 C 380.550 207, 381 207.675, 381 208.500 C 381 209.325, 381.450 210, 382 210 C 382.550 210, 383 210.675, 383 211.500 C 383 212.325, 383.417 213, 383.927 213 C 384.436 213, 385.009 213.787, 385.200 214.750 C 385.435 215.937, 385.783 216.124, 386.283 215.331 C 386.687 214.687, 386.339 213.482, 385.509 212.652 C 384.679 211.822, 384 210.436, 384 209.571 C 384 208.707, 383.550 208, 383 208 C 382.450 208, 382 207.392, 382 206.648 C 382 205.905, 380.762 203.961, 379.250 202.329 C 377.738 200.697, 376.359 198.746, 376.188 197.994 C 376.016 197.242, 375.116 195.923, 374.188 195.063 C 373.259 194.203, 372.349 192.631, 372.165 191.570 C 371.980 190.508, 370.760 188.483, 369.452 187.070 C 364.393 181.602, 362.002 178.451, 362.001 177.250 C 362.001 176.563, 361.550 176, 361 176 C 360.450 176, 360 175.537, 360 174.971 C 360 173.941, 353.810 165.458, 350.014 161.286 C 348.907 160.068, 348 158.684, 348 158.210 C 348 157.736, 346.875 156.292, 345.500 155 C 343.365 152.994, 343 152.904, 343 154.385 M 848.750 156.577 C 847.303 158.036, 848.020 160, 850 160 C 851.100 160, 852 159.523, 852 158.941 C 852 158.359, 851.584 158.139, 851.076 158.453 C 850.567 158.767, 850.005 158.304, 849.826 157.423 C 849.647 156.541, 849.163 156.161, 848.750 156.577 M 75 157.892 C 75 158.566, 74.550 158.840, 74 158.500 C 73.433 158.149, 73 158.990, 73 160.441 C 73 161.848, 72.550 163, 72 163 C 71.450 163, 71 163.707, 71 164.571 C 71 165.968, 71.167 165.976, 72.500 164.643 C 73.325 163.818, 74 162.526, 74 161.771 C 74 161.017, 74.532 159.868, 75.183 159.217 C 75.834 158.566, 76.059 157.726, 75.683 157.350 C 75.308 156.974, 75 157.218, 75 157.892 M 851 162.500 C 851 163.325, 851.675 164, 852.500 164 C 853.325 164, 854 164.450, 854 165 C 854 165.550, 854.450 166, 855 166 C 856.252 166, 855.880 163.959, 854.321 162.274 C 852.725 160.549, 851 160.666, 851 162.500 M 856 168.500 C 856 169.325, 856.450 170, 857 170 C 857.550 170, 858 170.722, 858 171.605 C 858 172.487, 859.177 175.525, 860.615 178.355 C 864.442 185.884, 868 198.843, 868 205.250 C 868 208.727, 869.605 208.847, 870.260 205.420 C 870.845 202.359, 869.490 195.663, 868.198 195.233 C 867.699 195.066, 867.505 193.807, 867.768 192.434 C 868.287 189.720, 864.618 178.471, 862.381 175.919 C 861.619 175.049, 861.334 173.965, 861.748 173.510 C 862.162 173.054, 861.683 172.975, 860.685 173.334 C 859.244 173.852, 858.992 173.600, 859.464 172.112 C 859.845 170.912, 859.486 170.017, 858.466 169.625 C 857.590 169.289, 857.153 168.561, 857.496 168.007 C 857.838 167.453, 857.641 167, 857.059 167 C 856.477 167, 856 167.675, 856 168.500 M 157.238 173.163 C 155.748 174.652, 155.615 177.644, 157 178.500 C 157.550 178.840, 158 178.354, 158 177.419 C 158 176.485, 158.787 175.075, 159.750 174.286 C 160.713 173.497, 160.976 173.113, 160.335 173.432 C 159.695 173.751, 159.014 173.543, 158.823 172.969 C 158.599 172.296, 158.035 172.365, 157.238 173.163 M 783.904 174.616 C 783.159 175.513, 783.370 175.762, 784.694 175.548 C 785.687 175.388, 786.951 175.612, 787.503 176.046 C 788.054 176.480, 789.308 176.248, 790.289 175.531 C 791.893 174.358, 791.714 174.185, 788.495 173.810 C 786.408 173.566, 784.497 173.902, 783.904 174.616 M 410.032 181.750 C 410.071 182.675, 412.544 186, 413.194 186 C 413.454 186, 413.667 185.325, 413.667 184.500 C 413.667 183.675, 413.040 183, 412.274 183 C 411.509 183, 411.160 182.550, 411.500 182 C 411.840 181.450, 411.641 181, 411.059 181 C 410.477 181, 410.014 181.338, 410.032 181.750 M 799.378 195 C 799.378 201.325, 799.541 203.912, 799.739 200.750 C 799.937 197.588, 799.937 192.412, 799.739 189.250 C 799.541 186.088, 799.378 188.675, 799.378 195 M 414.525 186.959 C 413.763 188.193, 416.120 192, 417.647 192 C 418.330 192, 418.616 192.932, 418.338 194.250 C 417.925 196.202, 418.008 196.273, 418.961 194.785 C 420.209 192.838, 418.437 189, 416.291 189 C 415.610 189, 415.319 188.332, 415.638 187.500 C 416.275 185.842, 415.460 185.446, 414.525 186.959 M 59.136 188.750 C 59.061 189.988, 58.602 191, 58.117 191 C 57.631 191, 57.018 192.125, 56.755 193.500 C 56.492 194.875, 56.665 196, 57.139 196 C 57.612 196, 58 195.137, 58 194.083 C 58 193.029, 58.494 192.002, 59.098 191.801 C 59.702 191.599, 59.988 190.324, 59.734 188.967 C 59.301 186.653, 59.264 186.639, 59.136 188.750 M 626.211 190.538 C 624.858 192.072, 625.749 192.417, 628.418 191.393 C 629.288 191.059, 630 190.384, 630 189.893 C 630 188.510, 627.646 188.911, 626.211 190.538 M 53.079 202.750 C 53.036 203.988, 52.550 205, 52 205 C 51.450 205, 51 206.125, 51 207.500 C 51 208.875, 50.550 210, 50 210 C 49.450 210, 49 211.125, 49 212.500 C 49 213.875, 48.550 215, 48 215 C 47.450 215, 47 216.323, 47 217.941 C 47 219.559, 46.550 221.160, 46 221.500 C 45.450 221.840, 45.003 222.879, 45.006 223.809 C 45.010 224.879, 45.561 224.448, 46.506 222.636 C 47.328 221.060, 48 219.116, 48 218.314 C 48 217.513, 48.629 216.228, 49.397 215.460 C 51.204 213.653, 54.382 203.566, 53.690 201.833 C 53.397 201.099, 53.122 201.511, 53.079 202.750 M 141.081 202.849 C 139.616 205.586, 139.722 206.667, 141.456 206.667 C 142.257 206.667, 142.680 206.292, 142.397 205.833 C 142.114 205.375, 142.319 205, 142.852 205 C 143.386 205, 143.726 204.338, 143.607 203.529 C 143.239 201.018, 142.209 200.741, 141.081 202.849 M 683 205.500 C 681.988 206.720, 682.035 207, 683.255 207 C 684.080 207, 685.315 206.325, 686 205.500 C 687.012 204.280, 686.965 204, 685.745 204 C 684.920 204, 683.685 204.675, 683 205.500 M 428 210.133 C 428 210.756, 428.791 211.993, 429.757 212.883 C 430.723 213.772, 432.149 215.738, 432.926 217.250 C 434.467 220.251, 436 220.874, 436 218.500 C 436 217.675, 435.212 216.993, 434.250 216.985 C 432.948 216.973, 432.832 216.759, 433.797 216.146 C 434.834 215.489, 434.783 215.065, 433.547 214.039 C 432.696 213.333, 432 212.183, 432 211.485 C 432 210.786, 431.288 209.941, 430.418 209.607 C 428.251 208.775, 428 208.830, 428 210.133 M 650.115 221.393 L 647.729 222.715 650.334 223.213 C 651.767 223.487, 652.719 223.354, 652.449 222.917 C 652.179 222.480, 652.755 221.659, 653.729 221.092 C 656.486 219.487, 653.035 219.774, 650.115 221.393 M 867.656 239.029 C 867.371 243.138, 866.753 249.318, 866.281 252.763 C 865.173 260.861, 866.973 260.609, 868.694 252.425 C 870.274 244.911, 870.514 235.741, 869.193 233.380 C 868.404 231.971, 868.056 233.250, 867.656 239.029 M 444 234.071 C 444 235.639, 446.976 238.357, 447.796 237.537 C 448.181 237.152, 447.717 236.266, 446.764 235.569 C 445.811 234.872, 445.324 234.009, 445.682 233.651 C 446.040 233.293, 445.808 233, 445.167 233 C 444.525 233, 444 233.482, 444 234.071 M 399 235.026 C 399 235.640, 399.679 236.822, 400.509 237.652 C 401.339 238.482, 401.720 239.644, 401.355 240.235 C 400.980 240.841, 401.157 241.021, 401.760 240.648 C 402.348 240.285, 403.057 240.553, 403.336 241.244 C 403.634 241.985, 403.874 241.764, 403.921 240.705 C 403.964 239.717, 402.875 237.784, 401.500 236.409 C 400.125 235.034, 399 234.412, 399 235.026 M 125.250 237.496 C 123.553 239.423, 123.677 240, 125.786 240 C 126.905 240, 127.571 239.253, 127.571 238 C 127.571 235.662, 126.978 235.533, 125.250 237.496 M 528.559 242.532 C 526.651 243.975, 526.653 244, 528.686 244 C 529.824 244, 531.315 243.325, 532 242.500 C 533.690 240.464, 531.263 240.486, 528.559 242.532 M 35.160 259.321 C 35.072 260.873, 34.409 262.734, 33.687 263.456 C 32.834 264.309, 32.567 266.120, 32.925 268.634 L 33.476 272.500 33.813 268.513 C 33.998 266.320, 34.599 264.248, 35.149 263.908 C 35.699 263.568, 35.962 261.762, 35.734 259.895 C 35.367 256.886, 35.302 256.821, 35.160 259.321 M 460 258.300 C 460 259.741, 461.954 262, 463.200 262 C 464.281 262, 463.773 259.842, 462.321 258.274 C 460.815 256.645, 460 256.654, 460 258.300 M 863.993 262.750 C 863.990 264.262, 863.107 266.834, 862.032 268.465 C 860.584 270.662, 860.390 271.623, 861.281 272.173 C 862.213 272.749, 862.204 273.196, 861.242 274.158 C 860.559 274.841, 860 276.408, 860 277.641 C 860 278.874, 859.550 280.160, 859 280.500 C 858.450 280.840, 858 282.190, 858 283.500 C 858 286.609, 859.964 287.822, 860.118 284.809 C 860.184 283.539, 860.184 282.163, 860.118 281.750 C 860.053 281.337, 860.398 281, 860.883 281 C 862.227 281, 862.959 277.093, 861.755 276.348 C 861.088 275.936, 861.353 275.215, 862.474 274.396 C 863.452 273.680, 864.243 271.839, 864.235 270.298 C 864.227 268.759, 864.594 267.036, 865.051 266.469 C 866.688 264.437, 866.950 260, 865.434 260 C 864.538 260, 863.998 261.032, 863.993 262.750 M 464 264.071 C 464 265.094, 466.413 268, 467.262 268 C 467.485 268, 467.667 267.325, 467.667 266.500 C 467.667 265.675, 467.040 265, 466.274 265 C 465.509 265, 465.160 264.550, 465.500 264 C 465.840 263.450, 465.641 263, 465.059 263 C 464.477 263, 464 263.482, 464 264.071 M 419.168 265.500 C 419.072 267.340, 421.086 271, 422.194 271 C 422.454 271, 422.667 270.325, 422.667 269.500 C 422.667 268.675, 422.098 268, 421.403 268 C 420.708 268, 419.944 266.988, 419.706 265.750 C 419.335 263.823, 419.257 263.787, 419.168 265.500 M 468 270.977 C 468 272.064, 469.113 273.683, 470.474 274.575 C 472.740 276.060, 473.081 276.061, 474.545 274.598 C 476.009 273.134, 475.913 273, 473.405 273 C 471.899 273, 470.945 272.721, 471.286 272.381 C 471.898 271.769, 469.675 269, 468.571 269 C 468.257 269, 468 269.890, 468 270.977 M 112 273.941 C 112 275.009, 112.450 276.160, 113 276.500 C 113.567 276.851, 114 276.010, 114 274.559 C 114 273.152, 113.550 272, 113 272 C 112.450 272, 112 272.873, 112 273.941 M 30.847 279.001 C 30.656 281.751, 30.837 284.001, 31.250 284.001 C 31.663 284, 32 281.750, 32 279 C 32 272.549, 31.294 272.549, 30.847 279.001 M 109.250 280.707 C 108.563 282.188, 108 284.247, 108 285.283 C 108 286.356, 108.538 286.979, 109.250 286.730 C 109.938 286.489, 110.368 285.552, 110.206 284.646 C 110.045 283.741, 110.382 283, 110.956 283 C 111.530 283, 112 281.875, 112 280.500 C 112 277.242, 110.818 277.331, 109.250 280.707 M 28.827 286.250 C 28.614 286.938, 28.724 289.525, 29.070 292 L 29.700 296.500 29.850 290.750 C 29.995 285.204, 29.637 283.632, 28.827 286.250 M 435.079 291.059 C 435.122 292.951, 435.402 293.887, 435.700 293.137 C 436.158 291.986, 436.377 291.986, 437.106 293.137 C 437.812 294.252, 437.966 294.227, 437.953 293 C 437.944 292.175, 437.276 290.626, 436.468 289.559 C 435.088 287.734, 435.005 287.824, 435.079 291.059 M 854 294.441 C 854 295.784, 854.460 297.166, 855.021 297.513 C 855.648 297.901, 855.952 296.957, 855.809 295.072 C 855.532 291.439, 854 290.904, 854 294.441 M 433 295.462 C 433 296.231, 431.988 297.056, 430.750 297.294 L 428.500 297.728 430.821 297.864 C 433.804 298.039, 436.693 295.480, 434.474 294.629 C 433.608 294.296, 433 294.640, 433 295.462 M 852 300.500 C 852 301.875, 852.413 303, 852.917 303 C 854.088 303, 854.842 300.872, 854.246 299.250 C 853.450 297.085, 852 297.892, 852 300.500 M 27.360 311 C 27.360 316.225, 27.529 318.363, 27.735 315.750 C 27.941 313.137, 27.941 308.863, 27.735 306.250 C 27.529 303.637, 27.360 305.775, 27.360 311 M 849.882 305.250 C 849.816 305.938, 849.816 306.837, 849.882 307.250 C 849.947 307.663, 849.550 308, 849 308 C 848.450 308, 848 308.675, 848 309.500 C 848 312.018, 849.408 311.135, 851.229 307.475 C 852.699 304.521, 852.736 304, 851.479 304 C 850.665 304, 849.947 304.563, 849.882 305.250 M 100 313.878 C 100 317.467, 100.508 317.788, 101.944 315.105 C 102.697 313.698, 102.577 312.894, 101.479 311.983 C 100.227 310.944, 100 311.235, 100 313.878 M 845.250 313.496 C 844.563 314.277, 844 316.060, 844 317.458 C 844 318.856, 843.550 320, 843 320 C 842.450 320, 842 320.863, 842 321.917 C 842 322.971, 841.469 324.010, 840.820 324.227 C 840.052 324.483, 839.931 325.297, 840.475 326.560 C 841.234 328.325, 841.347 328.342, 841.728 326.750 C 841.958 325.788, 842.616 325, 843.190 325 C 843.764 325, 843.998 324.100, 843.710 323 C 843.351 321.626, 843.680 321, 844.760 321 C 845.625 321, 846.048 320.715, 845.699 320.366 C 845.351 320.017, 845.926 318.639, 846.977 317.302 C 849.743 313.786, 848.128 310.227, 845.250 313.496 M 498 314.071 C 498 315.771, 500.895 318.210, 502.259 317.659 C 503.203 317.278, 503.186 317.139, 502.191 317.079 C 501.471 317.036, 501.160 316.550, 501.500 316 C 501.840 315.450, 501.390 315, 500.500 315 C 499.610 315, 499.160 314.550, 499.500 314 C 499.840 313.450, 499.641 313, 499.059 313 C 498.477 313, 498 313.482, 498 314.071 M 389 319.819 C 389 320.269, 387.538 321.365, 385.750 322.255 C 383.172 323.538, 382.926 323.885, 384.561 323.936 C 385.695 323.971, 387.516 323.168, 388.607 322.151 C 389.698 321.135, 391.246 320.045, 392.046 319.730 C 392.985 319.361, 392.703 319.130, 391.250 319.079 C 390.012 319.036, 389 319.368, 389 319.819 M 502.001 319.750 C 502.003 321.010, 506.661 326, 507.835 326 C 508.441 326, 508.724 326.563, 508.463 327.250 C 507.947 328.610, 512.667 334.666, 513.553 333.781 C 513.851 333.482, 513.420 332.563, 512.595 331.738 C 511.770 330.913, 511.374 329.960, 511.714 329.619 C 512.055 329.279, 511.557 329, 510.608 329 C 509.659 329, 509.162 328.547, 509.504 327.993 C 510.352 326.622, 506.227 321, 504.373 321 C 503.553 321, 503.160 320.550, 503.500 320 C 503.840 319.450, 503.641 319, 503.059 319 C 502.477 319, 502.001 319.337, 502.001 319.750 M 455.076 327.682 C 453.790 329.132, 453.995 329.224, 457.192 328.624 C 460.463 328.010, 460.853 328.207, 462.343 331.230 C 463.229 333.028, 463.965 334.113, 463.977 333.639 C 463.990 333.166, 464.885 333.841, 465.967 335.139 C 467.617 337.120, 467.939 337.218, 467.967 335.750 C 467.985 334.788, 467.580 334, 467.067 334 C 466.554 334, 465.849 333.100, 465.500 332 C 465.151 330.900, 464.221 330, 463.433 330 C 462.645 330, 462 329.100, 462 328 C 462 326.476, 461.346 326.009, 459.250 326.038 C 457.738 326.059, 455.859 326.799, 455.076 327.682 M 443.211 333.538 C 442.115 334.780, 442.342 334.998, 444.711 334.985 C 446.739 334.974, 447.115 334.726, 446.088 334.075 C 444.995 333.384, 445.221 333.079, 447.088 332.727 L 449.500 332.272 447 332.174 C 445.625 332.120, 443.920 332.734, 443.211 333.538 M 514 335.805 C 514 337.081, 520.978 344.356, 521.603 343.730 C 521.913 343.420, 521.229 342.229, 520.083 341.083 C 518.938 339.938, 518 338.550, 518 338 C 518 337.450, 517.298 337, 516.441 337 C 515.584 337, 515.160 336.550, 515.500 336 C 515.840 335.450, 515.641 335, 515.059 335 C 514.477 335, 514 335.362, 514 335.805 M 94 338.774 C 94 340.484, 94.366 342.108, 94.813 342.385 C 95.832 343.014, 95.772 337.438, 94.750 336.416 C 94.338 336.004, 94 337.065, 94 338.774 M 833.210 338.035 C 832.268 339.543, 832.224 340.513, 833.039 341.785 C 833.992 343.273, 834.075 343.202, 833.662 341.250 C 833.347 339.758, 833.661 339, 834.594 339 C 835.367 339, 836 338.325, 836 337.500 C 836 335.389, 834.708 335.636, 833.210 338.035 M 739.116 338.626 C 739.052 339.246, 737.313 341.576, 735.250 343.803 C 733.188 346.031, 731.359 348.421, 731.188 349.114 C 731.016 349.806, 730.004 351.130, 728.938 352.054 C 726.780 353.925, 726.375 356, 728.167 356 C 728.808 356, 729.049 355.716, 728.702 355.368 C 728.354 355.021, 729.404 353.491, 731.035 351.967 C 732.666 350.444, 734 348.659, 734 348 C 734 347.341, 735.385 345.508, 737.078 343.927 C 738.988 342.143, 739.981 340.377, 739.694 339.276 C 739.440 338.299, 739.180 338.007, 739.116 338.626 M 27 350.333 C 27 356.200, 27.337 361, 27.750 361.001 C 28.560 361.002, 28.316 340.982, 27.496 340.162 C 27.223 339.890, 27 344.467, 27 350.333 M 94.405 344.845 C 94.827 345.530, 94.483 346, 93.559 346 C 92.378 346, 92 347.091, 92 350.500 C 92 353.008, 92.470 355, 93.062 355 C 93.721 355, 93.905 353.626, 93.547 351.371 C 93.116 348.661, 93.392 347.434, 94.636 346.524 C 95.956 345.559, 96.031 345.137, 94.997 344.498 C 94.134 343.965, 93.933 344.082, 94.405 344.845 M 473 345.906 C 473 347.218, 473.434 347.850, 474.067 347.459 C 474.707 347.063, 475.007 347.539, 474.817 348.650 C 474.620 349.799, 475.020 350.390, 475.873 350.209 C 476.746 350.024, 477.030 350.478, 476.654 351.459 C 476.296 352.393, 476.612 353, 477.458 353 C 478.225 353, 479.009 353.788, 479.200 354.750 C 479.423 355.875, 479.799 356.100, 480.253 355.379 C 480.641 354.763, 480.068 353.231, 478.979 351.976 C 477.891 350.721, 477 349.382, 477 349 C 477 348.618, 476.100 347.268, 475 346 L 473 343.694 473 345.906 M 522.001 345.750 C 522.003 346.719, 526.536 352, 527.366 352 C 528.307 352, 527.671 349.733, 526.321 348.274 C 525.673 347.573, 524.634 347, 524.012 347 C 523.391 347, 523.160 346.550, 523.500 346 C 523.840 345.450, 523.641 345, 523.059 345 C 522.477 345, 522.001 345.337, 522.001 345.750 M 827.250 347.496 C 826.563 348.277, 826 349.385, 826 349.958 C 826 351.885, 827.669 351.022, 828.818 348.500 C 830.061 345.772, 829.234 345.243, 827.250 347.496 M 528.474 353.224 C 527.693 355.241, 530.398 358.411, 532.259 357.659 C 533.203 357.278, 533.186 357.139, 532.191 357.079 C 531.471 357.036, 531.119 356.616, 531.409 356.147 C 531.699 355.678, 531.307 354.441, 530.539 353.397 C 529.244 351.638, 529.094 351.625, 528.474 353.224 M 323.581 354.132 C 323.825 354.526, 323.231 355.055, 322.262 355.308 C 321.163 355.595, 321.535 355.812, 323.250 355.884 C 324.762 355.948, 326 355.583, 326 355.073 C 326 354.564, 326.788 353.933, 327.750 353.672 C 328.712 353.411, 328.069 353.246, 326.319 353.306 C 324.570 353.366, 323.338 353.737, 323.581 354.132 M 481.001 356.705 C 481.002 357.142, 482.127 358.807, 483.501 360.406 C 484.876 362.004, 486 362.771, 486 362.110 C 486 361.450, 484.875 359.784, 483.500 358.409 C 482.125 357.034, 481.001 356.267, 481.001 356.705 M 533.430 360.573 C 534.295 361.438, 535.790 361.940, 536.752 361.689 C 538.365 361.267, 538.361 361.223, 536.691 361.116 C 535.696 361.052, 535.160 360.550, 535.500 360 C 535.840 359.450, 535.159 359, 533.988 359 C 532.050 359, 531.999 359.142, 533.430 360.573 M 90.030 379.083 C 90.055 391.358, 90.300 394.092, 91.234 392.500 C 93.182 389.180, 92.623 366.290, 90.544 364.211 C 90.245 363.911, 90.014 370.604, 90.030 379.083 M 489 367.087 C 489 367.735, 489.830 368.993, 490.843 369.883 C 491.857 370.772, 492.947 372.175, 493.265 373 C 493.717 374.176, 493.859 374.112, 493.921 372.705 C 493.964 371.717, 492.875 369.784, 491.500 368.409 C 490.125 367.034, 489 366.439, 489 367.087 M 540 367.924 C 540 368.432, 543.600 372.516, 548 377 C 552.400 381.484, 556 385.793, 556 386.576 C 556 387.359, 556.900 388, 558 388 C 559.100 388, 560 388.450, 560 389 C 560 389.550, 561.013 389.968, 562.250 389.930 C 564.397 389.863, 564.408 389.820, 562.500 389 C 561.400 388.527, 560.950 388.095, 561.500 388.040 C 562.050 387.984, 561.703 387.475, 560.729 386.908 C 559.755 386.341, 559.211 385.468, 559.520 384.968 C 559.829 384.468, 558.942 383.772, 557.548 383.423 C 556.154 383.073, 555.262 382.385, 555.566 381.893 C 555.870 381.402, 555.390 381, 554.500 381 C 553.610 381, 553.160 380.550, 553.500 380 C 553.840 379.450, 553.390 379, 552.500 379 C 551.610 379, 551.160 378.550, 551.500 378 C 551.840 377.450, 551.390 377, 550.500 377 C 549.610 377, 549.160 376.550, 549.500 376 C 549.840 375.450, 549.390 375, 548.500 375 C 547.610 375, 547.160 374.550, 547.500 374 C 547.840 373.450, 547.390 373, 546.500 373 C 545.610 373, 545.109 372.632, 545.387 372.182 C 545.665 371.732, 545.041 370.750, 544 370 C 542.959 369.250, 542.335 368.268, 542.613 367.818 C 542.891 367.368, 542.416 367, 541.559 367 C 540.702 367, 540 367.416, 540 367.924 M 715 368.559 C 715 369.416, 714.625 369.886, 714.167 369.603 C 713.708 369.320, 713.333 369.743, 713.333 370.544 C 713.333 371.345, 713.933 372, 714.667 372 C 715.422 372, 716 370.917, 716 369.500 C 716 368.125, 715.775 367, 715.500 367 C 715.225 367, 715 367.702, 715 368.559 M 291 370.500 L 288.500 371.929 291.250 371.965 C 292.762 371.984, 294 371.583, 294 371.073 C 294 370.564, 294.788 369.941, 295.750 369.689 C 297.213 369.307, 297.172 369.219, 295.500 369.151 C 294.400 369.107, 292.375 369.714, 291 370.500 M 495 374.936 C 495 375.630, 496.299 377.411, 497.887 378.895 C 499.475 380.378, 500.951 382.471, 501.167 383.546 C 501.523 385.322, 501.622 385.341, 502.246 383.756 C 502.731 382.525, 501.768 380.790, 498.966 377.844 C 496.785 375.551, 495 374.242, 495 374.936 M 704.222 380.672 C 702.419 382.502, 701.427 384, 702.017 384 C 703.442 384, 708.237 379.164, 707.824 378.144 C 707.646 377.704, 706.025 378.842, 704.222 380.672 M 503 385.035 C 503 385.675, 504.350 387.459, 506 389 C 507.650 390.541, 509 392.323, 509 392.960 C 509 393.597, 509.450 393.840, 510 393.500 C 510.550 393.160, 511 393.610, 511 394.500 C 511 395.390, 511.450 395.840, 512 395.500 C 512.550 395.160, 513 395.528, 513 396.319 C 513 398.185, 515.637 400.396, 516.397 399.167 C 516.713 398.656, 513.828 395.005, 509.986 391.055 C 506.144 387.105, 503 384.396, 503 385.035 M 340 389 C 340 389.550, 338.988 390.052, 337.750 390.116 C 336.375 390.187, 336.108 390.396, 337.064 390.653 C 337.924 390.885, 339.949 390.386, 341.564 389.544 C 344.222 388.157, 344.287 388.012, 342.250 388.006 C 341.012 388.003, 340 388.450, 340 389 M 688.309 393.750 C 688.544 394.163, 687.703 395.497, 686.440 396.715 C 685.177 397.933, 683.998 398.540, 683.822 398.063 C 683.645 397.587, 682.920 397.828, 682.211 398.599 C 681.142 399.760, 681.237 400, 682.765 400 C 683.779 400, 686.329 398.425, 688.430 396.500 C 691.814 393.401, 692.001 393, 690.067 393 C 688.865 393, 688.074 393.337, 688.309 393.750 M 571.427 398.570 C 572.290 399.433, 574.010 399.944, 575.248 399.706 L 577.500 399.272 575.250 399.136 C 574.013 399.061, 573 398.550, 573 398 C 573 397.450, 572.293 397, 571.429 397 C 570.001 397, 570.001 397.143, 571.427 398.570 M 517 400.861 C 517 402.311, 525.607 411.059, 526.326 410.340 C 526.697 409.970, 527 410.207, 527 410.867 C 527 412.789, 533.784 419.108, 534.350 417.712 C 534.621 417.046, 534.878 417.363, 534.921 418.417 C 534.964 419.471, 535.279 420.055, 535.619 419.714 C 536.380 418.953, 538.380 420.888, 539.275 423.250 C 540.006 425.183, 542 425.647, 542 423.885 C 542 422.391, 534.952 416, 533.305 416 C 532.587 416, 532.053 415.663, 532.118 415.250 C 532.465 413.056, 531.799 412, 530.067 412 C 529.004 412, 527.849 411.100, 527.500 410 C 527.151 408.900, 526.146 408, 525.266 408 C 524.386 408, 523.911 407.756, 524.209 407.458 C 524.742 406.925, 518.529 400, 517.518 400 C 517.233 400, 517 400.388, 517 400.861 M 576 402.094 C 576 402.695, 576.900 403.423, 578 403.710 C 579.100 403.998, 580 404.631, 580 405.117 C 580 405.602, 580.707 406, 581.571 406 C 582.968 406, 582.976 405.833, 581.643 404.500 C 580.818 403.675, 579.661 403, 579.071 403 C 578.482 403, 578 402.550, 578 402 C 578 401.450, 577.550 401, 577 401 C 576.450 401, 576 401.492, 576 402.094 M 94 407.500 C 94 408.875, 94.450 410, 95 410 C 95.550 410, 96 410.618, 96 411.374 C 96 413.398, 102.369 420, 104.321 420 C 105.244 420, 106 420.450, 106 421 C 106 421.550, 107.463 421.947, 109.250 421.882 L 112.500 421.763 109.557 421.132 C 107.938 420.784, 106.600 420.050, 106.584 419.500 C 106.550 418.383, 101.393 414.314, 98.866 413.411 C 97.844 413.046, 97.420 412.110, 97.733 410.914 C 98.068 409.633, 97.718 409, 96.674 409 C 95.653 409, 95.248 408.310, 95.500 407 C 95.712 405.900, 95.461 405, 94.943 405 C 94.424 405, 94 406.125, 94 407.500 M 588.208 408.744 C 587.216 409.090, 587.186 409.520, 588.081 410.597 C 589.407 412.196, 594.462 412.557, 593.490 410.984 C 593.144 410.425, 592.471 410.209, 591.992 410.505 C 591.514 410.800, 590.758 410.424, 590.311 409.668 C 589.865 408.912, 588.919 408.496, 588.208 408.744 M 289.211 413.538 C 288.128 414.766, 288.257 415, 290.020 415 C 291.174 415, 291.860 414.582, 291.544 414.071 C 291.229 413.561, 291.990 412.947, 293.235 412.708 C 295.369 412.297, 295.356 412.267, 293 412.174 C 291.625 412.120, 289.920 412.734, 289.211 413.538 M 594.500 413.068 C 592.805 413.739, 592.767 413.870, 594.250 413.930 C 595.212 413.968, 596 414.450, 596 415 C 596 415.550, 596.916 416, 598.035 416 C 599.155 416, 601.258 416.778, 602.711 417.730 C 605.613 419.631, 613.701 420.995, 624.500 421.403 C 629.931 421.608, 630.092 421.582, 625.220 421.287 C 621.580 421.067, 619.187 420.506, 619.529 419.954 C 620.195 418.876, 618.406 418.631, 612.253 418.956 C 609.272 419.113, 607.837 418.739, 607.438 417.700 C 607.081 416.768, 606.097 416.423, 604.779 416.768 C 603.355 417.140, 602.916 416.946, 603.403 416.158 C 603.886 415.375, 603.107 415, 601 415 C 599.285 415, 598.131 414.597, 598.435 414.105 C 599.246 412.793, 596.814 412.153, 594.500 413.068 M 282 417 C 282 417.550, 280.988 418.032, 279.750 418.070 C 277.610 418.137, 277.598 418.181, 279.500 418.968 C 280.789 419.502, 281.855 419.357, 282.500 418.560 C 283.050 417.881, 284.175 417.062, 285 416.741 C 286.013 416.347, 285.769 416.132, 284.250 416.079 C 283.012 416.036, 282 416.450, 282 417 M 768 416.883 C 768 417.369, 767.100 418.002, 766 418.290 C 764.900 418.577, 764 419.305, 764 419.906 C 764 420.508, 764.900 421, 766 421 C 767.100 421, 767.888 420.582, 767.750 420.071 C 767.612 419.559, 768.400 418.449, 769.500 417.602 C 771.286 416.228, 771.313 416.060, 769.750 416.032 C 768.788 416.014, 768 416.398, 768 416.883 M 645 418.213 C 645 418.646, 643.313 419.072, 641.250 419.160 L 637.500 419.320 640.923 419.736 C 642.806 419.965, 645.281 419.701, 646.423 419.149 C 647.565 418.598, 649.175 417.916, 650 417.634 C 650.825 417.352, 650.038 417.190, 648.250 417.274 C 646.462 417.357, 645 417.780, 645 418.213 M 157.264 421.718 C 158.784 421.947, 161.034 421.941, 162.264 421.704 C 163.494 421.467, 162.250 421.279, 159.500 421.286 C 156.750 421.294, 155.744 421.488, 157.264 421.718 M 48.500 423 C 47.914 423.948, 48.591 424.380, 50.250 424.118 C 50.663 424.053, 51 424.675, 51 425.500 C 51 426.325, 51.450 427, 52 427 C 52.550 427, 53 427.702, 53 428.559 C 53 429.416, 53.418 429.860, 53.929 429.544 C 54.439 429.229, 55.053 429.990, 55.292 431.235 L 55.728 433.500 55.864 431.205 C 55.939 429.942, 54.875 427.784, 53.500 426.409 C 52.125 425.034, 51 423.480, 51 422.955 C 51 421.697, 49.286 421.728, 48.500 423 M 268 423 C 268 423.550, 267.100 424, 266 424 C 264.900 424, 264 424.477, 264 425.059 C 264 425.641, 263.663 425.923, 263.250 425.684 C 262.837 425.446, 261.600 425.612, 260.500 426.055 C 258.950 426.678, 259.357 426.875, 262.309 426.930 C 264.975 426.979, 265.901 426.649, 265.395 425.830 C 264.906 425.038, 265.222 424.871, 266.374 425.313 C 267.449 425.726, 268.297 425.391, 268.676 424.403 C 269.034 423.469, 270.026 423.035, 271.139 423.326 C 272.164 423.594, 272.751 423.405, 272.442 422.907 C 271.681 421.675, 268 421.752, 268 423 M 115.500 423.704 C 117.700 423.940, 119.927 424.554, 120.450 425.067 C 120.973 425.580, 124.123 425.917, 127.450 425.815 L 133.500 425.630 128.250 425.263 C 125.362 425.061, 123 424.546, 123 424.119 C 123 423.692, 120.412 423.327, 117.250 423.309 C 113.107 423.284, 112.618 423.395, 115.500 423.704 M 145.250 423.716 C 146.762 423.945, 149.238 423.945, 150.750 423.716 C 152.262 423.487, 151.025 423.300, 148 423.300 C 144.975 423.300, 143.738 423.487, 145.250 423.716 M 543.079 424.316 C 543.036 424.764, 543.498 426.063, 544.107 427.201 C 544.996 428.861, 545.389 428.996, 546.092 427.885 C 546.783 426.794, 546.973 426.884, 546.985 428.309 C 546.993 429.304, 547.450 429.840, 548 429.500 C 548.550 429.160, 549 429.509, 549 430.274 C 549 431.040, 549.675 431.667, 550.500 431.667 C 551.325 431.667, 552 431.496, 552 431.288 C 552 430.236, 546.897 426, 545.629 426 C 544.825 426, 543.940 425.438, 543.662 424.750 C 543.385 424.063, 543.122 423.867, 543.079 424.316 M 251.162 429.484 C 248.901 430.730, 249.175 431.699, 251.750 431.565 C 252.438 431.529, 252.887 431.050, 252.750 430.500 C 252.613 429.950, 254.525 429.230, 257 428.900 L 261.500 428.300 257.500 428.248 C 255.300 428.220, 252.448 428.776, 251.162 429.484 M 57 433.133 C 57 434.620, 61.149 438.200, 61.910 437.369 C 62.235 437.016, 61.935 436.524, 61.244 436.278 C 60.553 436.031, 60.242 435.418, 60.553 434.915 C 60.864 434.412, 60.390 434, 59.500 434 C 58.610 434, 58.160 433.550, 58.500 433 C 58.840 432.450, 58.641 432, 58.059 432 C 57.477 432, 57 432.510, 57 433.133 M 556.631 435.698 C 560.134 439.200, 564 440.784, 564 438.716 C 564 438.194, 563.064 438.011, 561.921 438.310 C 560.403 438.707, 559.990 438.469, 560.390 437.427 C 560.691 436.642, 560.483 436, 559.927 436 C 559.371 436, 557.950 435.100, 556.770 434 C 552.940 430.432, 552.821 431.888, 556.631 435.698 M 65.333 441.456 C 65.333 442.257, 65.708 442.680, 66.167 442.397 C 66.625 442.114, 67.007 442.696, 67.015 443.691 C 67.028 445.139, 67.209 445.219, 67.923 444.091 C 68.413 443.316, 68.583 442.078, 68.300 441.341 C 67.609 439.539, 65.333 439.628, 65.333 441.456 M 121.206 462.741 C 124.895 462.932, 131.195 462.934, 135.206 462.743 C 139.218 462.553, 136.200 462.396, 128.500 462.395 C 120.800 462.393, 117.518 462.549, 121.206 462.741 M 650.500 465.006 C 659.300 465.370, 667.175 465.306, 668 464.864 C 668.825 464.422, 661.625 464.125, 652 464.203 L 634.500 464.345 650.500 465.006" stroke="none" fill="#9b458c" fill-rule="evenodd"/><path d="M 225.500 39.845 L 218.500 40.405 225.500 41.039 C 231.227 41.558, 230.356 41.659, 220.710 41.593 C 213.941 41.546, 208.617 41.935, 208.210 42.506 C 207.819 43.053, 206.242 43.588, 204.704 43.695 C 203.166 43.802, 198.753 44.885, 194.898 46.101 C 189.947 47.664, 188.272 48.587, 189.195 49.243 C 190.095 49.885, 189.773 50.013, 188.154 49.655 C 185.368 49.040, 182.788 49.847, 183.558 51.093 C 183.858 51.579, 183.435 51.721, 182.618 51.407 C 181.087 50.819, 163.847 59.218, 160.957 61.959 C 160.064 62.807, 158.697 63.649, 157.920 63.832 C 157.143 64.015, 155.922 64.650, 155.206 65.244 C 154.141 66.128, 154.140 66.483, 155.203 67.206 C 156.084 67.806, 155.698 67.995, 154 67.795 C 152.346 67.600, 151.593 67.948, 151.775 68.824 C 151.926 69.553, 151.591 69.865, 151.031 69.519 C 149.580 68.622, 143.206 73.740, 143.366 75.672 C 143.440 76.559, 142.825 77.480, 142 77.719 C 140.690 78.097, 140.686 78.023, 141.971 77.131 C 142.780 76.569, 143.113 75.780, 142.711 75.377 C 141.518 74.184, 126.794 87.858, 127.698 89.320 C 128.038 89.871, 127.801 89.995, 127.163 89.601 C 125.666 88.676, 120.676 93.666, 121.601 95.163 C 122.010 95.825, 121.870 96.038, 121.269 95.666 C 119.895 94.817, 111.416 103.649, 111.794 105.536 C 112.142 107.270, 107.311 112.433, 106.793 110.880 C 106.435 109.806, 99.619 117.995, 92.781 127.714 C 89.038 133.034, 88.663 134.848, 92.133 130.847 C 93.160 129.663, 94 129.233, 94 129.892 C 94 130.552, 92.875 132.216, 91.500 133.591 C 90.125 134.966, 89 135.594, 89 134.986 C 89 134.379, 88.592 134.134, 88.094 134.442 C 87.596 134.750, 87.419 135.885, 87.701 136.965 C 87.985 138.049, 87.495 139.648, 86.607 140.536 C 85.723 141.420, 85 141.751, 85 141.271 C 85 140.792, 85.532 139.868, 86.183 139.217 C 86.834 138.566, 87.096 137.762, 86.764 137.431 C 85.734 136.401, 83.624 141.354, 83.837 144.302 C 83.948 145.842, 83.356 147.787, 82.520 148.623 C 81.160 149.983, 80.999 149.898, 80.993 147.821 C 80.987 145.618, 80.885 145.653, 78.994 148.500 C 77.899 150.150, 77.250 152.161, 77.554 152.970 C 77.857 153.778, 77.789 154.122, 77.402 153.735 C 76.523 152.856, 74.069 155.976, 74.047 158 C 74.032 159.333, 74.138 159.333, 75 158 C 75.582 157.099, 75.975 156.975, 75.985 157.691 C 75.993 158.346, 75.550 159.160, 75 159.500 C 74.450 159.840, 74 160.799, 74 161.630 C 74 162.462, 73.325 163.818, 72.500 164.643 C 71.177 165.966, 71 165.967, 71 164.655 C 71 163.836, 71.518 162.994, 72.150 162.783 C 72.782 162.573, 73.098 161.794, 72.851 161.053 C 72.604 160.312, 70.711 162.924, 68.644 166.857 C 66.578 170.790, 65.207 174.526, 65.598 175.158 C 65.992 175.796, 65.873 176.039, 65.330 175.704 C 64.791 175.371, 63.312 177.214, 62.043 179.799 C 58.113 187.803, 56.936 191, 57.917 191 C 58.436 191, 59.056 189.988, 59.294 188.750 C 59.666 186.821, 59.747 186.892, 59.864 189.250 C 59.939 190.762, 59.550 192, 59 192 C 58.450 192, 58 192.900, 58 194 C 58 195.100, 57.592 196, 57.094 196 C 56.595 196, 56.380 194.988, 56.616 193.750 C 56.852 192.512, 56.093 193.525, 54.929 196 C 51.526 203.241, 50.958 205, 52.025 205 C 52.561 205, 53.036 203.988, 53.079 202.750 C 53.122 201.511, 53.397 201.099, 53.690 201.833 C 54.382 203.566, 51.204 213.653, 49.397 215.460 C 48.629 216.228, 48 217.513, 48 218.314 C 48 220.331, 45.029 225.856, 44.943 224 C 44.904 223.174, 44.453 223.548, 43.938 224.833 C 43.424 226.116, 43.235 228.366, 43.517 229.833 C 43.904 231.840, 43.825 232.029, 43.198 230.596 C 42.528 229.062, 42.066 229.746, 40.823 234.118 C 39.974 237.102, 39.431 241.109, 39.615 243.022 C 39.878 245.740, 39.788 245.974, 39.203 244.095 C 38.601 242.160, 37.988 243.527, 36.064 251.095 C 34.749 256.268, 33.473 261.063, 33.229 261.750 C 32.986 262.438, 33.256 263, 33.830 263 C 34.404 263, 35.055 261.538, 35.277 259.750 C 35.674 256.550, 35.682 256.558, 35.840 260.250 C 35.928 262.313, 35.550 264, 35 264 C 34.450 264, 33.941 265.913, 33.868 268.250 L 33.737 272.500 33 269 L 32.263 265.500 31.984 268.500 C 31.830 270.150, 31.817 274.313, 31.955 277.750 C 32.092 281.188, 31.818 284, 31.345 284 C 30.873 284, 30.569 281.863, 30.671 279.250 C 30.842 274.893, 30.795 274.790, 30.109 278 C 29.697 279.925, 29.473 284.875, 29.611 289 C 29.821 295.267, 29.734 295.760, 29.081 292 L 28.300 287.500 27.994 291.500 C 27.826 293.700, 27.691 300.900, 27.693 307.500 C 27.698 319.281, 27.686 319.345, 27.038 311 L 26.378 302.500 26.046 309.500 C 25.345 324.275, 25.328 340.876, 26.005 350 L 26.709 359.500 26.855 349.583 C 26.935 344.129, 27.223 339.890, 27.496 340.162 C 28.228 340.895, 28.605 361.002, 27.887 361.001 C 27.549 361, 27.379 362.012, 27.509 363.250 C 27.639 364.488, 27.847 367.075, 27.972 369 C 28.188 372.323, 28.244 372.374, 29.086 370 C 29.808 367.963, 29.890 368.213, 29.532 371.355 C 29.290 373.475, 29.390 376.625, 29.754 378.355 L 30.415 381.500 31.145 378.500 C 31.776 375.907, 31.865 376.110, 31.803 380 C 31.764 382.475, 31.845 385.625, 31.984 387 C 32.225 389.389, 32.271 389.367, 33.014 386.500 C 33.656 384.020, 33.781 384.411, 33.737 388.758 C 33.680 394.217, 34.924 397.556, 35.100 392.417 C 35.198 389.541, 35.210 389.535, 35.943 392 C 36.352 393.375, 36.338 395.199, 35.913 396.054 C 35.488 396.909, 35.551 398.259, 36.054 399.054 C 36.756 400.163, 36.996 399.918, 37.084 398 L 37.199 395.500 37.914 398 C 38.308 399.375, 38.310 400.634, 37.921 400.798 C 37.531 400.962, 37.465 402.063, 37.774 403.244 C 38.314 405.309, 38.366 405.317, 39.098 403.446 C 39.642 402.054, 39.908 402.782, 40.029 406 C 40.172 409.787, 40.326 410.104, 41 408 C 41.704 405.802, 41.821 405.983, 41.971 409.500 C 42.106 412.695, 42.314 413.097, 43 411.500 C 43.934 409.326, 44.299 410.458, 44.127 415 C 44.045 417.167, 44.140 417.244, 44.841 415.573 C 45.555 413.873, 45.724 413.839, 46.281 415.291 C 46.629 416.196, 46.475 417.206, 45.940 417.537 C 45.405 417.868, 45.256 418.605, 45.609 419.176 C 46.023 419.847, 46.575 419.734, 47.170 418.857 C 47.825 417.890, 48.005 418.218, 47.795 420 C 47.570 421.910, 47.913 422.431, 49.250 422.206 C 50.212 422.045, 51 422.362, 51 422.911 C 51 423.460, 52.125 425.034, 53.500 426.409 C 54.901 427.810, 56.035 430.138, 56.079 431.705 C 56.122 433.242, 56.385 433.938, 56.662 433.250 C 56.940 432.562, 57.606 432, 58.142 432 C 58.679 432, 58.840 432.450, 58.500 433 C 58.160 433.550, 58.610 434, 59.500 434 C 60.390 434, 60.840 434.450, 60.500 435 C 60.160 435.550, 60.359 436, 60.941 436 C 61.523 436, 62 436.477, 62 437.059 C 62 437.641, 61.438 437.814, 60.750 437.441 C 60.063 437.069, 61.075 438.339, 63 440.263 C 66.414 443.675, 68.543 444.564, 66.020 441.524 C 64.975 440.265, 65.037 440, 66.378 440 C 67.929 440, 68.419 441.069, 68.082 443.717 C 67.771 446.166, 85.975 457.607, 88.587 456.605 C 89.421 456.285, 89.865 456.410, 89.572 456.883 C 89.280 457.357, 90.975 458.482, 93.339 459.385 C 108.054 465.005, 132.857 465.860, 156 461.546 C 163.425 460.162, 170.625 458.857, 172 458.646 C 175.982 458.035, 196.627 452.213, 207 448.776 C 215.185 446.064, 216.154 445.518, 214 444.828 C 212.080 444.214, 212.380 444.128, 215.291 444.458 C 218.795 444.855, 232.544 440.318, 248.250 433.582 C 251.608 432.141, 253.236 430.805, 251.250 431.118 C 248.824 431.501, 248.874 430.793, 251.364 429.494 C 252.940 428.672, 256.315 427.955, 258.864 427.900 C 262.676 427.818, 263.056 427.658, 261 427 C 258.846 426.310, 258.777 426.169, 260.500 425.981 C 261.600 425.861, 262.837 425.816, 263.250 425.882 C 263.663 425.947, 264 425.550, 264 425 C 264 424.450, 264.900 424, 266 424 C 267.100 424, 268 423.550, 268 423 C 268 422.450, 269.012 422.052, 270.250 422.116 C 271.943 422.203, 272.067 422.345, 270.750 422.689 C 269.788 422.941, 269 423.558, 269 424.061 C 269 424.563, 271.531 423.855, 274.624 422.487 C 277.718 421.119, 280.530 419.968, 280.874 419.930 C 281.218 419.891, 280.600 419.473, 279.500 419 C 277.592 418.180, 277.603 418.137, 279.750 418.070 C 280.988 418.032, 282 417.550, 282 417 C 282 416.450, 283.012 416.052, 284.250 416.116 C 285.943 416.203, 286.067 416.345, 284.750 416.689 C 283.788 416.941, 283 417.556, 283 418.057 C 283 418.558, 284.611 418.199, 286.580 417.260 C 288.549 416.322, 289.678 415.393, 289.089 415.196 C 287.091 414.530, 290.935 411.849, 293.248 412.294 L 295.500 412.728 293.191 412.864 C 291.921 412.939, 291.156 413.444, 291.491 413.986 C 291.845 414.558, 295.540 413.216, 300.300 410.786 C 304.810 408.484, 308.785 406.578, 309.133 406.550 C 309.480 406.523, 313.012 404.929, 316.981 403.009 C 323.376 399.916, 323.929 399.434, 321.848 398.773 C 320.208 398.253, 320.625 398.155, 323.232 398.448 C 327.045 398.877, 329.457 397.494, 326.265 396.709 C 325.294 396.471, 325.563 396.386, 326.863 396.521 C 329.440 396.788, 344.558 390.225, 343.592 389.258 C 343.265 388.931, 341.917 389.242, 340.597 389.948 C 339.277 390.654, 337.590 390.991, 336.849 390.695 C 336.088 390.392, 336.481 390.123, 337.750 390.079 C 338.988 390.036, 340 389.498, 340 388.883 C 340 388.205, 341.077 387.973, 342.745 388.292 C 344.820 388.688, 349.157 386.973, 360.495 381.273 C 368.748 377.124, 377.035 372.809, 378.910 371.684 C 381.983 369.841, 382.132 369.556, 380.410 368.804 C 378.999 368.187, 379.216 368.108, 381.241 368.502 C 383.170 368.876, 386.134 367.949, 391.241 365.373 C 397.343 362.295, 398.181 361.584, 396.500 360.908 C 394.871 360.253, 395.057 360.128, 397.500 360.235 C 399.412 360.319, 404.098 358.422, 410.419 355.006 C 418.597 350.586, 420.001 349.498, 418.419 348.807 C 416.935 348.159, 417.093 348.083, 419.116 348.470 C 421.010 348.833, 424.184 347.595, 430.616 343.988 C 435.502 341.247, 439.950 338.813, 440.500 338.579 C 441.060 338.340, 440.840 337.643, 440 336.995 C 438.777 336.052, 438.963 335.938, 441.008 336.378 C 442.388 336.674, 444.188 336.492, 445.008 335.974 C 446.193 335.224, 446.023 335.027, 444.179 335.015 C 442.069 335.001, 442.001 334.857, 443.427 333.430 C 444.290 332.567, 446.010 332.056, 447.248 332.294 C 449.373 332.703, 449.359 332.736, 447 332.879 C 445.083 332.995, 444.836 333.243, 445.941 333.942 C 446.882 334.538, 448.441 334.306, 450.434 333.275 C 453.272 331.808, 453.347 331.636, 451.493 330.833 C 449.819 330.108, 449.902 330.045, 452.008 330.443 C 453.388 330.704, 455.188 330.492, 456.008 329.974 C 457.261 329.182, 457.209 329.028, 455.679 329.015 C 454.060 329.002, 454.024 328.833, 455.357 327.500 C 456.182 326.675, 458.014 326, 459.429 326 C 461.433 326, 461.997 326.496, 461.985 328.250 C 461.973 329.912, 461.742 330.142, 461.100 329.128 C 460.622 328.374, 459.842 327.924, 459.366 328.128 C 458.890 328.333, 459.581 329.566, 460.903 330.869 C 462.429 332.374, 463.079 332.647, 462.684 331.619 C 462.294 330.602, 462.584 330, 463.464 330 C 464.235 330, 465.151 330.900, 465.500 332 C 465.849 333.100, 466.554 334, 467.067 334 C 467.580 334, 467.985 334.788, 467.967 335.750 C 467.939 337.218, 467.617 337.120, 465.967 335.139 C 463.262 331.893, 463.476 334.373, 466.221 338.085 C 468.202 340.765, 468.529 340.896, 469.242 339.295 C 469.843 337.944, 469.925 338.096, 469.573 339.909 C 469.288 341.374, 469.867 343.287, 471.052 344.793 C 472.666 346.845, 473 346.963, 473 345.482 C 473 343.941, 473.279 344.015, 475.014 346.016 C 476.219 347.405, 476.825 349.174, 476.523 350.419 C 476.246 351.564, 476.283 351.919, 476.606 351.209 C 477.034 350.269, 477.718 350.521, 479.119 352.137 C 480.354 353.562, 480.698 354.702, 480.079 355.321 C 479.461 355.939, 480.040 357.497, 481.697 359.670 C 483.117 361.531, 484.486 362.847, 484.740 362.593 C 484.994 362.340, 484.256 361.118, 483.101 359.878 C 480.075 356.630, 480.506 355.415, 483.590 358.499 C 485.125 360.034, 485.939 361.716, 485.589 362.628 C 485.227 363.572, 486.823 366.490, 489.719 370.175 C 492.315 373.480, 494.611 375.667, 494.821 375.036 C 495.032 374.405, 496.921 375.694, 499.020 377.900 C 501.754 380.774, 502.714 382.562, 502.407 384.206 C 502.171 385.468, 502.243 385.944, 502.568 385.264 C 503.483 383.346, 513.057 393.617, 512.365 395.775 C 511.952 397.062, 512.052 397.164, 512.760 396.176 C 513.532 395.100, 514.018 395.161, 515.364 396.507 C 517.147 398.290, 516.624 400.470, 514.681 399.355 C 514.031 398.982, 514.591 399.875, 515.924 401.339 C 518.492 404.157, 520.125 405.061, 517.980 402.476 C 515.313 399.262, 518.022 399.986, 521.302 403.364 C 523.199 405.317, 524.507 407.160, 524.209 407.458 C 523.911 407.756, 524.386 408, 525.266 408 C 526.146 408, 527.151 408.900, 527.500 410 C 527.849 411.100, 529.004 412, 530.067 412 C 531.799 412, 532.465 413.056, 532.118 415.250 C 532.053 415.663, 532.587 416, 533.305 416 C 535.226 416, 541.705 422.241, 542.159 424.529 C 542.432 425.906, 543.215 426.407, 544.760 426.190 C 546.096 426.002, 547.965 426.874, 549.485 428.394 C 552.017 430.926, 552.856 432.647, 551 431.500 C 550.450 431.160, 550.006 431.246, 550.012 431.691 C 550.024 432.441, 556.233 436.987, 558.500 437.905 C 559.050 438.127, 557.990 436.890, 556.144 435.155 C 554.299 433.420, 553.201 432, 553.706 432 C 554.210 432, 555.589 432.900, 556.770 434 C 557.950 435.100, 559.371 436, 559.927 436 C 560.483 436, 560.686 436.653, 560.380 437.452 C 560.009 438.420, 561.604 440.052, 565.161 442.345 C 568.098 444.238, 570.650 445.384, 570.833 444.893 C 571.017 444.402, 571.917 444.007, 572.833 444.015 C 574.249 444.028, 574.279 444.170, 573.029 444.961 C 571.139 446.156, 571.279 446.270, 579 449.833 C 583.233 451.787, 586.546 452.683, 588.500 452.403 C 590.908 452.057, 591.105 452.151, 589.500 452.876 C 587.625 453.723, 587.676 453.849, 590.315 454.890 C 591.863 455.500, 593.499 456, 593.951 456 C 594.402 456, 596.051 456.664, 597.615 457.475 C 599.342 458.371, 602.037 458.770, 604.479 458.491 C 607.454 458.151, 607.849 458.242, 606 458.839 C 603.676 459.590, 603.641 459.692, 605.500 460.288 C 616.601 463.845, 627.473 465.316, 644 465.496 C 661.277 465.684, 661.328 465.678, 648 465.050 L 634.500 464.414 652 464.222 C 663.596 464.095, 668.994 464.358, 668 465 C 667.175 465.533, 666.980 465.976, 667.566 465.985 C 669.278 466.009, 680.358 463.964, 682 463.321 C 682.825 462.997, 684.987 462.553, 686.805 462.333 C 692.619 461.629, 706.137 456.943, 718.903 451.207 C 728.754 446.780, 730.914 445.462, 729.403 444.803 C 727.922 444.156, 728.111 444.056, 730.260 444.349 C 733.519 444.795, 746.677 437.117, 746.209 435.043 C 746.032 434.258, 746.507 433.981, 747.427 434.334 C 749.250 435.033, 750.544 433.392, 748.756 432.649 C 748.065 432.362, 748.612 432.211, 749.972 432.313 C 751.832 432.454, 752.451 432.005, 752.472 430.500 C 752.491 429.137, 753.222 428.458, 754.765 428.367 C 756.650 428.256, 756.692 428.310, 755.015 428.686 C 753.907 428.935, 753 429.558, 753 430.070 C 753 431.445, 754.259 431.207, 756.949 429.323 C 759.230 427.726, 759.252 427.607, 757.421 426.803 C 755.843 426.110, 755.933 426.043, 757.923 426.431 C 759.626 426.763, 761.345 426.026, 763.708 423.952 C 765.987 421.951, 766.548 421, 765.451 421 C 763.315 421, 764.159 418.598, 766.451 418.154 C 767.548 417.941, 767.976 418.231, 767.559 418.904 C 767.187 419.507, 767.342 420, 767.904 420 C 769.537 420, 782.330 407.610, 781.116 407.205 C 780.394 406.965, 780.505 406.353, 781.437 405.420 C 783.327 403.530, 784.581 403.595, 783 405.500 C 782.315 406.325, 782.165 407, 782.665 407 C 783.611 407, 799 390.583, 799 389.573 C 799 389.258, 798.523 389, 797.941 389 C 797.359 389, 797.160 389.450, 797.500 390 C 797.840 390.550, 797.641 391, 797.059 391 C 796.477 391, 796 390.276, 796 389.392 C 796 388.237, 796.635 387.929, 798.250 388.300 C 800.110 388.727, 801.584 387.468, 806.750 381.035 C 810.188 376.755, 813 372.986, 813 372.658 C 813 372.331, 812.213 372.361, 811.250 372.725 C 809.586 373.355, 809.586 373.301, 811.242 371.630 C 812.201 370.663, 813.515 370.200, 814.162 370.600 C 814.950 371.087, 815.135 370.794, 814.721 369.715 C 814.332 368.701, 814.547 368.262, 815.301 368.532 C 815.967 368.771, 819.729 364.074, 823.765 357.965 C 829.776 348.866, 830.921 346.496, 830.396 344.234 C 829.777 341.562, 829.801 341.545, 831.453 343.500 C 833.101 345.449, 833.131 345.424, 832.649 342.500 C 832.019 338.678, 834.522 334.694, 836.100 337.005 C 836.846 338.097, 836.949 337.624, 836.481 335.250 C 835.854 332.068, 837.217 330.651, 838.405 333.250 C 838.719 333.938, 838.762 332.925, 838.500 331 C 838.238 329.075, 838.281 328.063, 838.595 328.750 C 839.746 331.266, 841.153 329.973, 840.500 327 C 840.085 325.113, 840.241 324, 840.921 324 C 841.514 324, 842 323.100, 842 322 C 842 320.900, 842.450 320, 843 320 C 843.550 320, 844 318.843, 844 317.429 C 844 314.243, 846.797 311.053, 847.952 312.922 C 848.533 313.862, 848.871 313.779, 849.329 312.584 C 849.664 311.713, 849.501 311, 848.969 311 C 848.436 311, 848 310.325, 848 309.500 C 848 307.713, 849.663 307.489, 850.233 309.199 C 850.484 309.953, 850.874 309.771, 851.280 308.711 C 851.637 307.783, 851.607 307.131, 851.214 307.262 C 850.821 307.393, 850.387 307.163, 850.250 306.750 C 849.677 305.031, 850.081 304, 851.327 304 C 852.232 304, 852.514 303.047, 852.213 301 C 851.779 298.043, 853.320 296.790, 854.364 299.250 C 854.655 299.938, 854.635 298.588, 854.319 296.250 C 853.922 293.314, 854.111 292, 854.931 292 C 855.584 292, 855.859 292.419, 855.543 292.931 C 855.226 293.443, 855.374 294.113, 855.870 294.420 C 856.366 294.726, 857.007 294.083, 857.293 292.989 C 857.579 291.895, 857.405 291, 856.906 291 C 856.408 291, 856.036 290.212, 856.079 289.250 C 856.126 288.205, 856.361 288.003, 856.662 288.750 C 857.886 291.784, 859.079 289.712, 858.465 285.618 C 858.048 282.837, 858.209 280.989, 858.904 280.559 C 859.507 280.187, 860 278.810, 860 277.500 C 860 276.190, 860.520 274.797, 861.155 274.405 C 861.844 273.979, 862.039 274.129, 861.638 274.776 C 861.269 275.373, 861.425 276.144, 861.984 276.490 C 863.529 277.445, 863.197 274.340, 861.580 272.723 C 860.354 271.497, 860.422 270.908, 862.074 268.402 C 863.126 266.806, 863.990 264.262, 863.993 262.750 C 863.998 260.830, 864.528 259.976, 865.750 259.921 C 866.712 259.878, 867.034 259.647, 866.464 259.409 C 865.778 259.122, 865.712 256.872, 866.270 252.738 C 866.732 249.307, 867.441 243.125, 867.845 239 C 868.445 232.866, 868.728 232, 869.397 234.248 C 869.847 235.759, 869.947 237.695, 869.619 238.550 C 869.265 239.473, 869.440 239.846, 870.050 239.469 C 871.209 238.753, 871.212 218, 870.053 218 C 869.657 218, 869.333 217.345, 869.333 216.544 C 869.333 215.743, 869.708 215.320, 870.167 215.603 C 870.625 215.886, 870.939 213.279, 870.864 209.809 C 870.789 206.339, 870.533 204.512, 870.294 205.750 C 869.683 208.922, 868 208.554, 868 205.250 C 868 198.774, 864.441 185.885, 860.525 178.176 C 858.730 174.642, 858.025 172.036, 858.429 170.426 C 858.792 168.982, 858.602 168, 857.960 168 C 857.367 168, 857.160 168.450, 857.500 169 C 857.840 169.550, 857.641 170, 857.059 170 C 855.651 170, 855.694 167.269, 857.110 166.797 C 857.774 166.575, 857.496 165.839, 856.418 164.963 C 855.332 164.082, 854.915 163.997, 855.367 164.750 C 855.780 165.438, 855.641 166, 855.059 166 C 854.477 166, 854 165.550, 854 165 C 854 164.450, 853.325 164, 852.500 164 C 851.675 164, 851 163.325, 851 162.500 C 851 161.675, 851.450 161, 852 161 C 852.550 161, 853 160.612, 853 160.139 C 853 159.665, 851.805 159.506, 850.345 159.785 C 847.962 160.240, 847.753 160.051, 848.307 157.933 C 849.008 155.252, 846.635 151.953, 844.095 152.079 C 842.756 152.145, 842.737 152.251, 843.982 152.740 C 846.282 153.643, 848.115 155.811, 847.106 156.435 C 846.606 156.744, 844.690 155.513, 842.848 153.699 C 841.007 151.886, 837.813 149.616, 835.750 148.654 C 832.139 146.971, 830.746 145, 833.167 145 C 833.808 145, 834.017 144.684, 833.631 144.298 C 833.245 143.912, 831.258 143.653, 829.215 143.723 C 825.986 143.833, 825.827 143.742, 828 143.024 C 830.127 142.322, 829.829 142.174, 826 142.029 C 822.715 141.905, 822.036 141.650, 823.484 141.085 C 826.628 139.857, 818.740 137.625, 811.500 137.695 C 806.064 137.747, 805.876 137.683, 809.500 137.018 L 813.500 136.284 810 136.067 C 808.075 135.947, 796.402 135.839, 784.059 135.826 C 763.633 135.804, 761.500 135.963, 760.309 137.592 C 759.523 138.667, 759 138.874, 759 138.112 C 759 136.576, 756.904 136.949, 741.075 141.303 C 731.977 143.805, 730.143 144.594, 732.075 145.177 C 734.119 145.793, 733.950 145.893, 731 145.809 C 729.075 145.754, 726.600 145.820, 725.500 145.954 C 723.747 146.169, 723.809 146.308, 726 147.075 C 728.190 147.843, 728.071 147.910, 725.032 147.617 C 723.010 147.422, 718.651 148.357, 714.585 149.859 C 708.470 152.116, 707.909 152.526, 710.053 153.172 C 712.135 153.798, 711.977 153.893, 709 153.809 C 707.075 153.754, 704.600 153.820, 703.500 153.954 C 701.759 154.168, 701.823 154.306, 704 155.024 C 706.218 155.757, 706.098 155.836, 702.936 155.733 C 699.445 155.619, 688 159.580, 688 160.903 C 688 161.272, 687.212 161.639, 686.250 161.719 C 684.493 161.864, 667.415 169.209, 659 173.439 C 656.525 174.683, 651.237 177.205, 647.250 179.043 C 643.263 180.882, 640 182.749, 640 183.193 C 640 183.637, 639.663 183.947, 639.250 183.882 C 638.837 183.816, 637.825 183.848, 637 183.952 C 635.910 184.089, 636.047 184.399, 637.500 185.084 C 639.197 185.885, 639.075 185.969, 636.694 185.642 C 634.998 185.409, 633.245 185.898, 632.265 186.878 C 631.373 187.770, 630.498 188.387, 630.321 188.250 C 630.145 188.113, 629.438 188.007, 628.750 188.015 C 627.914 188.026, 627.997 188.357, 629 189.015 C 630.333 189.891, 630.333 190.109, 629 190.985 C 628.175 191.526, 626.825 191.969, 626 191.969 C 624.687 191.969, 624.684 191.853, 625.971 191.039 C 626.780 190.527, 627.171 189.838, 626.840 189.507 C 626.509 189.176, 625.510 189.633, 624.619 190.524 C 623.729 191.414, 623 191.862, 623 191.518 C 623 191.174, 616.362 194.351, 608.250 198.578 C 600.138 202.805, 589.923 208.087, 585.551 210.315 C 581.180 212.544, 578.142 214.547, 578.801 214.767 C 579.461 214.987, 580 215.602, 580 216.133 C 580 216.752, 579.384 216.755, 578.287 216.141 C 577.040 215.443, 575.205 215.872, 571.537 217.722 C 568.767 219.119, 566.275 220.566, 566 220.938 C 565.725 221.310, 564.043 222.203, 562.263 222.923 C 560.482 223.643, 559.240 224.579, 559.502 225.003 C 559.764 225.427, 559.421 225.712, 558.739 225.637 C 556.715 225.413, 533.490 238.330, 535.007 238.836 C 535.773 239.091, 536.572 238.782, 536.783 238.150 C 536.994 237.517, 537.904 237, 538.806 237 C 540.069 237, 539.931 237.360, 538.204 238.570 C 536.971 239.433, 535.184 239.964, 534.231 239.749 C 533.279 239.534, 530.293 240.446, 527.595 241.774 C 523.782 243.653, 523.003 244.413, 524.095 245.190 C 525.204 245.978, 525.131 246.070, 523.750 245.626 C 521.447 244.885, 518.837 245.928, 519.660 247.259 C 520.035 247.865, 519.830 248.013, 519.176 247.609 C 518.553 247.224, 510.201 251.278, 500.616 256.619 C 487.478 263.940, 483.312 266.720, 483.689 267.915 C 484.107 269.240, 484.022 269.264, 483.172 268.066 C 482.316 266.859, 481.538 267.040, 478.264 269.207 C 476.124 270.623, 473.502 272.003, 472.437 272.275 C 471.048 272.628, 471.298 272.801, 473.321 272.884 C 475.906 272.990, 476.009 273.134, 474.545 274.598 C 473.081 276.061, 472.740 276.060, 470.474 274.575 C 467.939 272.914, 467.124 269.459, 469.110 268.797 C 469.774 268.575, 469.496 267.839, 468.418 266.963 C 467.332 266.082, 466.915 265.997, 467.367 266.750 C 468.384 268.443, 467.190 268.333, 465.429 266.571 C 463.719 264.862, 463.587 263.304, 465.110 262.797 C 465.774 262.575, 465.496 261.839, 464.418 260.963 C 463.013 259.822, 462.799 259.804, 463.447 260.880 C 464.011 261.816, 463.855 262.118, 462.961 261.820 C 460.876 261.125, 459.249 257.834, 460.724 257.297 C 462.218 256.752, 459.433 251.991, 457.635 252.015 C 457.011 252.024, 457.175 252.467, 458 253 C 459.264 253.817, 459.207 253.972, 457.642 253.985 C 456.169 253.997, 455.910 253.494, 456.395 251.561 C 456.749 250.154, 456.518 248.820, 455.849 248.407 C 455.130 247.962, 454.962 248.129, 455.405 248.845 C 455.797 249.480, 455.589 250, 454.942 250 C 454.259 250, 453.986 249.162, 454.290 248 C 454.656 246.598, 454.318 245.995, 453.156 245.985 C 451.904 245.973, 451.816 245.769, 452.797 245.146 C 453.818 244.499, 453.723 244.022, 452.355 242.912 C 451.233 242.001, 450.883 241.944, 451.367 242.750 C 451.798 243.467, 451.617 244, 450.942 244 C 450.259 244, 449.986 243.162, 450.290 242 C 450.625 240.716, 450.320 240, 449.438 240 C 448.566 240, 448.297 239.391, 448.701 238.336 C 449.133 237.212, 448.958 236.908, 448.162 237.400 C 446.486 238.436, 443.753 235.355, 444.436 233.201 C 445.135 231, 442.167 226.791, 441.336 228.803 C 440.932 229.781, 440.457 229.656, 439.431 228.303 C 437.771 226.114, 437.645 225, 439.059 225 C 439.641 225, 439.840 225.450, 439.500 226 C 439.160 226.550, 439.696 226.985, 440.691 226.967 C 442.298 226.937, 442.253 226.728, 440.293 225.091 C 439.078 224.077, 438.337 222.997, 438.645 222.689 C 438.952 222.381, 438.483 221.100, 437.602 219.842 C 436.721 218.584, 436 218.105, 436 218.777 C 436 220.903, 434.391 220.104, 432.926 217.250 C 432.149 215.738, 430.723 213.772, 429.757 212.883 C 427.615 210.911, 427.435 208.569, 429.485 209.356 C 430.728 209.833, 430.770 209.605, 429.745 207.963 C 428.330 205.697, 427.378 205.477, 426.662 207.250 C 426.348 208.030, 426.128 207.873, 426.079 206.833 C 426.036 205.917, 426.499 205, 427.110 204.797 C 427.774 204.575, 427.496 203.839, 426.418 202.963 C 425.332 202.082, 424.915 201.997, 425.367 202.750 C 425.798 203.467, 425.617 204, 424.942 204 C 424.244 204, 423.988 203.156, 424.310 201.921 C 424.707 200.403, 424.469 199.990, 423.427 200.390 C 422.642 200.691, 422 200.501, 422 199.969 C 422 199.436, 422.563 198.985, 423.250 198.967 C 423.938 198.948, 423.507 198.104, 422.293 197.091 C 421.078 196.077, 420.366 194.967, 420.709 194.624 C 421.052 194.281, 420.846 194, 420.250 194 C 419.654 194, 418.899 194.563, 418.572 195.250 C 418.245 195.938, 418.166 195.488, 418.395 194.250 C 418.634 192.965, 418.313 192, 417.647 192 C 415.844 192, 414.064 188.470, 414.680 186.115 C 415.012 184.847, 414.762 184, 414.058 184 C 413.411 184, 413.160 184.450, 413.500 185 C 414.564 186.721, 412.788 186.090, 411.392 184.250 C 409.769 182.111, 409.655 181, 411.059 181 C 411.641 181, 411.840 181.450, 411.500 182 C 411.160 182.550, 411.359 183, 411.941 183 C 413.378 183, 413.224 181.881, 411.468 179.559 C 410.661 178.491, 410 178.154, 410 178.809 C 410 179.464, 409.498 180, 408.883 180 C 408.239 180, 408.001 179.106, 408.320 177.885 C 408.879 175.748, 407.210 172, 405.700 172 C 405.250 172, 405.160 172.450, 405.500 173 C 405.840 173.550, 405.690 174, 405.166 174 C 404.642 174, 403.955 173.325, 403.638 172.500 C 403.322 171.675, 403.499 171, 404.031 171 C 404.564 171, 405 170.564, 405 170.031 C 405 169.499, 404.251 169.350, 403.336 169.701 C 402.217 170.131, 401.909 169.957, 402.395 169.170 C 402.793 168.526, 402.621 168, 402.014 168 C 400.362 168, 396 163.318, 396 161.545 C 396 160.695, 395.550 160, 395 160 C 394.450 160, 394 159.325, 394 158.500 C 394 157.675, 393.550 157, 393 157 C 392.450 157, 392 156.325, 392 155.500 C 392 154.675, 391.498 154, 390.883 154 C 390.259 154, 389.997 153.118, 390.290 152 C 390.653 150.610, 390.307 149.976, 389.156 149.921 C 388.210 149.876, 388.012 149.634, 388.694 149.356 C 390.033 148.812, 389.313 146, 387.834 146 C 387.310 146, 387.160 146.450, 387.500 147 C 387.840 147.550, 387.589 148, 386.942 148 C 386.259 148, 385.986 147.162, 386.290 146 C 386.653 144.610, 386.307 143.976, 385.156 143.921 C 384.108 143.871, 383.961 143.656, 384.756 143.336 C 385.447 143.057, 385.770 142.437, 385.474 141.958 C 385.178 141.479, 384.319 141.324, 383.564 141.614 C 382.716 141.939, 380.940 140.299, 378.912 137.320 C 377.108 134.669, 375.199 132.208, 374.670 131.851 C 374.141 131.494, 373.985 130.481, 374.323 129.601 C 374.750 128.488, 374.372 128, 373.084 128 C 372.064 128, 370.428 126.763, 369.448 125.250 C 368.468 123.737, 366.841 121.772, 365.833 120.883 C 364.825 119.993, 364 118.864, 364 118.373 C 364 117.883, 363.100 116.919, 362 116.232 C 360.900 115.545, 360 114.411, 360 113.712 C 360 113.013, 359.100 111.793, 358 111 C 355.873 109.467, 355.292 107, 357.059 107 C 357.641 107, 357.852 106.570, 357.527 106.044 C 357.202 105.518, 356.202 105.369, 355.304 105.714 C 354.220 106.129, 353.913 105.951, 354.388 105.181 C 354.856 104.425, 354.566 104.229, 353.552 104.618 C 352.546 105.004, 352 104.648, 352 103.607 C 352 102.723, 351.262 102, 350.360 102 C 348.800 102, 346.100 99.349, 346.032 97.750 C 346.014 97.338, 346.686 97, 347.524 97 C 348.574 97, 348.056 95.910, 345.864 93.500 C 344.112 91.575, 342.188 90.007, 341.589 90.015 C 340.990 90.024, 341.175 90.467, 342 91 C 343.146 91.741, 343.182 91.973, 342.151 91.985 C 341.409 91.993, 339.596 90.762, 338.121 89.250 C 336.646 87.737, 334.553 86.013, 333.470 85.418 C 332.386 84.823, 331.056 83.361, 330.513 82.168 C 329.970 80.976, 329.182 80, 328.763 80 C 328.343 80, 328 79.523, 328 78.941 C 328 78.359, 328.563 78.206, 329.250 78.602 C 329.938 78.998, 329.409 78.125, 328.076 76.661 C 326.742 75.198, 324.942 74.032, 324.076 74.070 C 322.926 74.122, 323.041 74.373, 324.500 75 C 326.039 75.661, 326.125 75.876, 324.872 75.930 C 323.977 75.968, 322.646 75.278, 321.914 74.396 C 321.181 73.514, 319.551 72.400, 318.291 71.921 C 317.031 71.441, 316 70.363, 316 69.525 C 316 68.686, 315.148 68, 314.107 68 C 313.066 68, 311.955 67.325, 311.638 66.500 C 311.322 65.675, 311.525 65, 312.090 65 C 312.656 65, 312.877 64.610, 312.583 64.134 C 312.289 63.658, 311.024 63.462, 309.774 63.699 C 308.384 63.962, 306.641 63.326, 305.292 62.065 C 304.077 60.929, 302.445 60, 301.664 60 C 300.884 60, 299.685 59.325, 299 58.500 C 297.969 57.258, 298.077 56.997, 299.628 56.985 C 301.013 56.973, 301.158 56.753, 300.185 56.136 C 299.462 55.677, 297.662 55.465, 296.185 55.665 C 293.858 55.979, 293.767 55.902, 295.500 55.084 C 297.669 54.061, 296.621 53.698, 292 53.873 C 289.716 53.959, 289.673 53.889, 291.500 53.054 C 292.600 52.552, 293.217 52.109, 292.872 52.070 C 292.527 52.032, 290.614 51.319, 288.622 50.487 C 286.630 49.654, 285 49.398, 285 49.917 C 285 50.436, 286.012 51.056, 287.250 51.294 C 289.352 51.699, 289.336 51.734, 287 51.828 C 285.625 51.884, 283.375 51.286, 282 50.500 L 279.500 49.071 282 48.965 C 284.277 48.869, 284.321 48.787, 282.500 48.053 C 281.400 47.610, 280.050 47.570, 279.500 47.965 C 278.950 48.359, 277.375 48.349, 276 47.941 L 273.500 47.199 276 47.023 C 277.632 46.908, 276.243 46.174, 272 44.910 C 266.165 43.171, 265.061 43.115, 261.208 44.363 C 258.257 45.319, 257.033 45.401, 257.290 44.627 C 257.496 44.007, 258.978 43.216, 260.582 42.868 L 263.500 42.237 260 41.961 C 258.075 41.810, 252.675 41.709, 248 41.737 C 239.735 41.786, 239.666 41.767, 245.500 41.062 C 251.279 40.363, 251.334 40.330, 247 40.159 C 244.525 40.062, 240.250 39.826, 237.500 39.634 C 234.750 39.442, 229.350 39.537, 225.500 39.845 M 242.500 89.411 C 239.200 90.604, 233.575 93.135, 230 95.033 C 226.425 96.932, 223.162 98.639, 222.749 98.826 C 222.336 99.014, 222.310 98.357, 222.690 97.366 C 223.303 95.767, 223.204 95.729, 221.801 97.033 C 220.926 97.846, 220.640 98.763, 221.160 99.089 C 221.676 99.413, 220.088 101.326, 217.631 103.339 C 212.617 107.447, 211.768 107.778, 212.725 105.250 C 213.355 103.586, 213.301 103.586, 211.630 105.242 C 210.663 106.201, 210.127 107.396, 210.438 107.899 C 210.748 108.402, 210.136 108.587, 209.078 108.310 C 206.624 107.668, 199.722 114.483, 200.412 116.867 C 200.709 117.893, 198.628 120.914, 194.810 125 C 191.470 128.575, 189.006 130.713, 189.337 129.750 C 189.667 128.787, 189.453 128, 188.860 128 C 188.247 128, 188.020 128.970, 188.332 130.250 C 188.700 131.760, 188.094 133.404, 186.488 135.250 C 184.176 137.908, 182.237 139.043, 183.500 137 C 183.840 136.450, 183.593 136, 182.952 136 C 182.311 136, 182.038 136.656, 182.346 137.458 C 182.887 138.870, 177.190 148.933, 175.823 148.978 C 175.451 148.990, 174.954 148.438, 174.719 147.750 C 174.484 147.063, 174.453 147.485, 174.649 148.689 C 175 150.832, 173.581 152.749, 172.749 151.256 C 172.517 150.840, 172.480 151.103, 172.667 151.840 C 173.265 154.200, 171.723 155.521, 170.807 153.434 C 170.116 151.859, 170.049 151.959, 170.444 153.973 C 170.789 155.732, 169.590 158.594, 166.287 163.893 C 162.346 170.217, 161.519 171.051, 160.807 169.420 C 160.173 167.968, 160.096 168.155, 160.488 170.189 C 160.774 171.668, 160.556 173.157, 160.004 173.498 C 159.452 173.839, 159 173.586, 159 172.937 C 159 172.083, 158.562 172.119, 157.420 173.067 C 156.432 173.886, 156.022 175.332, 156.325 176.921 C 156.593 178.320, 156.111 180.819, 155.254 182.475 C 153.806 185.275, 153.638 185.347, 152.851 183.493 C 152.261 182.103, 152.180 182.484, 152.582 184.750 C 153.148 187.939, 151.783 189.297, 150.572 186.750 C 150.245 186.063, 150.178 186.561, 150.424 187.859 C 150.803 189.863, 145.324 202.196, 143.253 204 C 142.938 204.275, 142.984 203.969, 143.356 203.319 C 143.728 202.670, 143.598 201.869, 143.066 201.541 C 142.067 200.923, 140 203.966, 140 206.057 C 140 206.938, 140.396 206.917, 141.532 205.974 C 142.866 204.867, 142.945 205.015, 142.144 207.121 C 141.639 208.451, 140.274 211.231, 139.112 213.300 C 137.951 215.368, 137 217.722, 137 218.530 C 137 219.339, 136.523 220, 135.941 220 C 135.359 220, 135.160 219.550, 135.500 219 C 135.840 218.450, 135.606 218, 134.980 218 C 134.235 218, 134.069 219.038, 134.500 221 C 135.001 223.283, 134.804 224, 133.673 224 C 132.680 224, 132.361 224.663, 132.710 226 C 133.275 228.159, 131.494 228.811, 130.662 226.750 C 130.348 225.970, 130.128 226.127, 130.079 227.167 C 130.036 228.083, 130.563 229.060, 131.250 229.338 C 132.211 229.726, 132.198 229.860, 131.191 229.921 C 130.471 229.964, 130.131 230.402, 130.434 230.894 C 131.035 231.866, 128.347 239, 127.380 239 C 127.053 239, 127.045 238.325, 127.362 237.500 C 128.087 235.609, 127.278 235.579, 125.429 237.429 C 123.600 239.258, 123.620 240, 125.500 240 C 127.423 240, 127.397 240.276, 125 245.236 C 123.900 247.513, 123 249.966, 123 250.688 C 123 252.355, 121.355 252.397, 120.574 250.750 C 120.248 250.063, 120.181 251.179, 120.425 253.232 C 120.866 256.943, 119.708 259.154, 118.579 256.756 C 118.254 256.065, 118.233 256.771, 118.532 258.325 C 119.080 261.172, 117.210 268, 115.882 268 C 115.489 268, 114.940 267.437, 114.662 266.750 C 114.361 266.003, 114.126 266.205, 114.079 267.250 C 114.036 268.212, 114.388 269, 114.861 269 C 115.335 269, 115.486 270.238, 115.196 271.750 C 114.906 273.262, 114.481 273.938, 114.251 273.250 C 114.021 272.563, 113.381 272, 112.829 272 C 112.212 272, 112.074 273.641, 112.471 276.250 C 112.926 279.238, 112.820 280.063, 112.113 279.029 C 111.561 278.220, 110.972 277.770, 110.804 278.029 C 108.035 282.315, 107.038 287, 108.895 287 C 109.409 287, 109.379 288.596, 108.825 290.750 C 108.295 292.813, 107.613 295.519, 107.311 296.765 C 107.009 298.010, 106.295 299.317, 105.726 299.669 C 105.151 300.025, 104.989 299.827, 105.362 299.224 C 105.731 298.627, 105.575 297.856, 105.016 297.510 C 104.454 297.162, 104 297.801, 104 298.941 C 104 300.073, 104.430 301, 104.956 301 C 105.482 301, 105.258 302.852, 104.456 305.126 C 103.655 307.395, 103 310.068, 103 311.067 C 103 312.065, 102.480 313.203, 101.845 313.595 C 101.156 314.021, 100.961 313.871, 101.362 313.224 C 101.731 312.627, 101.575 311.856, 101.016 311.510 C 100.411 311.136, 100 312.143, 100 314 C 100 315.715, 100.370 316.889, 100.823 316.610 C 101.275 316.330, 100.941 319.228, 100.080 323.051 C 98.510 330.023, 97.541 331.509, 96.689 328.250 C 96.402 327.149, 96.189 327.498, 96.116 329.191 C 96.052 330.671, 96.363 332.106, 96.806 332.380 C 97.855 333.028, 97.046 340, 95.922 340 C 95.449 340, 95.304 339.371, 95.600 338.601 C 95.895 337.832, 95.656 336.905, 95.068 336.542 C 93.622 335.648, 93.663 341.263, 95.113 342.713 C 96.447 344.047, 95.454 346, 93.441 346 C 92.404 346, 92 347.238, 92 350.417 C 92 352.846, 92.375 354.983, 92.833 355.167 C 93.291 355.350, 93.358 359.100, 92.984 363.500 C 92.609 367.900, 92.199 370.825, 92.074 370 C 90.614 360.365, 89.999 363.075, 90.015 379.083 C 90.026 389.407, 90.351 394.004, 91 393 C 91.533 392.175, 92.050 390.600, 92.148 389.500 C 92.246 388.400, 92.590 389.975, 92.913 393 C 93.236 396.025, 93.125 398.775, 92.666 399.111 C 92.208 399.447, 92.483 399.971, 93.277 400.276 C 94.901 400.899, 96.315 405, 94.906 405 C 94.408 405, 94 406.125, 94 407.500 C 94 408.875, 94.450 410, 95 410 C 95.550 410, 96 410.618, 96 411.374 C 96 413.398, 102.369 420, 104.321 420 C 105.244 420, 106 420.489, 106 421.086 C 106 421.714, 107.580 422.077, 109.750 421.946 C 111.813 421.822, 115.075 421.851, 117 422.010 C 120.430 422.295, 120.410 422.314, 116 423 L 111.500 423.700 115.691 423.850 C 117.996 423.932, 120.160 424.450, 120.500 425 C 120.840 425.550, 123.904 425.917, 127.309 425.815 L 133.500 425.630 128.250 425.263 C 119.434 424.646, 122.366 422.999, 132.250 423.015 C 138.592 423.026, 141.028 423.335, 140 424 C 139.175 424.533, 138.988 424.976, 139.583 424.985 C 140.179 424.993, 140.973 424.693, 141.348 424.318 C 141.723 423.944, 144.611 423.667, 147.765 423.703 L 153.500 423.770 148.500 423.042 L 143.500 422.314 148 422.004 C 150.475 421.833, 154.975 421.699, 158 421.705 C 161.792 421.713, 162.413 421.570, 160 421.246 C 157.026 420.847, 158.158 420.363, 167.521 418.028 C 173.582 416.516, 179.882 415.382, 181.521 415.507 C 183.159 415.633, 183.600 415.511, 182.500 415.237 C 179.455 414.479, 207.951 405.232, 212.113 405.629 C 214.934 405.897, 215.085 405.823, 213.017 405.185 C 210.787 404.496, 211.193 404.168, 217.017 401.959 C 220.583 400.607, 225.075 399.592, 227 399.704 C 229.996 399.879, 230.140 399.797, 228 399.137 C 225.594 398.395, 225.651 398.313, 229.500 396.949 C 231.700 396.170, 233.950 395.525, 234.500 395.516 C 235.050 395.507, 236.080 394.952, 236.789 394.283 C 237.516 393.596, 239.476 393.277, 241.289 393.552 C 243.588 393.900, 243.953 393.799, 242.573 393.194 C 241.012 392.510, 240.929 392.241, 242.136 391.778 C 242.956 391.463, 244.948 391.391, 246.563 391.617 C 248.723 391.919, 249.004 391.810, 247.624 391.207 C 246.091 390.536, 246.913 389.872, 252.124 387.572 C 255.631 386.025, 260.043 384.049, 261.929 383.180 C 263.815 382.312, 266.740 381.668, 268.429 381.749 C 270.408 381.844, 270.910 381.648, 269.841 381.198 C 268.695 380.716, 276.722 376.327, 295.809 367 C 311.003 359.575, 330.425 349.845, 338.968 345.378 C 347.510 340.911, 354.712 337.448, 354.971 337.682 C 355.230 337.917, 354.780 338.527, 353.971 339.039 C 352.798 339.781, 352.937 339.972, 354.656 339.985 C 356.264 339.996, 356.690 339.530, 356.330 338.153 C 355.767 336.001, 360.865 333.418, 364.997 333.760 C 367.133 333.937, 367.216 333.849, 365.566 333.156 C 364.233 332.597, 364 332.118, 364.816 331.613 C 365.467 331.211, 366.520 331.203, 367.155 331.595 C 367.793 331.990, 368.040 331.874, 367.708 331.337 C 366.827 329.911, 377.345 325.046, 380.140 325.585 C 382.223 325.988, 382.265 325.938, 380.500 325.167 C 378.746 324.401, 379.146 323.965, 383.750 321.630 C 386.637 320.165, 389 319.342, 389 319.802 C 389 320.261, 387.538 321.365, 385.750 322.255 C 383.172 323.538, 382.926 323.885, 384.561 323.936 C 385.695 323.971, 387.589 323.100, 388.770 322 C 389.950 320.900, 391.498 319.968, 392.208 319.930 C 392.919 319.891, 392.616 319.514, 391.536 319.092 C 389.926 318.462, 391.096 317.531, 398.025 313.926 C 402.674 311.508, 407.382 309.655, 408.489 309.809 C 410.146 310.040, 410.236 309.908, 409 309.060 C 407.667 308.145, 407.667 308.016, 409 307.897 C 409.825 307.823, 410.837 307.816, 411.250 307.882 C 411.663 307.947, 412 307.647, 412 307.216 C 412 305.675, 417.692 303.104, 420.074 303.568 C 421.956 303.935, 422.087 303.858, 420.658 303.225 C 419.106 302.538, 419.563 302.025, 423.561 299.969 C 426.171 298.626, 429.362 297.666, 430.653 297.836 C 431.944 298.005, 433.707 297.436, 434.571 296.572 C 435.447 295.696, 435.651 295, 435.032 295 C 434.303 295, 434.365 294.522, 435.211 293.611 C 436.145 292.604, 436.702 292.535, 437.235 293.361 C 437.726 294.123, 437.964 294.004, 437.953 293 C 437.944 292.175, 437.276 290.626, 436.468 289.559 C 435.097 287.746, 435 287.738, 435 289.431 C 435 290.971, 434.761 291.047, 433.420 289.933 C 432.498 289.168, 432.023 287.659, 432.281 286.311 C 432.747 283.875, 431.559 283.121, 430.609 285.250 C 430.302 285.938, 430.091 285.600, 430.141 284.500 C 430.320 280.492, 429.904 279.397, 429 281.500 C 428.244 283.259, 428.132 283.162, 428.070 280.691 C 428.032 279.146, 427.575 278.145, 427.054 278.466 C 425.597 279.367, 418.002 267.510, 417.985 264.305 C 417.973 262.126, 417.753 261.835, 417 263 C 415.972 264.591, 415.750 264.026, 415.825 260 C 415.858 258.241, 415.716 258.040, 415.348 259.322 C 414.843 261.084, 414.781 261.084, 413.445 259.322 C 411.827 257.188, 411.561 254, 413 254 C 413.550 254, 414 253.550, 414 253 C 414 252.450, 413.325 252, 412.500 252 C 411.675 252, 411 252.783, 411 253.739 C 411 254.696, 408.975 252.460, 406.500 248.771 C 404.025 245.081, 402 241.599, 402 241.031 C 402 240.464, 401.598 240, 401.107 240 C 400.616 240, 399.955 239.325, 399.638 238.500 C 398.673 235.984, 400.430 236.828, 402.242 239.750 C 403.541 241.846, 403.953 242.073, 403.973 240.705 C 403.988 239.717, 402.875 237.784, 401.500 236.409 C 400.125 235.034, 399 234.406, 399 235.014 C 399 235.621, 398.548 235.839, 397.996 235.498 C 397.444 235.157, 397.226 233.668, 397.512 232.189 C 397.908 230.135, 397.832 229.957, 397.188 231.434 C 396.142 233.834, 394.732 231.986, 395.591 229.340 C 396.002 228.075, 395.905 227.894, 395.279 228.760 C 394.050 230.462, 388.867 222.621, 389.636 220.224 C 390.059 218.903, 389.962 218.817, 389.219 219.857 C 388.116 221.402, 386.790 219.985, 387.333 217.840 C 387.520 217.103, 387.483 216.840, 387.251 217.256 C 387.019 217.672, 386.396 217.745, 385.866 217.417 C 385.264 217.045, 385.309 216.333, 385.986 215.517 C 386.782 214.558, 386.662 213.805, 385.535 212.677 C 384.691 211.833, 384 210.436, 384 209.571 C 384 208.707, 383.550 208, 383 208 C 382.450 208, 382 207.392, 382 206.648 C 382 205.905, 380.762 203.961, 379.250 202.329 C 377.738 200.697, 376.359 198.746, 376.188 197.994 C 376.016 197.242, 375.116 195.923, 374.188 195.063 C 373.259 194.203, 372.349 192.631, 372.165 191.570 C 371.980 190.508, 370.760 188.483, 369.452 187.070 C 364.393 181.602, 362.002 178.451, 362.001 177.250 C 362.001 176.563, 361.550 176, 361 176 C 360.450 176, 360 175.524, 360 174.941 C 360 174.359, 358.553 172.082, 356.784 169.881 C 353.972 166.381, 353.468 166.106, 352.769 167.690 C 352.215 168.944, 352.130 168.671, 352.491 166.802 C 352.876 164.806, 352.359 163.450, 350.506 161.597 C 349.128 160.219, 348 158.699, 348 158.220 C 348 157.741, 346.923 156.337, 345.608 155.101 C 343.827 153.428, 343.080 153.192, 342.687 154.177 C 342.395 154.907, 342.123 154.513, 342.079 153.297 C 342.014 151.473, 340.384 146.633, 339.322 145.107 C 339.171 144.892, 338.322 145.317, 337.435 146.054 C 336.076 147.182, 335.855 147.165, 336.030 145.946 C 336.600 141.966, 335.929 140, 334 140 C 332.900 140, 331.993 139.438, 331.985 138.750 C 331.974 137.901, 331.626 137.981, 330.898 139 C 330.027 140.219, 329.913 140.100, 330.290 138.364 C 330.611 136.885, 329.598 134.965, 326.992 132.114 C 322.938 127.680, 321.677 126.981, 322.725 129.750 C 323.346 131.389, 323.280 131.393, 321.694 129.821 C 319.882 128.026, 319.341 125.475, 320.989 126.493 C 321.555 126.843, 321.723 126.442, 321.382 125.552 C 320.664 123.681, 319.354 123.536, 318.662 125.250 C 318.385 125.938, 318.115 125.375, 318.064 124 C 317.989 122.008, 317.773 121.805, 317 123 C 316.197 124.243, 316.028 124.156, 316.015 122.496 C 316.002 120.722, 304.932 108, 303.402 108 C 303.072 108, 301.541 106.650, 300 105 C 297.163 101.963, 295 101.123, 295 103.059 C 295 103.641, 295.450 103.840, 296 103.500 C 296.550 103.160, 297 103.628, 297 104.539 C 297 105.851, 296.285 105.603, 293.572 103.348 C 290.439 100.745, 288.626 98.033, 291 99.500 C 291.552 99.841, 292 99.125, 292 97.904 C 292 95.714, 291.977 95.710, 289.830 97.595 C 287.867 99.319, 287.722 99.333, 288.304 97.738 C 288.839 96.270, 288.534 96.079, 286.473 96.596 C 284.900 96.991, 284 96.792, 284 96.049 C 284 95.407, 284.450 95.160, 285 95.500 C 285.550 95.840, 286 95.690, 286 95.166 C 286 93.770, 283.191 92.926, 282.768 94.195 C 282.531 94.906, 281.394 94.729, 279.454 93.679 C 277.829 92.799, 276.867 92.062, 277.316 92.040 C 277.764 92.018, 279.002 92.466, 280.066 93.035 C 284.129 95.210, 281.467 91.662, 277.225 89.250 C 274.537 87.721, 273 87.652, 273 89.059 C 273 89.641, 273.450 89.840, 274 89.500 C 274.550 89.160, 275 89.359, 275 89.941 C 275 91.243, 274.469 91.267, 272.236 90.066 C 265.652 86.526, 251.347 86.211, 242.500 89.411 M 781.292 134.742 C 785.027 134.935, 790.877 134.934, 794.292 134.739 C 797.706 134.545, 794.650 134.387, 787.500 134.389 C 780.350 134.390, 777.556 134.550, 781.292 134.742 M 784.882 173.951 C 784.816 174.253, 784.791 174.762, 784.826 175.083 C 784.860 175.404, 782.873 175.360, 780.409 174.986 C 777.945 174.612, 775.680 174.709, 775.375 175.202 C 775.070 175.696, 774.190 175.573, 773.411 174.926 C 772.397 174.084, 772 174.071, 772 174.878 C 772 175.495, 771.523 176, 770.941 176 C 770.359 176, 770.160 175.550, 770.500 175 C 770.840 174.450, 770.431 174, 769.590 174 C 768.643 174, 768.282 174.570, 768.638 175.500 C 769.039 176.543, 768.567 177, 767.089 177 C 764.814 177, 752.182 180.220, 747.553 181.980 C 746.013 182.565, 743.121 182.805, 741.127 182.511 C 738.475 182.122, 738.038 182.222, 739.500 182.882 L 741.500 183.785 739.500 184.483 C 738.400 184.867, 736.600 185.547, 735.500 185.993 C 734.400 186.440, 730.800 187.826, 727.500 189.075 C 716.761 193.137, 700.778 200.073, 687.191 206.566 C 676.484 211.684, 673.259 212.812, 670.691 212.342 C 667.592 211.773, 667.558 211.805, 669.500 213.450 C 671.436 215.089, 671.388 215.125, 668 214.573 C 665.607 214.183, 664.965 214.301, 665.971 214.947 C 667.777 216.106, 668.924 215.360, 653.857 222.827 C 645.869 226.785, 640.347 228.945, 638.857 228.692 C 637.561 228.472, 637.063 228.484, 637.750 228.719 C 638.438 228.954, 639 229.463, 639 229.850 C 639 230.897, 621.867 239.201, 621.163 238.496 C 620.830 238.163, 621.220 237.473, 622.029 236.961 C 623.243 236.193, 623.173 236.028, 621.633 236.015 C 620.268 236.004, 619.905 236.527, 620.280 237.963 C 620.705 239.587, 619.383 240.652, 612.647 244.115 C 608.166 246.419, 600.964 250.257, 596.643 252.644 C 591.023 255.748, 588.032 256.840, 586.143 256.477 C 584.201 256.104, 583.994 256.186, 585.361 256.787 C 586.857 257.444, 584.826 258.932, 575.012 264.371 C 568.296 268.093, 562.147 270.887, 561.349 270.580 C 560.550 270.274, 560.149 270.432, 560.458 270.932 C 561.007 271.820, 557.213 274.207, 544 281.288 C 540.425 283.204, 533.491 287.047, 528.592 289.829 C 521.584 293.808, 519.024 294.778, 516.592 294.377 C 513.931 293.938, 513.758 294.031, 515.352 295.040 C 516.988 296.076, 516.068 296.841, 507.476 301.588 C 502.126 304.544, 497.361 306.723, 496.886 306.430 C 495.632 305.655, 497.044 309.197, 498.807 311.250 C 499.771 312.372, 499.896 313, 499.155 313 C 496.227 313, 499.139 317.493, 502.488 318.142 C 504.523 318.537, 505.848 321, 504.024 321 C 503.396 321, 503.160 320.550, 503.500 320 C 503.840 319.450, 503.641 319, 503.059 319 C 502.477 319, 502.001 319.337, 502.001 319.750 C 502.003 321.010, 506.661 326, 507.835 326 C 508.441 326, 508.724 326.563, 508.463 327.250 C 508.203 327.938, 509.057 329.738, 510.361 331.250 C 512.780 334.055, 514.709 335.011, 513.387 332.750 C 512.985 332.063, 513.634 332.357, 514.828 333.405 C 517.167 335.456, 517.645 337, 515.941 337 C 515.359 337, 515.160 336.550, 515.500 336 C 515.840 335.450, 515.641 335, 515.059 335 C 513.409 335, 513.797 336.261, 516.368 339.250 C 519.229 342.577, 520.515 342.834, 518.871 339.750 C 517.779 337.700, 517.822 337.623, 519.359 338.891 C 520.438 339.781, 520.815 341.006, 520.407 342.292 C 519.914 343.847, 520.128 344.165, 521.353 343.695 C 522.223 343.361, 523.202 343.518, 523.527 344.044 C 523.852 344.570, 523.641 345, 523.059 345 C 521.409 345, 521.797 346.261, 524.368 349.250 C 526.714 351.979, 528.773 353.061, 527.405 350.845 C 526.954 350.116, 527.131 349.963, 527.886 350.430 C 528.544 350.836, 528.807 352.032, 528.472 353.087 C 527.816 355.154, 529.978 358.010, 532.179 357.985 C 533.155 357.973, 533.108 357.716, 532 357 C 531.175 356.467, 531.007 356.024, 531.628 356.015 C 532.248 356.007, 533.315 356.675, 534 357.500 C 535.023 358.733, 534.943 359, 533.551 359 C 532.045 359, 532.024 359.167, 533.357 360.500 C 534.182 361.325, 535.902 362.052, 537.179 362.116 C 538.870 362.201, 539.026 362.356, 537.752 362.689 C 536.237 363.085, 536.194 363.337, 537.430 364.573 C 539.190 366.333, 540.384 366.442, 539.367 364.750 C 538.915 363.997, 539.332 364.082, 540.418 364.963 C 541.496 365.839, 541.774 366.575, 541.110 366.797 C 539.063 367.479, 539.961 368.808, 548 377 C 552.400 381.484, 556 385.793, 556 386.576 C 556 387.359, 556.900 388, 558 388 C 559.100 388, 560 388.450, 560 389 C 560 389.550, 561.013 389.968, 562.250 389.930 C 564.397 389.863, 564.408 389.820, 562.500 389 C 560.870 388.299, 560.812 388.128, 562.191 388.070 C 564.478 387.975, 565.585 390.001, 563.878 391.157 C 562.819 391.873, 562.964 392.052, 564.500 391.930 C 567.832 391.663, 568.576 391.982, 567 393 C 565.781 393.788, 565.911 393.972, 567.694 393.985 C 569.981 394.001, 576.443 398.913, 574.250 398.968 C 573.563 398.986, 573 398.550, 573 398 C 573 397.450, 572.293 397, 571.429 397 C 570.032 397, 570.024 397.167, 571.357 398.500 C 572.182 399.325, 573.814 400, 574.983 400 C 577.874 400, 589.590 408.017, 588.071 408.956 C 586.351 410.019, 589.342 412.202, 592.197 411.968 C 595.805 411.671, 596.680 412.063, 594.500 413 C 592.790 413.735, 592.754 413.870, 594.250 413.930 C 595.212 413.968, 596 414.450, 596 415 C 596 415.550, 596.916 416, 598.035 416 C 599.155 416, 601.258 416.778, 602.711 417.730 C 605.645 419.653, 613.660 420.986, 625 421.436 L 632.500 421.734 625.500 421.086 C 613.923 420.014, 620.630 418.619, 633.925 419.334 C 640.366 419.680, 646.056 419.565, 646.568 419.079 C 647.081 418.592, 648.400 417.942, 649.500 417.633 C 650.694 417.298, 650.391 417.203, 648.750 417.397 C 647.237 417.576, 646 417.391, 646 416.986 C 646 415.939, 651.257 415.023, 654.101 415.575 C 656.095 415.962, 656.175 415.898, 654.573 415.195 C 653.012 414.510, 652.929 414.241, 654.136 413.778 C 654.956 413.463, 656.948 413.391, 658.563 413.617 C 660.630 413.906, 660.963 413.791, 659.688 413.229 C 658.137 412.546, 658.390 412.184, 661.438 410.731 C 663.397 409.797, 665 409.438, 665 409.933 C 665 410.428, 664.438 411.060, 663.750 411.338 C 663.003 411.639, 663.205 411.874, 664.250 411.921 C 665.212 411.964, 666 411.550, 666 411 C 666 410.450, 666.788 409.968, 667.750 409.930 C 669.246 409.870, 669.210 409.735, 667.500 409 C 665.397 408.096, 666.492 407.680, 670.500 407.859 C 671.600 407.909, 671.935 407.697, 671.244 407.389 C 669.047 406.410, 671.014 404.972, 673.811 405.512 C 675.811 405.898, 676.014 405.818, 674.603 405.201 C 672.925 404.467, 673.156 404.098, 676.603 402.009 C 678.746 400.710, 681.405 399.745, 682.511 399.864 C 684.688 400.098, 692.748 393.416, 690.993 392.831 C 689.777 392.426, 707.934 375.371, 709.178 375.750 C 709.630 375.888, 709.888 375.438, 709.750 374.750 C 709.603 374.013, 710.321 373.620, 711.500 373.792 C 713.125 374.029, 713.221 373.897, 712.013 373.086 C 710.744 372.235, 710.853 371.785, 712.763 370.006 C 715.041 367.884, 715.989 368.611, 713.800 370.800 C 712.867 371.733, 712.978 372, 714.300 372 C 715.499 372, 716 371.167, 716 369.174 C 716 367.453, 716.977 365.431, 718.500 364 C 719.905 362.680, 721 362.197, 721 362.897 C 721 363.778, 721.439 363.704, 722.500 362.643 C 723.325 361.818, 723.993 360.548, 723.985 359.821 C 723.973 358.830, 723.737 358.868, 723.039 359.971 C 722.527 360.780, 721.887 361.221, 721.617 360.950 C 721.346 360.680, 722.447 358.944, 724.062 357.094 C 725.678 355.243, 727 354.240, 727 354.864 C 727 355.489, 727.525 356, 728.167 356 C 728.808 356, 729.049 355.716, 728.702 355.368 C 728.354 355.021, 729.404 353.491, 731.035 351.967 C 733.876 349.314, 735.304 345.076, 732.846 346.595 C 732.211 346.988, 733.133 345.214, 734.894 342.654 C 736.655 340.094, 738.299 338, 738.548 338 C 739.617 338, 738.825 339.701, 736.494 342.412 C 733.297 346.129, 734.047 347.044, 737.478 343.613 C 739.266 341.825, 739.988 340.152, 739.789 338.257 C 739.624 336.686, 739.966 335.584, 740.583 335.694 C 741.179 335.801, 741.677 335.351, 741.689 334.694 C 741.733 332.371, 746.267 325.814, 747.005 327.008 C 747.512 327.828, 747.893 327.722, 748.305 326.648 C 748.625 325.813, 748.456 324.985, 747.928 324.809 C 747.401 324.634, 747.708 323.434, 748.612 322.143 C 749.913 320.286, 750.447 320.078, 751.173 321.148 C 751.864 322.168, 752.050 322.008, 751.930 320.500 C 751.643 316.918, 751.970 315.407, 752.765 316.639 C 753.298 317.465, 753.855 317.396, 754.789 316.389 C 755.851 315.245, 755.797 315, 754.480 315 C 753.601 315, 753.165 314.543, 753.510 313.984 C 753.856 313.425, 754.627 313.269, 755.224 313.638 C 755.843 314.021, 756.024 313.847, 755.645 313.234 C 755.021 312.224, 765.245 292.357, 768.159 288.917 C 768.896 288.046, 769.628 286.696, 769.784 285.917 C 769.940 285.138, 770.586 283.195, 771.218 281.599 C 772.255 278.983, 772.450 278.885, 773.204 280.599 C 773.901 282.181, 773.965 282.106, 773.589 280.154 C 773.015 277.177, 773.893 274.816, 775.259 275.660 C 775.850 276.025, 776.015 275.833, 775.636 275.220 C 775.266 274.622, 775.726 272.225, 776.659 269.895 C 778.080 266.344, 778.474 265.969, 779.095 267.579 C 779.613 268.920, 779.812 268.357, 779.755 265.713 C 779.710 263.631, 780.197 261.403, 780.837 260.763 C 781.476 260.124, 782 258.790, 782 257.800 C 782 256.810, 782.450 256, 783 256 C 783.550 256, 783.889 255.662, 783.754 255.250 C 783.618 254.838, 784.168 252.505, 784.974 250.067 C 786.317 246.010, 786.500 245.840, 787.130 248.067 C 787.608 249.756, 787.796 249.021, 787.744 245.661 C 787.703 243, 788.081 240.525, 788.585 240.161 C 789.088 239.798, 789.548 239.050, 789.607 238.500 C 789.667 237.950, 790.309 235.286, 791.035 232.580 C 792.091 228.643, 792.511 228.044, 793.137 229.580 C 793.717 231.003, 793.894 230.594, 793.821 228 C 793.767 226.075, 793.830 223.375, 793.961 222 L 794.199 219.500 795.048 222 C 795.772 224.132, 795.879 223.911, 795.773 220.500 C 795.705 218.300, 795.788 214.925, 795.957 213 L 796.263 209.500 796.920 213 C 797.281 214.925, 797.677 209.486, 797.799 200.914 C 798.011 186.133, 797.904 185.153, 795.731 181.929 C 794.471 180.059, 792.395 178.008, 791.118 177.371 C 788.996 176.314, 788.947 176.129, 790.547 175.234 C 791.990 174.426, 791.655 174.179, 788.649 173.828 C 786.642 173.593, 784.947 173.649, 784.882 173.951 M 799.378 195 C 799.378 201.325, 799.541 203.912, 799.739 200.750 C 799.937 197.588, 799.937 192.412, 799.739 189.250 C 799.541 186.088, 799.378 188.675, 799.378 195 M 683 205.500 C 681.988 206.720, 682.035 207, 683.255 207 C 684.080 207, 685.315 206.325, 686 205.500 C 687.012 204.280, 686.965 204, 685.745 204 C 684.920 204, 683.685 204.675, 683 205.500 M 650 221.500 C 647.790 222.763, 647.732 222.930, 649.500 222.933 C 650.600 222.935, 652.374 222.276, 653.441 221.468 C 656.018 219.519, 653.423 219.543, 650 221.500 M 528.559 242.532 C 526.651 243.975, 526.653 244, 528.686 244 C 529.824 244, 531.315 243.325, 532 242.500 C 533.690 240.464, 531.263 240.486, 528.559 242.532 M 419.168 265.500 C 419.072 267.340, 421.086 271, 422.194 271 C 422.454 271, 422.667 270.325, 422.667 269.500 C 422.667 268.675, 422.098 268, 421.403 268 C 420.708 268, 419.944 266.988, 419.706 265.750 C 419.335 263.823, 419.257 263.787, 419.168 265.500 M 827.250 347.496 C 826.563 348.277, 826 349.385, 826 349.958 C 826 351.885, 827.669 351.022, 828.818 348.500 C 830.061 345.772, 829.234 345.243, 827.250 347.496 M 93.229 349.500 C 93.343 350.875, 93.788 352, 94.218 352 C 94.648 352, 95 350.875, 95 349.500 C 95 348.125, 94.555 347, 94.011 347 C 93.467 347, 93.116 348.125, 93.229 349.500 M 323 354.583 L 320.500 355.971 323.250 355.985 C 324.762 355.993, 326 355.583, 326 355.073 C 326 354.564, 326.788 353.941, 327.750 353.689 C 329.189 353.313, 329.145 353.229, 327.500 353.214 C 326.400 353.204, 324.375 353.820, 323 354.583 M 489 367.087 C 489 367.735, 489.830 368.993, 490.843 369.883 C 491.857 370.772, 492.947 372.175, 493.265 373 C 493.717 374.176, 493.859 374.112, 493.921 372.705 C 493.964 371.717, 492.875 369.784, 491.500 368.409 C 490.125 367.034, 489 366.439, 489 367.087 M 291 370.500 L 288.500 371.929 291.250 371.965 C 292.762 371.984, 294 371.583, 294 371.073 C 294 370.564, 294.788 369.941, 295.750 369.689 C 297.213 369.307, 297.172 369.219, 295.500 369.151 C 294.400 369.107, 292.375 369.714, 291 370.500 M 496 377.560 C 496 377.918, 497.125 379.548, 498.500 381.182 C 499.875 382.816, 501 383.648, 501 383.031 C 501 382.414, 499.875 380.784, 498.500 379.409 C 497.125 378.034, 496 377.202, 496 377.560 M 704.222 380.672 C 702.419 382.502, 701.427 384, 702.017 384 C 703.442 384, 708.237 379.164, 707.824 378.144 C 707.646 377.704, 706.025 378.842, 704.222 380.672 M 576 402.094 C 576 402.695, 576.900 403.423, 578 403.710 C 579.100 403.998, 580 404.631, 580 405.117 C 580 405.602, 580.707 406, 581.571 406 C 582.968 406, 582.976 405.833, 581.643 404.500 C 580.818 403.675, 579.661 403, 579.071 403 C 578.482 403, 578 402.550, 578 402 C 578 401.450, 577.550 401, 577 401 C 576.450 401, 576 401.492, 576 402.094 M 607 417.170 C 607 418.481, 609.438 419.194, 612.653 418.825 C 615.227 418.529, 615.102 418.402, 611.238 417.389 C 608.907 416.778, 607 416.679, 607 417.170 M 640 418 C 637.769 418.715, 637.903 418.811, 641.250 418.900 C 643.313 418.955, 645 418.550, 645 418 C 645 416.855, 643.575 416.855, 640 418 M 253.333 430.446 C 253.333 431.440, 253.828 431.638, 254.917 431.081 C 255.787 430.635, 257.175 430.020, 258 429.714 C 258.825 429.408, 258.113 429.122, 256.417 429.079 C 254.357 429.026, 253.333 429.480, 253.333 430.446 M 121.206 462.741 C 124.895 462.932, 131.195 462.934, 135.206 462.743 C 139.218 462.553, 136.200 462.396, 128.500 462.395 C 120.800 462.393, 117.518 462.549, 121.206 462.741" stroke="none" fill="#b23d9c" fill-rule="evenodd"/></svg>