<svg xmlns="http://www.w3.org/2000/svg" width="1272" height="174" viewBox="0 0 1272 174" version="1.1"><path d="M 420.607 37.582 C 420.273 38.452, 420 42.240, 420 46 C 420 54.975, 420.469 56, 424.569 56 C 429.889 56, 438.955 59.917, 443.648 64.244 C 449.138 69.304, 452.748 76.696, 454.319 86.093 L 455.557 93.500 465.128 93.784 C 477.240 94.144, 477.327 94.058, 475.952 83.089 C 472.983 59.412, 459.137 43.413, 436.540 37.547 C 428.580 35.481, 421.407 35.496, 420.607 37.582 M 794.056 37.090 C 783.483 39.164, 768 48.846, 768 53.385 C 768 56.048, 778.760 67, 781.376 67 C 782.375 67, 785.169 65.261, 787.583 63.135 C 798.386 53.627, 818.197 53.859, 829.002 63.621 C 831.059 65.479, 833.601 67, 834.650 67 C 836.678 67, 849 55.237, 849 53.301 C 849 49.741, 833.380 40.250, 822.955 37.475 C 816.997 35.890, 801.249 35.680, 794.056 37.090 M 1020.616 36.813 C 1019.818 38.104, 1019.651 53.626, 1020.421 54.873 C 1020.805 55.493, 1022.361 56, 1023.881 56 C 1027.922 56, 1035.904 58.905, 1040.554 62.068 C 1048.705 67.613, 1054.021 79.405, 1053.976 91.839 C 1053.944 100.454, 1052.650 105.864, 1048.747 113.707 L 1045.583 120.065 1052.757 127.240 L 1059.931 134.414 1062.402 132.092 C 1069.369 125.547, 1076 106.438, 1076 92.905 C 1076 64.899, 1060.978 43.938, 1036.356 37.585 C 1029.779 35.888, 1021.440 35.479, 1020.616 36.813 M 1205.372 37.781 C 1199.286 39.952, 1195.115 42.538, 1194.308 44.640 C 1193.526 46.677, 1204.717 58.011, 1207.469 57.968 C 1208.586 57.951, 1210.374 57.276, 1211.441 56.468 C 1216.067 52.970, 1229.045 56.479, 1232.017 62.031 C 1232.596 63.114, 1233.640 64, 1234.336 64 C 1236.427 64, 1247 53.981, 1247 51.999 C 1247 49.347, 1238.933 41.668, 1233.309 38.965 C 1226.643 35.761, 1212.690 35.170, 1205.372 37.781 M 496.250 37.662 C 494.633 38.315, 494.438 73.534, 496.046 74.528 C 496.621 74.884, 501.346 71.002, 506.546 65.903 L 516 56.632 516 47.423 C 516 39.948, 515.702 38.100, 514.418 37.607 C 512.548 36.889, 498.056 36.934, 496.250 37.662 M 617.750 37.716 L 615 38.133 615 92.601 L 615 147.070 625.250 146.785 L 635.500 146.500 635.759 92.564 C 635.963 50.079, 635.750 38.459, 634.759 37.830 C 633.485 37.021, 622.808 36.950, 617.750 37.716 M 660.537 38.250 C 659.926 40.157, 659.180 69.326, 659.705 70.750 C 660.636 73.271, 662.823 71.805, 671.816 62.635 L 681 53.269 681 46.335 C 681 42.274, 680.503 38.903, 679.800 38.200 C 678.112 36.512, 661.079 36.556, 660.537 38.250 M 722.331 38.473 C 719.460 40.494, 708 54.781, 708 56.341 C 708 58.102, 719.269 69, 721.091 69 C 721.934 69, 723.601 67.679, 724.795 66.064 C 725.989 64.449, 731.276 58.120, 736.544 52 C 742.180 45.454, 745.989 40.179, 745.799 39.187 C 745.337 36.771, 725.603 36.171, 722.331 38.473 M 871.059 38.429 C 870.092 39.594, 871.171 41.092, 876.903 46.547 C 888.770 57.841, 889.081 58, 899.226 58 C 912.411 58, 915.645 59.824, 917.459 68.285 L 918.056 71.069 928.278 70.785 L 938.500 70.500 938.399 65 C 938.142 50.968, 926.639 40.586, 908.562 38.072 C 896.713 36.424, 872.532 36.654, 871.059 38.429 M 1098.104 37.914 C 1095.910 39.304, 1097.189 41.076, 1106.460 49.493 L 1115.128 57.362 1124.860 58.037 C 1138.362 58.973, 1140.925 60.639, 1143.332 70.043 L 1144.728 75.500 1155.114 75.500 L 1165.500 75.500 1165.272 70.138 C 1164.603 54.399, 1151.119 40.999, 1133 38.067 C 1125.123 36.792, 1100.050 36.683, 1098.104 37.914 M 568.745 73.750 C 568.318 112.846, 568.144 114.135, 562.368 120.883 C 557.350 126.746, 550.354 129.338, 541.044 128.785 C 522.575 127.689, 516.029 117.892, 516.008 91.309 C 516.003 85.681, 515.571 81.853, 514.894 81.434 C 514.262 81.044, 509.759 84.762, 504.394 90.106 C 495.277 99.185, 495 99.595, 495 104.020 C 495 120.364, 505.347 137.237, 519.500 143.976 C 533.758 150.764, 552.972 150.529, 567.173 143.393 C 573.089 140.420, 581.497 131.926, 584.615 125.772 C 589.391 116.347, 590 111.516, 590 83.020 L 590 56.460 580.731 47.230 C 575.633 42.154, 570.939 38, 570.299 38 C 569.443 38, 569.032 47.460, 568.745 73.750 M 379.528 54.149 C 376.022 58.316, 371.601 67.190, 369.363 74.552 C 366.884 82.711, 366.896 102.078, 369.385 110.500 C 376.884 135.867, 398.315 150.467, 425.415 148.672 C 430.412 148.341, 435.478 147.786, 436.673 147.439 C 438.508 146.905, 439.954 148.208, 445.944 155.792 C 449.848 160.734, 454.045 165.047, 455.271 165.375 C 456.497 165.704, 461.157 165.979, 465.628 165.986 C 473.987 166, 477.114 164.658, 475.396 161.794 C 474.970 161.082, 466.309 149.936, 456.151 137.025 C 445.992 124.114, 435.461 110.727, 432.749 107.275 L 427.817 101 416.409 101 C 407.416 101, 405 101.290, 405 102.370 C 405 103.123, 409.275 109.164, 414.500 115.794 C 419.725 122.423, 424 128.107, 424 128.424 C 424 129.737, 415.658 128.862, 410.883 127.048 C 400.038 122.927, 394.859 117.419, 390.927 105.826 C 389.142 100.562, 388.858 97.889, 389.232 89.897 C 389.636 81.262, 390.066 79.516, 393.493 72.580 L 397.305 64.866 391.402 58.715 C 382.593 49.535, 383.211 49.772, 379.528 54.149 M 978.785 54.250 C 970.634 65.051, 967 76.727, 967 92.111 C 967 104.633, 968.259 110.571, 973.041 120.589 C 977.390 129.702, 986.252 139.007, 994.284 142.896 C 1005.361 148.258, 1021.099 150.790, 1022.393 147.418 C 1023.247 145.192, 1023.122 131.728, 1022.235 130.404 C 1021.831 129.801, 1019.322 129.016, 1016.659 128.660 C 1006.501 127.303, 997.143 120.974, 992.763 112.500 C 986.262 99.926, 986.516 83.717, 993.405 71.391 C 994.832 68.837, 996 66.195, 996 65.519 C 996 63.809, 984.116 51, 982.530 51 C 981.819 51, 980.134 52.462, 978.785 54.250 M 1185.359 66.508 C 1184.481 68.796, 1185.892 74.853, 1188.504 80.008 C 1192.070 87.044, 1197.874 91.522, 1212.621 98.612 C 1226.497 105.284, 1229.987 108.300, 1229.996 113.628 C 1230.003 117.278, 1232.218 118.105, 1241.153 117.792 L 1249.500 117.500 1249.806 111.541 C 1250.519 97.669, 1241.445 86.474, 1223.686 79.314 C 1214.856 75.754, 1209.329 72.026, 1207.303 68.264 L 1205.545 65 1195.741 65 C 1187.927 65, 1185.820 65.306, 1185.359 66.508 M 870.239 106.750 L 870.500 146.500 880.500 146.500 L 890.500 146.500 891 124.013 C 891.687 93.115, 890.554 93.033, 915.278 125.778 L 931.344 147.056 944.422 146.778 C 953.468 146.586, 957.500 146.145, 957.500 145.347 C 957.500 144.713, 946.313 130.638, 932.640 114.070 L 907.781 83.945 899.140 84.562 L 890.500 85.180 881.521 76.090 C 876.582 71.091, 871.965 67, 871.259 67 C 870.233 67, 870.029 74.946, 870.239 106.750 M 1096.237 111.250 L 1096.500 146.500 1107 146.500 L 1117.500 146.500 1117.774 129.250 C 1118.020 113.692, 1118.217 111.998, 1119.774 111.982 C 1120.723 111.972, 1125.452 111.549, 1130.283 111.040 C 1142.691 109.735, 1155.024 103.762, 1154.988 99.076 C 1154.981 98.209, 1152.217 94.675, 1148.846 91.222 C 1142.999 85.234, 1142.619 85.016, 1140.608 86.500 C 1136.468 89.556, 1131.897 91.034, 1124.709 91.642 L 1117.414 92.258 1108.639 84.129 C 1095.046 71.535, 1095.927 69.609, 1096.237 111.250 M 674.655 95.466 L 660 113.031 660 130.050 L 660 147.070 670.250 146.785 L 680.500 146.500 681 122.137 L 681.500 97.773 692.561 111.137 C 698.645 118.487, 707.802 129.563, 712.911 135.750 L 722.200 147 735.100 147 C 745.434 147, 748 146.724, 748 145.613 C 748 143.523, 693.148 78.546, 691.092 78.201 C 689.839 77.990, 684.968 83.106, 674.655 95.466 M 753.699 91.634 C 751.214 94.119, 754.929 111.955, 760.042 122.084 C 763.843 129.613, 772.428 138.399, 779.880 142.387 C 800.277 153.302, 830.728 150.109, 844.954 135.562 L 849.409 131.008 842.954 125.008 C 839.405 121.708, 835.694 118.745, 834.710 118.424 C 833.526 118.037, 831.624 119.011, 829.091 121.299 C 824.071 125.834, 815.468 129.003, 808.212 128.989 C 789.949 128.955, 777.213 116.744, 775.119 97.264 L 774.500 91.500 764.449 91.217 C 758.922 91.062, 754.084 91.249, 753.699 91.634 M 1189.250 122.573 C 1181.822 126.783, 1181.505 128.196, 1186.470 134.959 C 1195.404 147.130, 1211.831 151.980, 1227.746 147.146 C 1237.601 144.152, 1238.155 143.172, 1233.633 136.721 C 1227.191 127.532, 1227.359 127.681, 1224.298 128.463 C 1213.626 131.187, 1207.813 129.867, 1202.147 123.430 C 1200.003 120.994, 1197.630 119.007, 1196.874 119.015 C 1196.118 119.024, 1192.688 120.625, 1189.250 122.573" stroke="none" fill="#f8f8f8" fill-rule="evenodd"/><path d="M 88.375 7.491 C 59.378 13.798, 32.668 48.298, 23.336 91.500 C 22.151 96.984, 21.603 104.061, 21.593 114 C 21.577 130.460, 23.348 138.007, 29.429 147.389 C 46.702 174.041, 77.827 168.728, 159.793 125.136 C 170.275 119.561, 179.448 115.010, 180.176 115.021 C 180.904 115.033, 182.825 116.946, 184.445 119.271 C 187.501 123.660, 196.779 135.169, 201.682 140.652 C 227.213 169.208, 264.589 171.989, 294.231 147.539 C 325.397 121.833, 342.125 74.104, 327.412 52.873 C 317.628 38.754, 298.243 37.350, 269.500 48.677 C 259.740 52.523, 227.857 68.241, 211 77.516 C 184.720 91.976, 186.474 91.190, 184.810 89.252 C 183.983 88.288, 179.797 82.100, 175.508 75.500 C 155.036 43.997, 146.217 32.233, 135.857 22.608 C 126.513 13.928, 120.774 10.628, 110.415 7.978 C 101.559 5.713, 97.011 5.613, 88.375 7.491 M 98.393 27.545 C 88.316 32.423, 77.062 46.253, 67.112 65.988 C 55.202 89.608, 49.224 108.834, 47.364 129.500 C 45.533 149.851, 59.587 152.037, 97 137.220 C 114.050 130.468, 167.726 102.870, 169.551 99.917 C 170.221 98.833, 168.394 95.791, 153.684 73.500 C 135.216 45.515, 123.455 31.983, 113.624 27.405 C 107.216 24.422, 104.800 24.444, 98.393 27.545 M 287 59.876 C 275.691 63.514, 251.217 75.052, 229.500 86.986 C 226.750 88.497, 220.675 91.760, 216 94.237 C 207.952 98.502, 196.974 104.765, 196.097 105.593 C 195.302 106.343, 209.963 124.631, 216.692 131.283 C 227.713 142.180, 232.916 145, 241.996 145 C 252.459 145, 260.920 140.493, 271.830 129.106 C 286.752 113.534, 301.314 85.339, 303.509 67.772 C 304.491 59.917, 303.240 57.985, 297.215 58.054 C 294.622 58.083, 290.025 58.904, 287 59.876" stroke="none" fill="#b13f9d" fill-rule="evenodd"/></svg>