<svg version="1.1" id="Layer_1" xmlns="http://www.w3.org/2000/svg" xmlns:xlink="http://www.w3.org/1999/xlink" x="0px" y="0px"
	 width="100%" viewBox="0 0 1200 300" enable-background="new 0 0 1200 300" xml:space="preserve">
<path fill="#FFFFFF" opacity="1.000000" stroke="none" 
	d="
M874.000000,301.000000 
	C582.666687,301.000000 291.833344,301.000000 1.000000,301.000000 
	C1.000000,201.000000 1.000000,101.000000 1.000000,1.000000 
	C401.000000,1.000000 801.000000,1.000000 1201.000000,1.000000 
	C1201.000000,101.000000 1201.000000,201.000000 1201.000000,301.000000 
	C1092.166626,301.000000 983.333313,301.000000 874.000000,301.000000 
M392.347595,163.136551 
	C399.466705,171.504745 408.497772,175.659546 419.504730,175.458710 
	C427.653656,175.310013 435.802246,175.140472 443.951599,175.019699 
	C447.552826,174.966324 451.155487,175.010696 454.653442,175.010696 
	C454.653442,171.671677 454.653442,168.937363 454.653442,165.711090 
	C450.495148,165.711090 446.632233,165.711090 442.222382,165.711090 
	C450.279144,156.943527 453.645081,147.358994 451.435608,136.298553 
	C448.820190,123.205643 437.723999,112.377838 425.055786,110.082214 
	C411.171570,107.566246 397.921173,113.331940 390.189880,125.253502 
	C382.744904,136.733582 383.373138,150.347031 392.347595,163.136551 
M625.741699,111.102776 
	C612.175781,116.282242 605.073914,126.412315 604.173828,140.619858 
	C603.325317,154.014282 608.530518,164.854828 620.577576,171.310150 
	C632.470764,177.683044 644.440308,176.936401 656.337402,169.679626 
	C655.034607,166.923874 653.859802,164.438919 652.670837,161.924042 
	C638.947449,170.119736 624.782349,165.890732 618.712280,158.343277 
	C611.537720,149.422409 611.092285,135.350403 618.926453,126.602554 
	C622.187683,122.960892 626.896973,119.934029 631.535461,118.366371 
	C638.622070,115.971336 645.511719,118.396538 651.917603,123.022087 
	C653.173340,119.944366 654.261108,117.278374 655.396301,114.496170 
	C645.889709,109.305527 636.432190,108.291672 625.741699,111.102776 
M791.201599,175.924698 
	C792.658997,175.600677 794.149353,175.381760 795.568481,174.935928 
	C806.228760,171.586777 811.491821,160.011597 807.578674,148.604095 
	C804.070557,138.377365 793.167664,133.279663 782.938965,137.313293 
	C780.092651,138.435715 777.544434,140.314377 774.489990,142.056931 
	C774.178711,140.348206 773.901001,138.823532 773.607361,137.211853 
	C771.136169,137.211853 768.888733,137.211853 766.445068,137.211853 
	C766.445068,155.817612 766.445068,174.190659 766.445068,192.642639 
	C769.354004,192.642639 772.034729,192.642639 775.233398,192.642639 
	C775.233398,185.107788 775.233398,177.943481 775.233398,170.225174 
	C779.913086,174.528824 784.705017,176.422180 791.201599,175.924698 
M555.900330,131.499969 
	C555.900330,145.924438 555.900330,160.348923 555.900330,174.870682 
	C558.898865,174.870682 561.357544,174.870682 563.749268,174.870682 
	C565.865234,169.205093 560.663452,161.404694 569.343445,157.598312 
	C571.843201,161.378326 574.794739,164.857758 576.633057,168.849808 
	C579.458130,174.984741 583.869507,176.149765 590.243530,174.481171 
	C585.127747,167.140488 580.133850,159.974655 575.060974,152.695496 
	C579.693726,148.931778 584.130554,145.327225 588.741821,141.580917 
	C586.798767,139.942535 585.282715,138.664215 583.651001,137.288376 
	C577.364197,142.197678 571.208984,147.004257 564.182312,152.491348 
	C564.182312,135.816422 564.182312,120.541481 564.182312,105.290588 
	C561.252258,105.290588 558.675964,105.290588 555.900330,105.290588 
	C555.900330,113.890381 555.900330,122.195175 555.900330,131.499969 
M744.480042,169.969406 
	C751.540588,161.161743 751.768799,150.279434 745.052795,142.658188 
	C738.700256,135.449188 726.777527,133.841125 718.085632,139.021042 
	C709.747559,143.990112 706.320312,154.522552 710.001099,163.866074 
	C715.059998,176.707855 731.958252,180.000381 744.480042,169.969406 
M504.559570,137.984650 
	C502.975891,138.064255 501.392212,138.143860 499.577698,138.235077 
	C499.577698,142.107208 499.764008,145.600708 499.530212,149.065872 
	C499.242004,153.337326 499.218262,157.776642 497.965393,161.795914 
	C496.313263,167.096085 491.216736,169.893555 486.748047,168.847946 
	C481.257019,167.563110 481.582520,163.093689 481.571472,158.891632 
	C481.553314,151.982498 481.566589,145.073288 481.566589,138.344620 
	C478.273224,138.344620 475.718231,138.344620 473.032410,138.344620 
	C473.032410,146.850601 472.985504,154.997253 473.044739,163.143143 
	C473.113403,172.590866 479.858002,178.077423 488.929321,175.486816 
	C492.839569,174.370102 496.308380,171.707764 499.863800,169.808472 
	C500.014099,171.176559 500.207062,172.933014 500.400513,174.693878 
	C503.090607,174.693878 505.470367,174.693878 508.013611,174.693878 
	C508.013611,163.233734 508.078125,152.093475 507.903809,140.956924 
	C507.888123,139.954071 506.329620,138.975357 504.559570,137.984650 
M827.797119,155.734207 
	C831.310425,157.180939 835.022644,158.292725 838.254700,160.212860 
	C839.921143,161.202896 841.866638,163.818161 841.612183,165.355972 
	C841.358826,166.887344 838.431335,169.156662 836.815125,169.047485 
	C832.908020,168.783539 829.081787,167.321793 824.677185,166.204468 
	C824.200073,166.845993 823.135925,168.276932 822.097046,169.673920 
	C827.335083,175.296844 837.034851,177.177383 843.707520,173.950668 
	C848.177795,171.788986 850.413818,168.114426 850.502747,163.207108 
	C850.589539,158.416351 847.848450,155.531036 843.662292,153.819244 
	C841.212646,152.817535 838.470947,152.320892 836.297424,150.919601 
	C834.586243,149.816345 833.543152,147.676804 832.203308,145.997543 
	C834.265381,144.678711 836.288208,142.372833 838.399414,142.288925 
	C841.085938,142.182205 843.843933,143.874695 846.730591,144.845139 
	C847.585571,143.354492 848.455261,141.838181 849.372864,140.238358 
	C844.373718,136.072876 838.866150,135.236603 833.163086,136.354172 
	C823.581848,138.231735 820.646851,147.933151 827.797119,155.734207 
M674.219910,158.497803 
	C674.219910,163.924377 674.219910,169.350952 674.219910,174.756104 
	C677.385315,174.756104 679.965393,174.756104 682.897095,174.756104 
	C682.897095,168.881104 682.801514,163.267242 682.922241,157.658035 
	C683.060913,151.210144 686.539734,146.711395 692.657959,144.788834 
	C694.156616,144.317902 695.692810,143.966614 697.139954,143.579544 
	C697.279480,140.937103 697.400452,138.646423 697.521423,136.355743 
	C697.156616,135.940872 696.791748,135.526016 696.426941,135.111160 
	C691.788025,138.017487 687.149109,140.923798 682.313904,143.953094 
	C682.172729,142.137375 682.023682,140.220688 681.875000,138.308624 
	C679.242676,138.308624 676.863220,138.308624 674.219910,138.308624 
	C674.219910,144.925568 674.219910,151.212173 674.219910,158.497803 
M536.181091,153.502472 
	C536.181091,148.408508 536.181091,143.314545 536.181091,138.200516 
	C533.159729,138.200516 530.729858,138.200516 528.107056,138.200516 
	C528.107056,150.466736 528.107056,162.532928 528.107056,174.713440 
	C530.866089,174.713440 533.418579,174.713440 535.916870,174.713440 
	C536.035889,174.115463 536.151917,173.802048 536.152832,173.488327 
	C536.170227,167.159302 536.174316,160.830261 536.181091,153.502472 
M264.942963,186.223969 
	C262.553619,187.217834 259.537109,187.656982 257.995026,189.400299 
	C256.964355,190.565491 257.246368,194.211777 258.364075,195.610703 
	C259.651337,197.221817 262.738098,198.616058 264.615570,198.195374 
	C266.538696,197.764465 269.237122,195.036163 269.253693,193.291168 
	C269.275085,191.038345 266.970978,188.763458 264.942963,186.223969 
M277.368713,225.568604 
	C279.420990,223.737030 282.050903,222.218674 283.284698,219.943298 
	C283.912598,218.785324 282.546356,215.444794 281.152252,214.567352 
	C279.364594,213.442200 276.178436,212.897598 274.452637,213.780182 
	C272.748596,214.651627 271.366608,217.548553 271.181213,219.673615 
	C270.888000,223.034744 273.288696,224.994736 277.368713,225.568604 
M316.256683,175.001648 
	C311.326691,173.364288 307.223450,174.934937 307.217529,179.089203 
	C307.214233,181.394058 308.869385,184.821487 310.734253,185.691711 
	C312.575226,186.550827 316.380096,185.605881 317.972565,184.060440 
	C320.738953,181.375702 319.830688,177.986053 316.256683,175.001648 
M250.709564,167.043365 
	C250.288803,171.164124 251.934067,173.879456 256.215851,174.156586 
	C259.607880,174.376114 262.381256,172.524780 262.278656,169.119965 
	C262.214203,166.980377 260.597412,164.066620 258.787720,162.976212 
	C255.314651,160.883575 252.584595,162.944748 250.709564,167.043365 
M287.944244,242.250900 
	C291.814392,245.400146 294.966461,245.543442 297.382751,242.522018 
	C299.588837,239.763519 299.541351,236.574081 296.833038,234.593323 
	C295.188751,233.390762 292.055023,232.967056 290.134583,233.673264 
	C286.620300,234.965591 286.192963,238.202744 287.944244,242.250900 
M306.329956,253.079819 
	C305.496552,256.551422 306.712921,259.364624 310.102783,260.059692 
	C311.936798,260.435760 314.778473,259.514709 316.067688,258.145233 
	C318.440125,255.625092 318.000336,252.371140 315.106903,250.326523 
	C311.787872,247.981186 308.819641,249.001434 306.329956,253.079819 
M323.438812,190.854294 
	C318.504883,191.766342 316.065979,194.530518 317.874634,197.948883 
	C318.834991,199.763947 321.532806,201.780518 323.358826,201.700836 
	C325.176483,201.621521 327.774200,199.349442 328.442871,197.473236 
	C329.590057,194.254379 327.704041,191.784546 323.438812,190.854294 
M256.096283,148.872452 
	C257.397095,146.666977 259.365906,144.562286 259.720154,142.214020 
	C259.900391,141.019119 257.410522,138.646072 255.715179,138.109909 
	C252.488800,137.089554 249.864243,138.591507 249.040955,142.124603 
	C248.166367,145.877777 250.263611,148.088638 256.096283,148.872452 
M308.981995,156.659790 
	C304.300354,154.963211 301.009277,155.917938 300.154755,159.452179 
	C299.275055,163.090530 300.765747,165.888885 304.473969,166.390701 
	C306.214600,166.626251 309.329895,165.556366 309.802551,164.311325 
	C310.584045,162.252716 309.730103,159.573257 308.981995,156.659790 
M337.402771,263.342987 
	C334.241425,260.662231 330.917603,260.983826 329.149902,264.407410 
	C328.288574,266.075623 329.153748,269.558563 330.505951,271.124939 
	C331.422943,272.187195 334.921722,272.066681 336.601257,271.194855 
	C339.585327,269.645813 339.423126,266.713104 337.402771,263.342987 
M255.922485,113.299088 
	C254.633850,115.365829 252.722366,117.318703 252.315048,119.546562 
	C252.106277,120.688492 254.370377,123.081459 255.911865,123.519722 
	C257.452789,123.957809 259.936127,123.139664 261.165497,121.980469 
	C262.196503,121.008308 262.866913,118.143929 262.188873,117.195526 
	C260.928772,115.432953 258.569611,114.456093 255.922485,113.299088 
M289.275757,173.699829 
	C286.748169,176.889557 286.694672,179.961090 290.506531,181.933838 
	C293.519409,183.493088 296.236938,182.194489 297.184814,178.990891 
	C297.612244,177.546204 297.108459,174.766220 296.110504,174.195755 
	C294.404449,173.220566 291.976715,173.507858 289.275757,173.699829 
M260.271088,96.933998 
	C262.183929,97.864273 264.556885,99.962593 265.895599,99.435295 
	C267.650848,98.743935 269.782806,95.810867 269.546448,94.157295 
	C269.308380,92.491348 266.392883,90.048775 264.607727,90.011772 
	C261.205200,89.941261 259.474274,92.553703 260.271088,96.933998 
M286.914948,199.238586 
	C288.427673,194.448227 286.295410,190.721756 282.328888,191.658295 
	C280.714233,192.039520 278.662231,193.664597 278.238922,195.135269 
	C277.805298,196.641800 278.717560,199.832062 279.757599,200.187454 
	C281.718384,200.857452 284.193848,200.021362 286.914948,199.238586 
M281.064209,156.526428 
	C281.521423,160.163437 283.257294,162.849411 287.176422,161.519089 
	C288.836090,160.955719 290.508240,158.386185 290.792603,156.518097 
	C290.988678,155.229675 289.108154,152.829941 287.634369,152.248657 
	C284.593414,151.049255 282.181305,152.485825 281.064209,156.526428 
M271.384827,169.161789 
	C269.052155,171.804657 269.304932,174.718857 271.970184,176.441025 
	C273.436005,177.388184 276.802185,177.310669 277.995300,176.235077 
	C279.236694,175.115921 279.757690,171.873260 279.055176,170.208328 
	C277.746002,167.105865 274.861755,166.848557 271.384827,169.161789 
M298.230225,140.968811 
	C297.606720,145.204605 299.850311,147.712067 303.676300,147.191467 
	C305.338531,146.965286 307.147217,143.771347 307.747192,141.608490 
	C308.018341,140.631058 305.556458,137.807251 304.234955,137.738602 
	C302.386047,137.642532 300.444061,139.338654 298.230225,140.968811 
M335.573395,215.058899 
	C339.030914,215.143173 341.230896,213.266861 340.735260,210.031998 
	C340.463257,208.256561 338.263245,205.736710 336.645844,205.498383 
	C335.013885,205.257919 332.157745,207.009735 331.387360,208.626831 
	C330.022430,211.491928 331.337280,214.079544 335.573395,215.058899 
M357.440430,269.881409 
	C352.877991,270.931213 350.743286,273.837891 352.804016,276.793121 
	C353.819366,278.249207 356.218323,279.569366 357.906952,279.473083 
	C359.338837,279.391449 361.331879,277.420624 361.867004,275.868683 
	C362.873932,272.948517 361.222198,270.865417 357.440430,269.881409 
M269.847900,142.305679 
	C265.740265,145.083389 264.802979,148.378799 267.857727,150.409622 
	C269.227783,151.320465 271.733490,151.594864 273.202240,150.957016 
	C274.447144,150.416336 276.002380,147.530884 275.557587,146.765381 
	C274.472992,144.898788 272.307892,143.660065 269.847900,142.305679 
M378.910706,274.354004 
	C376.649902,276.665558 376.398590,279.393951 378.930328,281.221222 
	C380.283264,282.197723 383.352478,282.353088 384.620117,281.445160 
	C385.843323,280.569031 386.561615,277.590454 386.054749,275.995300 
	C385.081573,272.932495 382.398132,272.507080 378.910706,274.354004 
M292.380951,216.205994 
	C291.394440,219.862778 292.328888,222.697189 296.435547,222.826767 
	C297.957489,222.874771 300.490265,221.234375 300.854004,219.898788 
	C301.300751,218.258484 300.352936,214.815491 299.304749,214.501831 
	C297.413269,213.935852 294.999420,215.115570 292.380951,216.205994 
M530.199097,120.399391 
	C526.876770,122.445358 525.688782,125.136719 529.157776,127.746140 
	C530.481140,128.741638 533.382690,128.774994 534.919678,127.987404 
	C536.125977,127.369263 537.335815,123.856964 536.802856,123.301689 
	C535.334778,121.772202 532.952271,121.120499 530.199097,120.399391 
M272.508362,71.160553 
	C272.144867,76.249435 274.743042,79.054802 278.322205,77.180183 
	C279.718750,76.448715 281.266418,74.593880 281.350342,73.168564 
	C281.432953,71.765953 279.917877,69.214851 278.801147,69.033730 
	C276.950226,68.733513 274.856720,69.929024 272.508362,71.160553 
M283.165466,135.425095 
	C286.600769,136.539520 289.005341,134.866028 289.333252,131.800690 
	C289.500549,130.236481 287.504456,127.928513 285.887024,126.889656 
	C285.003479,126.322159 282.370148,127.241020 281.401520,128.294586 
	C279.196899,130.692429 280.176331,133.125458 283.165466,135.425095 
M316.884644,240.745285 
	C317.525330,238.620560 318.733337,236.441147 318.536316,234.397171 
	C318.453857,233.541367 315.131165,232.104797 313.755493,232.516327 
	C312.362457,232.933029 310.686188,235.298584 310.671692,236.825104 
	C310.641541,240.006104 313.020538,241.291916 316.884644,240.745285 
M275.988495,124.267349 
	C277.608948,121.455681 277.951599,118.602287 274.439728,117.326317 
	C272.989441,116.799393 270.378601,117.545403 269.251495,118.670250 
	C268.380951,119.539062 268.375305,122.979767 269.080048,123.388359 
	C270.883911,124.434143 273.298737,124.426125 275.988495,124.267349 
M304.479645,196.000610 
	C301.140747,196.419250 299.050201,198.299057 300.150269,201.590302 
	C300.652435,203.092636 303.091858,204.736298 304.730713,204.821960 
	C306.058228,204.891342 308.796906,202.485535 308.632477,201.600815 
	C308.261200,199.603149 306.480865,197.867371 304.479645,196.000610 
M346.895294,221.397110 
	C347.096405,224.427444 348.895325,226.192917 351.701691,225.498703 
	C353.202972,225.127335 355.153229,223.058548 355.274109,221.619156 
	C355.392151,220.213913 353.740906,217.839813 352.330658,217.305878 
	C349.792175,216.344788 347.484344,217.435242 346.895294,221.397110 
M288.730621,55.028992 
	C290.413208,55.996342 292.031464,57.496399 293.805023,57.710670 
	C294.718384,57.821011 296.566467,55.755924 296.789520,54.465897 
	C297.015991,53.156139 296.137329,51.178959 295.082916,50.217838 
	C292.448975,47.816948 289.691620,49.634251 288.730621,55.028992 
M410.657196,274.056091 
	C408.614075,273.540497 406.536224,272.577393 404.545166,272.732025 
	C403.760864,272.792969 402.368835,275.577728 402.692627,276.710938 
	C403.105652,278.156525 404.823578,279.968719 406.247528,280.246490 
	C410.419586,281.060303 411.331757,278.317902 410.657196,274.056091 
M304.378174,127.998611 
	C307.989258,126.899055 309.966614,124.732513 307.661774,121.137817 
	C306.923889,119.987015 304.496490,119.216270 303.036133,119.455582 
	C301.878845,119.645241 299.996918,121.925835 300.233490,122.780739 
	C300.759491,124.681435 302.412048,126.270378 304.378174,127.998611 
M333.874481,253.806534 
	C336.796417,255.734039 339.579834,255.296707 340.538971,252.018387 
	C340.958649,250.583984 339.179779,248.197113 337.857849,246.730942 
	C337.398102,246.221008 334.452179,246.810730 334.135162,247.543945 
	C333.400635,249.242676 333.577423,251.335449 333.874481,253.806534 
M283.790405,94.916496 
	C282.385040,92.533295 280.386139,90.904877 277.813141,92.715126 
	C276.655884,93.529305 275.729950,95.881149 276.039215,97.227440 
	C276.342529,98.547974 279.166962,100.610710 279.469238,100.391891 
	C281.200897,99.138466 282.510773,97.302361 283.790405,94.916496 
M286.154663,103.562630 
	C285.041840,106.342216 285.622803,108.786285 288.569427,109.526787 
	C289.934692,109.869881 292.575043,108.929451 293.110107,107.828613 
	C293.782074,106.446060 293.495941,103.833450 292.536713,102.589607 
	C290.809021,100.349266 288.453979,100.916458 286.154663,103.562630 
M319.889069,224.227203 
	C323.718628,224.677185 325.711975,222.921783 325.005310,219.165802 
	C324.778107,217.958267 322.936859,216.402176 321.664490,216.225281 
	C320.368622,216.045120 317.693817,217.333969 317.674072,218.037216 
	C317.618835,220.002686 318.624420,221.997940 319.889069,224.227203 
M357.721832,257.375092 
	C358.069946,259.126770 357.948486,261.254791 358.939392,262.491333 
	C359.549866,263.253113 362.127563,263.152618 363.318634,262.508453 
	C364.268036,261.995026 365.150879,259.882843 364.856964,258.811188 
	C363.800720,254.959854 361.246002,254.617828 357.721832,257.375092 
M433.533051,266.750336 
	C431.503265,267.043945 429.473480,267.337555 427.443726,267.631165 
	C427.703735,269.297607 427.470490,271.360321 428.386108,272.500031 
	C429.068512,273.349365 432.270142,273.588806 432.554810,273.085175 
	C433.506195,271.402161 433.650452,269.262909 433.533051,266.750336 
M339.231476,237.989929 
	C341.216431,237.865173 343.291138,238.013031 345.118927,237.411026 
	C345.540375,237.272217 345.662476,234.160217 344.920959,233.155304 
	C344.226074,232.213531 342.010620,231.617920 340.807068,231.987198 
	C338.221588,232.780426 337.341644,234.815948 339.231476,237.989929 
M297.478943,79.799370 
	C297.814392,81.684074 298.149841,83.568771 298.485291,85.453484 
	C300.129822,85.151733 302.229248,85.345924 303.272614,84.388817 
	C304.084259,83.644302 304.087646,80.367928 303.566681,80.126961 
	C301.919983,79.365265 299.858154,79.501030 297.478943,79.799370 
M314.568207,41.095238 
	C314.607605,39.080803 314.983978,36.974609 314.476013,35.109226 
	C314.328339,34.566921 311.131775,34.039642 310.263580,34.710335 
	C309.119019,35.594494 308.030792,38.719765 308.424225,39.041786 
	C309.926392,40.271332 312.032837,40.762596 314.568207,41.095238 
M289.826874,76.629807 
	C291.801208,76.230705 293.890656,76.074913 295.658020,75.238464 
	C296.036346,75.059418 295.751587,71.712585 294.870056,71.077599 
	C293.721649,70.250313 290.678436,70.009201 290.220184,70.696236 
	C289.284912,72.098351 289.532715,74.289635 289.826874,76.629807 
M330.396606,25.793182 
	C331.650208,27.197073 332.717743,28.928368 334.268372,29.809589 
	C334.746826,30.081493 337.249725,28.203487 337.533875,27.003874 
	C337.812592,25.827227 336.317047,23.034039 335.828156,23.086214 
	C334.047302,23.276279 332.361816,24.360136 330.396606,25.793182 
M387.891602,266.427948 
	C388.641632,264.822113 389.743134,263.263458 389.968170,261.587158 
	C390.057770,260.919434 388.195007,259.326874 387.246124,259.346802 
	C386.001740,259.372955 384.155304,260.284912 383.667694,261.329376 
	C382.117249,264.650421 383.997314,266.225922 387.891602,266.427948 
M308.624054,108.951927 
	C311.600647,108.724464 313.314758,107.235390 312.338226,104.215225 
	C311.971985,103.082504 310.253387,101.583855 309.254517,101.657204 
	C307.933319,101.754211 305.684174,103.224335 305.678162,104.116676 
	C305.667694,105.665184 307.071716,107.223221 308.624054,108.951927 
M308.839294,57.712250 
	C310.222595,56.426239 311.920288,55.315617 312.795654,53.746281 
	C313.054901,53.281460 311.184235,50.944759 309.941956,50.544373 
	C308.962616,50.228737 306.329498,51.670650 306.373627,52.154793 
	C306.538177,53.959118 307.503693,55.690407 308.839294,57.712250 
M450.285797,256.525238 
	C450.786255,258.326660 451.014984,260.299805 451.971344,261.813080 
	C452.221710,262.209229 455.133026,261.586426 456.073792,260.666321 
	C456.781586,259.974091 456.706024,257.048615 456.263763,256.867889 
	C454.606049,256.190430 452.654541,256.231964 450.285797,256.525238 
M371.759186,230.220337 
	C370.681244,228.679688 369.603302,227.139038 368.525391,225.598389 
	C367.276733,226.481293 365.333282,227.150696 364.977631,228.308029 
	C364.632141,229.432281 365.755463,232.123306 366.516998,232.237473 
	C368.048767,232.467178 369.773224,231.412140 371.759186,230.220337 
M362.708038,243.958908 
	C363.447205,245.535858 363.947266,247.332382 365.071106,248.556061 
	C365.408600,248.923569 368.190399,248.011612 368.589844,247.120071 
	C369.126495,245.922363 368.438110,244.175797 368.275574,242.664825 
	C366.528107,242.873627 364.780609,243.082428 362.708038,243.958908 
M318.555481,64.703743 
	C320.459137,62.606640 320.662781,60.299801 318.099030,58.954090 
	C317.010864,58.382900 314.428986,58.993977 313.572449,59.978325 
	C311.560913,62.289936 313.649292,64.624283 318.555481,64.703743 
M409.689911,262.623901 
	C411.393524,262.922333 413.133148,263.521149 414.777435,263.324219 
	C415.232117,263.269745 415.987854,260.584595 415.538605,259.586823 
	C415.097504,258.607208 412.605713,257.425354 412.224579,257.750671 
	C410.968018,258.823212 410.259644,260.537964 409.689911,262.623901 
M326.901123,37.787933 
	C327.876678,39.190117 328.669983,40.820072 329.948792,41.843204 
	C330.292358,42.118088 332.697144,40.772762 333.091522,39.757694 
	C333.482056,38.752586 332.605804,36.152306 332.151367,36.119762 
	C330.503754,36.001762 328.799927,36.668255 326.901123,37.787933 
M470.830505,243.538605 
	C471.981171,244.638977 473.131805,245.739349 474.282440,246.839737 
	C475.185516,245.811935 476.574249,244.890350 476.829987,243.720993 
	C477.016937,242.866165 475.562653,240.748840 475.102325,240.822998 
	C473.638519,241.058838 472.297516,242.056793 470.830505,243.538605 
M436.707184,256.567627 
	C438.010864,255.594589 439.615112,254.816925 440.446930,253.537170 
	C440.719330,253.118057 439.196838,250.916443 438.096832,250.429047 
	C437.312164,250.081375 434.917603,251.186844 434.889526,251.729172 
	C434.811737,253.231750 435.596436,254.778961 436.707184,256.567627 
M393.376495,251.878677 
	C393.431396,250.294006 393.742737,248.645782 393.375885,247.165634 
	C393.273560,246.752701 390.758179,246.302475 390.080658,246.822174 
	C389.154755,247.532410 388.927856,249.153915 388.401337,250.384811 
	C389.863251,251.004379 391.325165,251.623962 393.376495,251.878677 
M334.613983,43.154823 
	C334.549377,44.728870 334.217590,46.370274 334.586823,47.834942 
	C334.694244,48.261036 337.205994,48.719864 337.899536,48.202950 
	C338.836121,47.504860 339.080994,45.878658 339.622650,44.650688 
	C338.157135,44.046005 336.691589,43.441326 334.613983,43.154823 
M355.694305,25.666069 
	C354.141266,25.908741 352.474304,25.909306 351.109436,26.551775 
	C350.733582,26.728701 350.838837,29.198078 351.491882,29.928076 
	C352.126923,30.638033 354.516235,30.988556 354.790924,30.584036 
	C355.612488,29.374222 355.775696,27.717316 355.694305,25.666069 
M385.765472,231.106644 
	C385.098602,232.533417 384.260193,233.920258 383.910828,235.420944 
	C383.841675,235.718063 385.772858,237.017410 386.564514,236.846848 
	C387.628998,236.617523 389.404480,234.994293 389.268707,234.692886 
	C388.651306,233.322388 387.470245,232.205795 385.765472,231.106644 
M319.267548,90.335808 
	C320.813965,87.667801 320.125580,85.646576 317.095947,85.332581 
	C316.178833,85.237518 314.164612,87.274147 314.173309,88.321724 
	C314.197174,91.191780 316.242676,91.753220 319.267548,90.335808 
M457.689545,239.131744 
	C456.394440,241.763672 457.358093,243.502319 460.099091,243.606140 
	C461.013031,243.640762 462.852325,241.754913 462.790283,240.848129 
	C462.600342,238.071960 460.721649,237.352173 457.689545,239.131744 
M363.785645,21.940105 
	C365.178772,21.195976 366.782013,20.658737 367.839844,19.584440 
	C368.166565,19.252615 367.295166,16.972927 366.447510,16.470423 
	C365.612122,15.975169 363.167511,16.375372 363.071533,16.776140 
	C362.712738,18.274088 363.027527,19.933371 363.785645,21.940105 
M383.067566,20.699833 
	C384.488129,20.831497 385.967346,21.232922 387.296509,20.944019 
	C387.743225,20.846920 388.327942,18.666185 387.922150,18.022303 
	C387.356934,17.125507 385.919952,16.778175 384.856049,16.195681 
	C384.168488,17.485641 383.480927,18.775600 383.067566,20.699833 
M357.224213,35.094051 
	C358.741119,35.627613 360.258057,36.161175 361.774963,36.694736 
	C361.748444,35.267109 361.721924,33.839481 361.695404,32.411854 
	C360.190002,33.063400 358.684601,33.714947 357.224213,35.094051 
z"/>
<path fill="#060606" opacity="1.000000" stroke="none" 
	d="
M392.129761,162.852844 
	C383.373138,150.347031 382.744904,136.733582 390.189880,125.253502 
	C397.921173,113.331940 411.171570,107.566246 425.055786,110.082214 
	C437.723999,112.377838 448.820190,123.205643 451.435608,136.298553 
	C453.645081,147.358994 450.279144,156.943527 442.222382,165.711090 
	C446.632233,165.711090 450.495148,165.711090 454.653442,165.711090 
	C454.653442,168.937363 454.653442,171.671677 454.653442,175.010696 
	C451.155487,175.010696 447.552826,174.966324 443.951599,175.019699 
	C435.802246,175.140472 427.653656,175.310013 419.504730,175.458710 
	C408.497772,175.659546 399.466705,171.504745 392.129761,162.852844 
M395.287567,149.845016 
	C395.893951,151.206131 396.407227,152.618286 397.121368,153.920319 
	C402.902527,164.460800 416.266144,169.235870 427.676727,164.875519 
	C438.822235,160.616455 445.152832,148.564270 442.290039,137.054642 
	C439.027618,123.938301 426.178192,116.145477 412.776184,119.155251 
	C399.624908,122.108711 392.161469,134.716415 395.287567,149.845016 
z"/>
<path fill="#080808" opacity="1.000000" stroke="none" 
	d="
M626.133667,111.021179 
	C636.432190,108.291672 645.889709,109.305527 655.396301,114.496170 
	C654.261108,117.278374 653.173340,119.944366 651.917603,123.022087 
	C645.511719,118.396538 638.622070,115.971336 631.535461,118.366371 
	C626.896973,119.934029 622.187683,122.960892 618.926453,126.602554 
	C611.092285,135.350403 611.537720,149.422409 618.712280,158.343277 
	C624.782349,165.890732 638.947449,170.119736 652.670837,161.924042 
	C653.859802,164.438919 655.034607,166.923874 656.337402,169.679626 
	C644.440308,176.936401 632.470764,177.683044 620.577576,171.310150 
	C608.530518,164.854828 603.325317,154.014282 604.173828,140.619858 
	C605.073914,126.412315 612.175781,116.282242 626.133667,111.021179 
z"/>
<path fill="#0B0B0B" opacity="1.000000" stroke="none" 
	d="
M790.763916,175.947510 
	C784.705017,176.422180 779.913086,174.528824 775.233398,170.225174 
	C775.233398,177.943481 775.233398,185.107788 775.233398,192.642639 
	C772.034729,192.642639 769.354004,192.642639 766.445068,192.642639 
	C766.445068,174.190659 766.445068,155.817612 766.445068,137.211853 
	C768.888733,137.211853 771.136169,137.211853 773.607361,137.211853 
	C773.901001,138.823532 774.178711,140.348206 774.489990,142.056931 
	C777.544434,140.314377 780.092651,138.435715 782.938965,137.313293 
	C793.167664,133.279663 804.070557,138.377365 807.578674,148.604095 
	C811.491821,160.011597 806.228760,171.586777 795.568481,174.935928 
	C794.149353,175.381760 792.658997,175.600677 790.763916,175.947510 
M788.220947,168.949356 
	C797.488525,166.801971 802.045776,159.968613 799.519409,152.007843 
	C797.549561,145.800644 791.565063,142.106949 785.182251,143.158798 
	C778.070984,144.330704 774.379822,149.719971 774.872253,158.212051 
	C775.241821,164.586548 779.677673,168.399231 788.220947,168.949356 
z"/>
<path fill="#030303" opacity="1.000000" stroke="none" 
	d="
M555.900330,130.999969 
	C555.900330,122.195175 555.900330,113.890381 555.900330,105.290588 
	C558.675964,105.290588 561.252258,105.290588 564.182312,105.290588 
	C564.182312,120.541481 564.182312,135.816422 564.182312,152.491348 
	C571.208984,147.004257 577.364197,142.197678 583.651001,137.288376 
	C585.282715,138.664215 586.798767,139.942535 588.741821,141.580917 
	C584.130554,145.327225 579.693726,148.931778 575.060974,152.695496 
	C580.133850,159.974655 585.127747,167.140488 590.243530,174.481171 
	C583.869507,176.149765 579.458130,174.984741 576.633057,168.849808 
	C574.794739,164.857758 571.843201,161.378326 569.343445,157.598312 
	C560.663452,161.404694 565.865234,169.205093 563.749268,174.870682 
	C561.357544,174.870682 558.898865,174.870682 555.900330,174.870682 
	C555.900330,160.348923 555.900330,145.924438 555.900330,130.999969 
z"/>
<path fill="#080808" opacity="1.000000" stroke="none" 
	d="
M744.223022,170.226685 
	C731.958252,180.000381 715.059998,176.707855 710.001099,163.866074 
	C706.320312,154.522552 709.747559,143.990112 718.085632,139.021042 
	C726.777527,133.841125 738.700256,135.449188 745.052795,142.658188 
	C751.768799,150.279434 751.540588,161.161743 744.223022,170.226685 
M720.408447,165.038528 
	C721.737976,166.014771 722.956482,167.221771 724.417419,167.924942 
	C729.238281,170.245178 734.907654,168.814484 738.327454,164.603638 
	C742.041321,160.030701 742.194214,152.611877 738.672241,147.872559 
	C735.311096,143.349731 729.453979,141.767471 724.452393,144.031113 
	C719.395813,146.319656 716.127991,152.396393 717.274475,158.091751 
	C717.718628,160.298325 719.022522,162.331833 720.408447,165.038528 
z"/>
<path fill="#080808" opacity="1.000000" stroke="none" 
	d="
M505.023621,137.985046 
	C506.329620,138.975357 507.888123,139.954071 507.903809,140.956924 
	C508.078125,152.093475 508.013611,163.233734 508.013611,174.693878 
	C505.470367,174.693878 503.090607,174.693878 500.400513,174.693878 
	C500.207062,172.933014 500.014099,171.176559 499.863800,169.808472 
	C496.308380,171.707764 492.839569,174.370102 488.929321,175.486816 
	C479.858002,178.077423 473.113403,172.590866 473.044739,163.143143 
	C472.985504,154.997253 473.032410,146.850601 473.032410,138.344620 
	C475.718231,138.344620 478.273224,138.344620 481.566589,138.344620 
	C481.566589,145.073288 481.553314,151.982498 481.571472,158.891632 
	C481.582520,163.093689 481.257019,167.563110 486.748047,168.847946 
	C491.216736,169.893555 496.313263,167.096085 497.965393,161.795914 
	C499.218262,157.776642 499.242004,153.337326 499.530212,149.065872 
	C499.764008,145.600708 499.577698,142.107208 499.577698,138.235077 
	C501.392212,138.143860 502.975891,138.064255 505.023621,137.985046 
z"/>
<path fill="#090909" opacity="1.000000" stroke="none" 
	d="
M827.520508,155.495575 
	C820.646851,147.933151 823.581848,138.231735 833.163086,136.354172 
	C838.866150,135.236603 844.373718,136.072876 849.372864,140.238358 
	C848.455261,141.838181 847.585571,143.354492 846.730591,144.845139 
	C843.843933,143.874695 841.085938,142.182205 838.399414,142.288925 
	C836.288208,142.372833 834.265381,144.678711 832.203308,145.997559 
	C833.543152,147.676804 834.586243,149.816345 836.297424,150.919601 
	C838.470947,152.320892 841.212646,152.817535 843.662292,153.819244 
	C847.848450,155.531036 850.589539,158.416351 850.502747,163.207108 
	C850.413818,168.114426 848.177795,171.788986 843.707520,173.950668 
	C837.034851,177.177383 827.335083,175.296844 822.097046,169.673920 
	C823.135925,168.276932 824.200073,166.845993 824.677185,166.204468 
	C829.081787,167.321793 832.908020,168.783539 836.815125,169.047485 
	C838.431335,169.156662 841.358826,166.887344 841.612183,165.355972 
	C841.866638,163.818161 839.921143,161.202896 838.254700,160.212860 
	C835.022644,158.292725 831.310425,157.180939 827.520508,155.495575 
z"/>
<path fill="#0D0D0D" opacity="1.000000" stroke="none" 
	d="
M674.219910,157.998291 
	C674.219910,151.212173 674.219910,144.925568 674.219910,138.308624 
	C676.863220,138.308624 679.242676,138.308624 681.875000,138.308624 
	C682.023682,140.220688 682.172729,142.137375 682.313904,143.953094 
	C687.149109,140.923798 691.788025,138.017487 696.426941,135.111160 
	C696.791748,135.526016 697.156616,135.940872 697.521423,136.355743 
	C697.400452,138.646423 697.279480,140.937103 697.139954,143.579544 
	C695.692810,143.966614 694.156616,144.317902 692.657959,144.788834 
	C686.539734,146.711395 683.060913,151.210144 682.922241,157.658035 
	C682.801514,163.267242 682.897095,168.881104 682.897095,174.756104 
	C679.965393,174.756104 677.385315,174.756104 674.219910,174.756104 
	C674.219910,169.350952 674.219910,163.924377 674.219910,157.998291 
z"/>
<path fill="#000000" opacity="1.000000" stroke="none" 
	d="
M536.181091,154.001846 
	C536.174316,160.830261 536.170227,167.159302 536.152832,173.488327 
	C536.151917,173.802048 536.035889,174.115463 535.916870,174.713440 
	C533.418579,174.713440 530.866089,174.713440 528.107056,174.713440 
	C528.107056,162.532928 528.107056,150.466736 528.107056,138.200516 
	C530.729858,138.200516 533.159729,138.200516 536.181091,138.200516 
	C536.181091,143.314545 536.181091,148.408508 536.181091,154.001846 
z"/>
<path fill="#615AE0" opacity="1.000000" stroke="none" 
	d="
M265.305634,186.361023 
	C266.970978,188.763458 269.275085,191.038345 269.253693,193.291168 
	C269.237122,195.036163 266.538696,197.764465 264.615570,198.195374 
	C262.738098,198.616058 259.651337,197.221817 258.364075,195.610703 
	C257.246368,194.211777 256.964355,190.565491 257.995026,189.400299 
	C259.537109,187.656982 262.553619,187.217834 265.305634,186.361023 
z"/>
<path fill="#5F58DF" opacity="1.000000" stroke="none" 
	d="
M276.998169,225.571289 
	C273.288696,224.994736 270.888000,223.034744 271.181213,219.673615 
	C271.366608,217.548553 272.748596,214.651627 274.452637,213.780182 
	C276.178436,212.897598 279.364594,213.442200 281.152252,214.567352 
	C282.546356,215.444794 283.912598,218.785324 283.284698,219.943298 
	C282.050903,222.218674 279.420990,223.737030 276.998169,225.571289 
z"/>
<path fill="#5F58DF" opacity="1.000000" stroke="none" 
	d="
M316.582489,175.194382 
	C319.830688,177.986053 320.738953,181.375702 317.972565,184.060440 
	C316.380096,185.605881 312.575226,186.550827 310.734253,185.691711 
	C308.869385,184.821487 307.214233,181.394058 307.217529,179.089203 
	C307.223450,174.934937 311.326691,173.364288 316.582489,175.194382 
z"/>
<path fill="#6059DF" opacity="1.000000" stroke="none" 
	d="
M250.805756,166.692093 
	C252.584595,162.944748 255.314651,160.883575 258.787720,162.976212 
	C260.597412,164.066620 262.214203,166.980377 262.278656,169.119965 
	C262.381256,172.524780 259.607880,174.376114 256.215851,174.156586 
	C251.934067,173.879456 250.288803,171.164124 250.805756,166.692093 
z"/>
<path fill="#5F59DF" opacity="1.000000" stroke="none" 
	d="
M287.726746,241.918808 
	C286.192963,238.202744 286.620300,234.965591 290.134583,233.673264 
	C292.055023,232.967056 295.188751,233.390762 296.833038,234.593323 
	C299.541351,236.574081 299.588837,239.763519 297.382751,242.522018 
	C294.966461,245.543442 291.814392,245.400146 287.726746,241.918808 
z"/>
<path fill="#615AE0" opacity="1.000000" stroke="none" 
	d="
M306.493652,252.733337 
	C308.819641,249.001434 311.787872,247.981186 315.106903,250.326523 
	C318.000336,252.371140 318.440125,255.625092 316.067688,258.145233 
	C314.778473,259.514709 311.936798,260.435760 310.102783,260.059692 
	C306.712921,259.364624 305.496552,256.551422 306.493652,252.733337 
z"/>
<path fill="#5F59DF" opacity="1.000000" stroke="none" 
	d="
M323.838684,190.870605 
	C327.704041,191.784546 329.590057,194.254379 328.442871,197.473236 
	C327.774200,199.349442 325.176483,201.621521 323.358826,201.700836 
	C321.532806,201.780518 318.834991,199.763947 317.874634,197.948883 
	C316.065979,194.530518 318.504883,191.766342 323.838684,190.870605 
z"/>
<path fill="#5D57DF" opacity="1.000000" stroke="none" 
	d="
M255.703705,148.928772 
	C250.263611,148.088638 248.166367,145.877777 249.040955,142.124603 
	C249.864243,138.591507 252.488800,137.089554 255.715179,138.109909 
	C257.410522,138.646072 259.900391,141.019119 259.720154,142.214020 
	C259.365906,144.562286 257.397095,146.666977 255.703705,148.928772 
z"/>
<path fill="#5F59DF" opacity="1.000000" stroke="none" 
	d="
M309.273651,156.907593 
	C309.730103,159.573257 310.584045,162.252716 309.802551,164.311325 
	C309.329895,165.556366 306.214600,166.626251 304.473969,166.390701 
	C300.765747,165.888885 299.275055,163.090530 300.154755,159.452179 
	C301.009277,155.917938 304.300354,154.963211 309.273651,156.907593 
z"/>
<path fill="#625BE0" opacity="1.000000" stroke="none" 
	d="
M337.621735,263.637787 
	C339.423126,266.713104 339.585327,269.645813 336.601257,271.194855 
	C334.921722,272.066681 331.422943,272.187195 330.505951,271.124939 
	C329.153748,269.558563 328.288574,266.075623 329.149902,264.407410 
	C330.917603,260.983826 334.241425,260.662231 337.621735,263.637787 
z"/>
<path fill="#645DE0" opacity="1.000000" stroke="none" 
	d="
M256.295258,113.225601 
	C258.569611,114.456093 260.928772,115.432953 262.188873,117.195526 
	C262.866913,118.143929 262.196503,121.008308 261.165497,121.980469 
	C259.936127,123.139664 257.452789,123.957809 255.911865,123.519722 
	C254.370377,123.081459 252.106277,120.688492 252.315048,119.546562 
	C252.722366,117.318703 254.633850,115.365829 256.295258,113.225601 
z"/>
<path fill="#615AE0" opacity="1.000000" stroke="none" 
	d="
M289.563904,173.482376 
	C291.976715,173.507858 294.404449,173.220566 296.110504,174.195755 
	C297.108459,174.766220 297.612244,177.546204 297.184814,178.990891 
	C296.236938,182.194489 293.519409,183.493088 290.506531,181.933838 
	C286.694672,179.961090 286.748169,176.889557 289.563904,173.482376 
z"/>
<path fill="#625BE0" opacity="1.000000" stroke="none" 
	d="
M260.153412,96.557846 
	C259.474274,92.553703 261.205200,89.941261 264.607727,90.011772 
	C266.392883,90.048775 269.308380,92.491348 269.546448,94.157295 
	C269.782806,95.810867 267.650848,98.743935 265.895599,99.435295 
	C264.556885,99.962593 262.183929,97.864273 260.153412,96.557846 
z"/>
<path fill="#5F59DF" opacity="1.000000" stroke="none" 
	d="
M286.685150,199.524948 
	C284.193848,200.021362 281.718384,200.857452 279.757599,200.187454 
	C278.717560,199.832062 277.805298,196.641800 278.238922,195.135269 
	C278.662231,193.664597 280.714233,192.039520 282.328888,191.658295 
	C286.295410,190.721756 288.427673,194.448227 286.685150,199.524948 
z"/>
<path fill="#6059DF" opacity="1.000000" stroke="none" 
	d="
M281.100006,156.139008 
	C282.181305,152.485825 284.593414,151.049255 287.634369,152.248657 
	C289.108154,152.829941 290.988678,155.229675 290.792603,156.518097 
	C290.508240,158.386185 288.836090,160.955719 287.176422,161.519089 
	C283.257294,162.849411 281.521423,160.163437 281.100006,156.139008 
z"/>
<path fill="#615AE0" opacity="1.000000" stroke="none" 
	d="
M271.687653,168.943420 
	C274.861755,166.848557 277.746002,167.105865 279.055176,170.208328 
	C279.757690,171.873260 279.236694,175.115921 277.995300,176.235077 
	C276.802185,177.310669 273.436005,177.388184 271.970184,176.441025 
	C269.304932,174.718857 269.052155,171.804657 271.687653,168.943420 
z"/>
<path fill="#615AE0" opacity="1.000000" stroke="none" 
	d="
M298.386047,140.618408 
	C300.444061,139.338654 302.386047,137.642532 304.234955,137.738602 
	C305.556458,137.807251 308.018341,140.631058 307.747192,141.608490 
	C307.147217,143.771347 305.338531,146.965286 303.676300,147.191467 
	C299.850311,147.712067 297.606720,145.204605 298.386047,140.618408 
z"/>
<path fill="#625BE0" opacity="1.000000" stroke="none" 
	d="
M335.173706,215.021240 
	C331.337280,214.079544 330.022430,211.491928 331.387360,208.626831 
	C332.157745,207.009735 335.013885,205.257919 336.645844,205.498383 
	C338.263245,205.736710 340.463257,208.256561 340.735260,210.031998 
	C341.230896,213.266861 339.030914,215.143173 335.173706,215.021240 
z"/>
<path fill="#615AE0" opacity="1.000000" stroke="none" 
	d="
M357.838379,269.934692 
	C361.222198,270.865417 362.873932,272.948517 361.867004,275.868683 
	C361.331879,277.420624 359.338837,279.391449 357.906952,279.473083 
	C356.218323,279.569366 353.819366,278.249207 352.804016,276.793121 
	C350.743286,273.837891 352.877991,270.931213 357.838379,269.934692 
z"/>
<path fill="#645DE0" opacity="1.000000" stroke="none" 
	d="
M270.212891,142.237091 
	C272.307892,143.660065 274.472992,144.898788 275.557587,146.765381 
	C276.002380,147.530884 274.447144,150.416336 273.202240,150.957016 
	C271.733490,151.594864 269.227783,151.320465 267.857727,150.409622 
	C264.802979,148.378799 265.740265,145.083389 270.212891,142.237091 
z"/>
<path fill="#645DE0" opacity="1.000000" stroke="none" 
	d="
M379.226929,274.154297 
	C382.398132,272.507080 385.081573,272.932495 386.054749,275.995300 
	C386.561615,277.590454 385.843323,280.569031 384.620117,281.445160 
	C383.352478,282.353088 380.283264,282.197723 378.930328,281.221222 
	C376.398590,279.393951 376.649902,276.665558 379.226929,274.154297 
z"/>
<path fill="#6059DF" opacity="1.000000" stroke="none" 
	d="
M292.592346,215.886108 
	C294.999420,215.115570 297.413269,213.935852 299.304749,214.501831 
	C300.352936,214.815491 301.300751,218.258484 300.854004,219.898788 
	C300.490265,221.234375 297.957489,222.874771 296.435547,222.826767 
	C292.328888,222.697189 291.394440,219.862778 292.592346,215.886108 
z"/>
<path fill="#0D0D0D" opacity="1.000000" stroke="none" 
	d="
M530.565308,120.260483 
	C532.952271,121.120499 535.334778,121.772202 536.802856,123.301689 
	C537.335815,123.856964 536.125977,127.369263 534.919678,127.987404 
	C533.382690,128.774994 530.481140,128.741638 529.157776,127.746140 
	C525.688782,125.136719 526.876770,122.445358 530.565308,120.260483 
z"/>
<path fill="#635CE0" opacity="1.000000" stroke="none" 
	d="
M272.686890,70.827484 
	C274.856720,69.929024 276.950226,68.733513 278.801147,69.033730 
	C279.917877,69.214851 281.432953,71.765953 281.350342,73.168564 
	C281.266418,74.593880 279.718750,76.448715 278.322205,77.180183 
	C274.743042,79.054802 272.144867,76.249435 272.686890,70.827484 
z"/>
<path fill="#645DE0" opacity="1.000000" stroke="none" 
	d="
M282.833923,135.254013 
	C280.176331,133.125458 279.196899,130.692429 281.401520,128.294586 
	C282.370148,127.241020 285.003479,126.322159 285.887024,126.889656 
	C287.504456,127.928513 289.500549,130.236481 289.333252,131.800690 
	C289.005341,134.866028 286.600769,136.539520 282.833923,135.254013 
z"/>
<path fill="#5D57DF" opacity="1.000000" stroke="none" 
	d="
M316.520355,240.858185 
	C313.020538,241.291916 310.641541,240.006104 310.671692,236.825104 
	C310.686188,235.298584 312.362457,232.933029 313.755493,232.516327 
	C315.131165,232.104797 318.453857,233.541367 318.536316,234.397171 
	C318.733337,236.441147 317.525330,238.620560 316.520355,240.858185 
z"/>
<path fill="#615AE0" opacity="1.000000" stroke="none" 
	d="
M275.728851,124.553452 
	C273.298737,124.426125 270.883911,124.434143 269.080048,123.388359 
	C268.375305,122.979767 268.380951,119.539062 269.251495,118.670250 
	C270.378601,117.545403 272.989441,116.799393 274.439728,117.326317 
	C277.951599,118.602287 277.608948,121.455681 275.728851,124.553452 
z"/>
<path fill="#625BE0" opacity="1.000000" stroke="none" 
	d="
M304.876709,196.012833 
	C306.480865,197.867371 308.261200,199.603149 308.632477,201.600815 
	C308.796906,202.485535 306.058228,204.891342 304.730713,204.821960 
	C303.091858,204.736298 300.652435,203.092636 300.150269,201.590302 
	C299.050201,198.299057 301.140747,196.419250 304.876709,196.012833 
z"/>
<path fill="#615AE0" opacity="1.000000" stroke="none" 
	d="
M346.916321,220.996414 
	C347.484344,217.435242 349.792175,216.344788 352.330658,217.305878 
	C353.740906,217.839813 355.392151,220.213913 355.274109,221.619156 
	C355.153229,223.058548 353.202972,225.127335 351.701691,225.498703 
	C348.895325,226.192917 347.096405,224.427444 346.916321,220.996414 
z"/>
<path fill="#6059DF" opacity="1.000000" stroke="none" 
	d="
M288.642822,54.675156 
	C289.691620,49.634251 292.448975,47.816948 295.082916,50.217838 
	C296.137329,51.178959 297.015991,53.156139 296.789520,54.465897 
	C296.566467,55.755924 294.718384,57.821011 293.805023,57.710670 
	C292.031464,57.496399 290.413208,55.996342 288.642822,54.675156 
z"/>
<path fill="#645DE0" opacity="1.000000" stroke="none" 
	d="
M410.807922,274.427185 
	C411.331757,278.317902 410.419586,281.060303 406.247528,280.246490 
	C404.823578,279.968719 403.105652,278.156525 402.692627,276.710938 
	C402.368835,275.577728 403.760864,272.792969 404.545166,272.732025 
	C406.536224,272.577393 408.614075,273.540497 410.807922,274.427185 
z"/>
<path fill="#645DE0" opacity="1.000000" stroke="none" 
	d="
M303.991791,127.992500 
	C302.412048,126.270378 300.759491,124.681435 300.233490,122.780739 
	C299.996918,121.925835 301.878845,119.645241 303.036133,119.455582 
	C304.496490,119.216270 306.923889,119.987015 307.661774,121.137817 
	C309.966614,124.732513 307.989258,126.899055 303.991791,127.992500 
z"/>
<path fill="#645DE0" opacity="1.000000" stroke="none" 
	d="
M333.629578,253.537506 
	C333.577423,251.335449 333.400635,249.242676 334.135162,247.543945 
	C334.452179,246.810730 337.398102,246.221008 337.857849,246.730942 
	C339.179779,248.197113 340.958649,250.583984 340.538971,252.018387 
	C339.579834,255.296707 336.796417,255.734039 333.629578,253.537506 
z"/>
<path fill="#615AE0" opacity="1.000000" stroke="none" 
	d="
M283.877106,95.290268 
	C282.510773,97.302361 281.200897,99.138466 279.469238,100.391891 
	C279.166962,100.610710 276.342529,98.547974 276.039215,97.227440 
	C275.729950,95.881149 276.655884,93.529305 277.813141,92.715126 
	C280.386139,90.904877 282.385040,92.533295 283.877106,95.290268 
z"/>
<path fill="#635CE0" opacity="1.000000" stroke="none" 
	d="
M286.368713,103.276657 
	C288.453979,100.916458 290.809021,100.349266 292.536713,102.589607 
	C293.495941,103.833450 293.782074,106.446060 293.110107,107.828613 
	C292.575043,108.929451 289.934692,109.869881 288.569427,109.526787 
	C285.622803,108.786285 285.041840,106.342216 286.368713,103.276657 
z"/>
<path fill="#5F59DF" opacity="1.000000" stroke="none" 
	d="
M319.550171,224.104324 
	C318.624420,221.997940 317.618835,220.002686 317.674072,218.037216 
	C317.693817,217.333969 320.368622,216.045120 321.664490,216.225281 
	C322.936859,216.402176 324.778107,217.958267 325.005310,219.165802 
	C325.711975,222.921783 323.718628,224.677185 319.550171,224.104324 
z"/>
<path fill="#665FE0" opacity="1.000000" stroke="none" 
	d="
M357.929871,257.073669 
	C361.246002,254.617828 363.800720,254.959854 364.856964,258.811188 
	C365.150879,259.882843 364.268036,261.995026 363.318634,262.508453 
	C362.127563,263.152618 359.549866,263.253113 358.939392,262.491333 
	C357.948486,261.254791 358.069946,259.126770 357.929871,257.073669 
z"/>
<path fill="#665FE0" opacity="1.000000" stroke="none" 
	d="
M433.818481,267.024353 
	C433.650452,269.262909 433.506195,271.402161 432.554810,273.085175 
	C432.270142,273.588806 429.068512,273.349365 428.386108,272.500031 
	C427.470490,271.360321 427.703735,269.297607 427.443726,267.631165 
	C429.473480,267.337555 431.503265,267.043945 433.818481,267.024353 
z"/>
<path fill="#625BE0" opacity="1.000000" stroke="none" 
	d="
M339.020325,237.702789 
	C337.341644,234.815948 338.221588,232.780426 340.807068,231.987198 
	C342.010620,231.617920 344.226074,232.213531 344.920959,233.155304 
	C345.662476,234.160217 345.540375,237.272217 345.118927,237.411026 
	C343.291138,238.013031 341.216431,237.865173 339.020325,237.702789 
z"/>
<path fill="#615AE0" opacity="1.000000" stroke="none" 
	d="
M297.717926,79.544502 
	C299.858154,79.501030 301.919983,79.365265 303.566681,80.126961 
	C304.087646,80.367928 304.084259,83.644302 303.272614,84.388817 
	C302.229248,85.345924 300.129822,85.151733 298.485291,85.453476 
	C298.149841,83.568771 297.814392,81.684074 297.717926,79.544502 
z"/>
<path fill="#625BE0" opacity="1.000000" stroke="none" 
	d="
M314.240906,41.312408 
	C312.032837,40.762596 309.926392,40.271332 308.424225,39.041786 
	C308.030792,38.719765 309.119019,35.594494 310.263580,34.710335 
	C311.131775,34.039642 314.328339,34.566921 314.476013,35.109226 
	C314.983978,36.974609 314.607605,39.080803 314.240906,41.312408 
z"/>
<path fill="#645DE0" opacity="1.000000" stroke="none" 
	d="
M289.559998,76.392822 
	C289.532715,74.289635 289.284912,72.098351 290.220184,70.696236 
	C290.678436,70.009201 293.721649,70.250313 294.870056,71.077599 
	C295.751587,71.712585 296.036346,75.059418 295.658020,75.238464 
	C293.890656,76.074913 291.801208,76.230705 289.559998,76.392822 
z"/>
<path fill="#6862E1" opacity="1.000000" stroke="none" 
	d="
M330.518494,25.450130 
	C332.361816,24.360136 334.047302,23.276279 335.828156,23.086214 
	C336.317047,23.034039 337.812592,25.827227 337.533875,27.003874 
	C337.249725,28.203487 334.746826,30.081493 334.268372,29.809589 
	C332.717743,28.928368 331.650208,27.197073 330.518494,25.450130 
z"/>
<path fill="#665FE0" opacity="1.000000" stroke="none" 
	d="
M387.552979,266.547699 
	C383.997314,266.225922 382.117249,264.650421 383.667694,261.329376 
	C384.155304,260.284912 386.001740,259.372955 387.246124,259.346802 
	C388.195007,259.326874 390.057770,260.919434 389.968170,261.587158 
	C389.743134,263.263458 388.641632,264.822113 387.552979,266.547699 
z"/>
<path fill="#6963E1" opacity="1.000000" stroke="none" 
	d="
M308.253296,108.864594 
	C307.071716,107.223221 305.667694,105.665184 305.678162,104.116676 
	C305.684174,103.224335 307.933319,101.754211 309.254517,101.657204 
	C310.253387,101.583855 311.971985,103.082504 312.338226,104.215225 
	C313.314758,107.235390 311.600647,108.724464 308.253296,108.864594 
z"/>
<path fill="#635CE0" opacity="1.000000" stroke="none" 
	d="
M308.503967,57.580677 
	C307.503693,55.690407 306.538177,53.959118 306.373627,52.154793 
	C306.329498,51.670650 308.962616,50.228737 309.941956,50.544373 
	C311.184235,50.944759 313.054901,53.281460 312.795654,53.746281 
	C311.920288,55.315617 310.222595,56.426239 308.503967,57.580677 
z"/>
<path fill="#625BE0" opacity="1.000000" stroke="none" 
	d="
M450.549469,256.264587 
	C452.654541,256.231964 454.606049,256.190430 456.263763,256.867889 
	C456.706024,257.048615 456.781586,259.974091 456.073792,260.666321 
	C455.133026,261.586426 452.221710,262.209229 451.971344,261.813080 
	C451.014984,260.299805 450.786255,258.326660 450.549469,256.264587 
z"/>
<path fill="#615AE0" opacity="1.000000" stroke="none" 
	d="
M371.588684,230.553772 
	C369.773224,231.412140 368.048767,232.467178 366.516998,232.237473 
	C365.755463,232.123306 364.632141,229.432281 364.977631,228.308029 
	C365.333282,227.150696 367.276733,226.481293 368.525391,225.598389 
	C369.603302,227.139038 370.681244,228.679688 371.588684,230.553772 
z"/>
<path fill="#665FE0" opacity="1.000000" stroke="none" 
	d="
M362.870605,243.625061 
	C364.780609,243.082428 366.528107,242.873627 368.275574,242.664825 
	C368.438110,244.175797 369.126495,245.922363 368.589844,247.120071 
	C368.190399,248.011612 365.408600,248.923569 365.071106,248.556061 
	C363.947266,247.332382 363.447205,245.535858 362.870605,243.625061 
z"/>
<path fill="#6862E1" opacity="1.000000" stroke="none" 
	d="
M318.249329,64.876045 
	C313.649292,64.624283 311.560913,62.289936 313.572449,59.978325 
	C314.428986,58.993977 317.010864,58.382900 318.099030,58.954090 
	C320.662781,60.299801 320.459137,62.606640 318.249329,64.876045 
z"/>
<path fill="#635CE0" opacity="1.000000" stroke="none" 
	d="
M409.515350,262.315033 
	C410.259644,260.537964 410.968018,258.823212 412.224579,257.750671 
	C412.605713,257.425354 415.097504,258.607208 415.538605,259.586823 
	C415.987854,260.584595 415.232117,263.269745 414.777435,263.324219 
	C413.133148,263.521149 411.393524,262.922333 409.515350,262.315033 
z"/>
<path fill="#645DE0" opacity="1.000000" stroke="none" 
	d="
M327.009216,37.413353 
	C328.799927,36.668255 330.503754,36.001762 332.151367,36.119762 
	C332.605804,36.152306 333.482056,38.752586 333.091522,39.757694 
	C332.697144,40.772762 330.292358,42.118088 329.948792,41.843204 
	C328.669983,40.820072 327.876678,39.190117 327.009216,37.413353 
z"/>
<path fill="#6963E1" opacity="1.000000" stroke="none" 
	d="
M470.869781,243.149429 
	C472.297516,242.056793 473.638519,241.058838 475.102325,240.822998 
	C475.562653,240.748840 477.016937,242.866165 476.829987,243.720993 
	C476.574249,244.890350 475.185516,245.811935 474.282440,246.839737 
	C473.131805,245.739349 471.981171,244.638977 470.869781,243.149429 
z"/>
<path fill="#6E67E2" opacity="1.000000" stroke="none" 
	d="
M436.373718,256.438080 
	C435.596436,254.778961 434.811737,253.231750 434.889526,251.729172 
	C434.917603,251.186844 437.312164,250.081375 438.096832,250.429047 
	C439.196838,250.916443 440.719330,253.118057 440.446930,253.537170 
	C439.615112,254.816925 438.010864,255.594589 436.373718,256.438080 
z"/>
<path fill="#6E67E2" opacity="1.000000" stroke="none" 
	d="
M393.081787,252.061111 
	C391.325165,251.623962 389.863251,251.004379 388.401337,250.384811 
	C388.927856,249.153915 389.154755,247.532410 390.080658,246.822174 
	C390.758179,246.302475 393.273560,246.752701 393.375885,247.165634 
	C393.742737,248.645782 393.431396,250.294006 393.081787,252.061111 
z"/>
<path fill="#6E67E2" opacity="1.000000" stroke="none" 
	d="
M334.920044,42.995735 
	C336.691589,43.441326 338.157135,44.046005 339.622650,44.650688 
	C339.080994,45.878658 338.836121,47.504860 337.899536,48.202950 
	C337.205994,48.719864 334.694244,48.261036 334.586823,47.834942 
	C334.217590,46.370274 334.549377,44.728870 334.920044,42.995735 
z"/>
<path fill="#6059DF" opacity="1.000000" stroke="none" 
	d="
M355.945129,25.950516 
	C355.775696,27.717316 355.612488,29.374222 354.790924,30.584036 
	C354.516235,30.988556 352.126923,30.638033 351.491882,29.928076 
	C350.838837,29.198078 350.733582,26.728701 351.109436,26.551775 
	C352.474304,25.909306 354.141266,25.908741 355.945129,25.950516 
z"/>
<path fill="#6963E1" opacity="1.000000" stroke="none" 
	d="
M386.128723,231.052246 
	C387.470245,232.205795 388.651306,233.322388 389.268707,234.692886 
	C389.404480,234.994293 387.628998,236.617523 386.564514,236.846848 
	C385.772858,237.017410 383.841675,235.718063 383.910828,235.420944 
	C384.260193,233.920258 385.098602,232.533417 386.128723,231.052246 
z"/>
<path fill="#6862E1" opacity="1.000000" stroke="none" 
	d="
M319.010803,90.580940 
	C316.242676,91.753220 314.197174,91.191780 314.173309,88.321724 
	C314.164612,87.274147 316.178833,85.237518 317.095947,85.332581 
	C320.125580,85.646576 320.813965,87.667801 319.010803,90.580940 
z"/>
<path fill="#6963E1" opacity="1.000000" stroke="none" 
	d="
M457.940857,238.833862 
	C460.721649,237.352173 462.600342,238.071960 462.790283,240.848129 
	C462.852325,241.754913 461.013031,243.640762 460.099091,243.606140 
	C457.358093,243.502319 456.394440,241.763672 457.940857,238.833862 
z"/>
<path fill="#625BE0" opacity="1.000000" stroke="none" 
	d="
M363.437683,21.736126 
	C363.027527,19.933371 362.712738,18.274088 363.071533,16.776140 
	C363.167511,16.375372 365.612122,15.975169 366.447510,16.470423 
	C367.295166,16.972927 368.166565,19.252615 367.839844,19.584440 
	C366.782013,20.658737 365.178772,21.195976 363.437683,21.736126 
z"/>
<path fill="#635CE0" opacity="1.000000" stroke="none" 
	d="
M382.930481,20.382698 
	C383.480927,18.775600 384.168488,17.485641 384.856049,16.195683 
	C385.919952,16.778175 387.356934,17.125507 387.922150,18.022303 
	C388.327942,18.666185 387.743225,20.846920 387.296509,20.944019 
	C385.967346,21.232922 384.488129,20.831497 382.930481,20.382698 
z"/>
<path fill="#6E67E2" opacity="1.000000" stroke="none" 
	d="
M357.201721,34.730270 
	C358.684601,33.714947 360.190002,33.063400 361.695404,32.411854 
	C361.721924,33.839481 361.748444,35.267109 361.774963,36.694736 
	C360.258057,36.161175 358.741119,35.627613 357.201721,34.730270 
z"/>
<path fill="#FDFDFD" opacity="1.000000" stroke="none" 
	d="
M395.178223,149.456360 
	C392.161469,134.716415 399.624908,122.108711 412.776184,119.155251 
	C426.178192,116.145477 439.027618,123.938301 442.290039,137.054642 
	C445.152832,148.564270 438.822235,160.616455 427.676727,164.875519 
	C416.266144,169.235870 402.902527,164.460800 397.121368,153.920319 
	C396.407227,152.618286 395.893951,151.206131 395.178223,149.456360 
z"/>
<path fill="#FBFBFB" opacity="1.000000" stroke="none" 
	d="
M787.810974,168.965057 
	C779.677673,168.399231 775.241821,164.586548 774.872253,158.212051 
	C774.379822,149.719971 778.070984,144.330704 785.182251,143.158798 
	C791.565063,142.106949 797.549561,145.800644 799.519409,152.007843 
	C802.045776,159.968613 797.488525,166.801971 787.810974,168.965057 
z"/>
<path fill="#FAFAFA" opacity="1.000000" stroke="none" 
	d="
M720.171631,164.741364 
	C719.022522,162.331833 717.718628,160.298325 717.274475,158.091751 
	C716.127991,152.396393 719.395813,146.319656 724.452393,144.031113 
	C729.453979,141.767471 735.311096,143.349731 738.672241,147.872559 
	C742.194214,152.611877 742.041321,160.030701 738.327454,164.603638 
	C734.907654,168.814484 729.238281,170.245178 724.417419,167.924942 
	C722.956482,167.221771 721.737976,166.014771 720.171631,164.741364 
z"/>
</svg>